<svg width="32" height="20" viewBox="0 0 32 20" fill="none" xmlns="http://www.w3.org/2000/svg">
<path d="M1.48229 18.4C2.03628 18.9479 2.78495 19.2554 3.56524 19.2554C4.34552 19.2554 5.09419 18.9479 5.64818 18.4L13.1468 10.9223C13.8965 10.1765 14.9123 9.75763 15.9712 9.75763C17.0302 9.75763 18.046 10.1765 18.7957 10.9223L26.2943 18.4C26.5696 18.6862 26.9001 18.914 27.2659 19.0696C27.6317 19.2252 28.0254 19.3054 28.4231 19.3054C28.8208 19.3054 29.2144 19.2252 29.5802 19.0696C29.9461 18.914 30.2766 18.6862 30.5518 18.4C31.1034 17.8486 31.4131 17.1016 31.4131 16.3228C31.4131 15.5441 31.1034 14.7971 30.5518 14.2457L17.8042 1.51705C17.568 1.27966 17.287 1.09124 16.9774 0.962664C16.6678 0.834085 16.3358 0.767887 16.0004 0.767887C15.665 0.767887 15.333 0.834085 15.0234 0.962664C14.7138 1.09124 14.4328 1.27966 14.1966 1.51705L1.48229 14.1876C1.20343 14.4633 0.982083 14.7914 0.83103 15.1529C0.679977 15.5144 0.602203 15.9021 0.602203 16.2938C0.602203 16.6854 0.679977 17.0731 0.83103 17.4346C0.982083 17.7961 1.20343 18.1242 1.48229 18.4Z" fill="white"/>
</svg>
