<?xml version="1.0" standalone="no"?>
<!DOCTYPE svg PUBLIC "-//W3C//DTD SVG 20010904//EN"
 "http://www.w3.org/TR/2001/REC-SVG-20010904/DTD/svg10.dtd">
<svg version="1.0" xmlns="http://www.w3.org/2000/svg"
 width="512.000000pt" height="512.000000pt" viewBox="0 0 512.000000 512.000000"
 preserveAspectRatio="xMidYMid meet">

<g transform="translate(0.000000,512.000000) scale(0.100000,-0.100000)"
fill="#ffffff" stroke="none">
<path d="M1365 4335 c-5 -2 -23 -6 -40 -10 -22 -5 -97 -73 -268 -243 -131
-130 -245 -250 -254 -266 -17 -32 -22 -105 -10 -151 6 -21 164 -186 545 -567
l537 -538 -537 -537 c-384 -385 -539 -547 -544 -568 -10 -38 -10 -92 0 -130 8
-34 460 -495 510 -522 32 -17 105 -22 151 -10 21 6 186 164 568 545 l537 537
538 -537 c381 -381 546 -539 567 -545 46 -12 119 -7 151 10 50 27 502 488 510
522 10 38 10 92 0 130 -5 21 -160 183 -544 568 l-537 537 537 538 c476 477
538 542 548 580 12 45 6 101 -16 142 -7 14 -120 132 -251 262 -163 162 -247
239 -268 244 -38 10 -92 10 -130 0 -21 -5 -183 -160 -567 -544 l-538 -537
-537 537 c-460 458 -544 538 -578 547 -40 11 -61 12 -80 6z"/>
</g>
</svg>
