<svg width="50" height="50" viewBox="0 0 50 50" fill="none" xmlns="http://www.w3.org/2000/svg">
<circle cx="25" cy="25" r="24.5" fill="#383C73" stroke="#ECECEC"/>
<path d="M15.9263 30.25C16.2726 30.5925 16.7405 30.7846 17.2281 30.7846C17.7158 30.7846 18.1838 30.5925 18.53 30.25L23.2166 25.5764C23.6852 25.1103 24.32 24.8485 24.9819 24.8485C25.6438 24.8485 26.2786 25.1103 26.7472 25.5764L31.4338 30.25C31.6059 30.4289 31.8124 30.5713 32.0411 30.6685C32.2697 30.7658 32.5157 30.8159 32.7643 30.8159C33.0129 30.8159 33.2589 30.7658 33.4875 30.6685C33.7162 30.5713 33.9227 30.4289 34.0948 30.25C34.4395 29.9054 34.6331 29.4385 34.6331 28.9518C34.6331 28.465 34.4395 27.9982 34.0948 27.6536L26.1275 19.6982C25.9799 19.5498 25.8043 19.432 25.6108 19.3517C25.4173 19.2713 25.2097 19.2299 25.0001 19.2299C24.7905 19.2299 24.583 19.2713 24.3895 19.3517C24.196 19.432 24.0204 19.5498 23.8727 19.6982L15.9263 27.6172C15.752 27.7896 15.6137 27.9946 15.5193 28.2206C15.4249 28.4465 15.3763 28.6888 15.3763 28.9336C15.3763 29.1784 15.4249 29.4207 15.5193 29.6466C15.6137 29.8726 15.752 30.0776 15.9263 30.25Z" fill="white"/>
</svg>
