<svg width="70" height="69" viewBox="0 0 70 69" fill="none" xmlns="http://www.w3.org/2000/svg">
<circle cx="34.6188" cy="34.5" r="34.5" fill="#383C73"/>
<g clip-path="url(#clip0_190_57)">
<path d="M29.0002 52.8905C28.3407 52.2256 27.9706 51.327 27.9706 50.3905C27.9706 49.454 28.3407 48.5554 29.0002 47.8905L38.0002 38.8905C38.8978 37.9906 39.402 36.7715 39.402 35.5005C39.402 34.2295 38.8978 33.0103 38.0002 32.1105L29.0002 23.1105C28.6557 22.7801 28.3815 22.3834 28.1942 21.9443C28.0069 21.5053 27.9104 21.0328 27.9104 20.5555C27.9104 20.0781 28.0069 19.6057 28.1942 19.1666C28.3815 18.7276 28.6557 18.3309 29.0002 18.0005C29.6638 17.3385 30.5629 16.9668 31.5002 16.9668C32.4375 16.9668 33.3366 17.3385 34.0002 18.0005L49.3202 33.3005C49.6059 33.584 49.8327 33.9213 49.9874 34.2929C50.1422 34.6644 50.2219 35.063 50.2219 35.4655C50.2219 35.868 50.1422 36.2665 49.9874 36.6381C49.8327 37.0097 49.6059 37.347 49.3202 37.6305L34.0702 52.8905C33.7383 53.2252 33.3434 53.4908 32.9083 53.6721C32.4732 53.8534 32.0065 53.9468 31.5352 53.9468C31.0638 53.9468 30.5971 53.8534 30.162 53.6721C29.727 53.4908 29.3321 53.2252 29.0002 52.8905Z" fill="white"/>
</g>
<defs>
<clipPath id="clip0_190_57">
<rect width="22.22" height="36.93" fill="white" transform="translate(28.0001 17)"/>
</clipPath>
</defs>
</svg>
