<svg width="69" height="69" viewBox="0 0 69 69" fill="none" xmlns="http://www.w3.org/2000/svg">
<circle cx="34.4999" cy="34.5" r="34.5" fill="#383C73"/>
<g clip-path="url(#clip0_190_53)">
<path d="M41.2205 18.0392C41.88 18.7041 42.2501 19.6027 42.2501 20.5392C42.2501 21.4757 41.88 22.3743 41.2205 23.0392L32.2205 32.0392C31.3229 32.939 30.8187 34.1582 30.8187 35.4292C30.8187 36.7002 31.3229 37.9194 32.2205 38.8192L41.2205 47.8192C41.5651 48.1496 41.8392 48.5463 42.0265 48.9854C42.2138 49.4244 42.3103 49.8969 42.3103 50.3742C42.3103 50.8516 42.2138 51.324 42.0265 51.7631C41.8392 52.2021 41.5651 52.5988 41.2205 52.9292C40.5569 53.5912 39.6578 53.9629 38.7205 53.9629C37.7832 53.9629 36.8841 53.5912 36.2205 52.9292L20.9005 37.6292C20.6148 37.3457 20.388 37.0084 20.2333 36.6368C20.0785 36.2653 19.9988 35.8667 19.9988 35.4642C19.9988 35.0617 20.0785 34.6632 20.2333 34.2916C20.388 33.92 20.6148 33.5827 20.9005 33.2992L36.1505 18.0392C36.4824 17.7045 36.8773 17.4388 37.3124 17.2575C37.7475 17.0762 38.2142 16.9829 38.6855 16.9829C39.1569 16.9829 39.6236 17.0762 40.0587 17.2575C40.4938 17.4388 40.8886 17.7045 41.2205 18.0392Z" fill="white"/>
</g>
<defs>
<clipPath id="clip0_190_53">
<rect width="22.22" height="36.93" fill="white" transform="translate(42.2206 53.9297) rotate(-180)"/>
</clipPath>
</defs>
</svg>
