<svg width="200" height="70" viewBox="0 0 200 70" fill="none" xmlns="http://www.w3.org/2000/svg">
<g clip-path="url(#clip0_828_98)">
<path d="M27.5017 18.216C26.3977 18.216 25.4617 18.03 24.6937 17.658C23.9257 17.274 23.2717 16.782 22.7317 16.182L24.5317 14.364C25.3837 15.324 26.4337 15.804 27.6817 15.804C28.3537 15.804 28.8517 15.666 29.1757 15.39C29.4997 15.114 29.6617 14.748 29.6617 14.292C29.6617 13.944 29.5657 13.656 29.3737 13.428C29.1817 13.188 28.7917 13.026 28.2037 12.942L26.9617 12.78C25.6297 12.612 24.6517 12.21 24.0277 11.574C23.4157 10.938 23.1097 10.092 23.1097 9.036C23.1097 8.472 23.2177 7.956 23.4337 7.488C23.6497 7.02 23.9557 6.618 24.3517 6.282C24.7597 5.946 25.2517 5.688 25.8277 5.508C26.4157 5.316 27.0817 5.22 27.8257 5.22C28.7737 5.22 29.6077 5.37 30.3277 5.67C31.0477 5.97 31.6657 6.408 32.1817 6.984L30.3637 8.82C30.0637 8.472 29.6977 8.19 29.2657 7.974C28.8457 7.746 28.3117 7.632 27.6637 7.632C27.0517 7.632 26.5957 7.74 26.2957 7.956C25.9957 8.172 25.8457 8.472 25.8457 8.856C25.8457 9.288 25.9597 9.6 26.1877 9.792C26.4277 9.984 26.8117 10.122 27.3397 10.206L28.5817 10.404C29.8777 10.608 30.8377 11.01 31.4617 11.61C32.0857 12.198 32.3977 13.038 32.3977 14.13C32.3977 14.73 32.2897 15.282 32.0737 15.786C31.8577 16.29 31.5397 16.722 31.1197 17.082C30.7117 17.442 30.2017 17.724 29.5897 17.928C28.9777 18.12 28.2817 18.216 27.5017 18.216ZM37.4762 18C36.5522 18 35.8502 17.766 35.3702 17.298C34.9022 16.83 34.6682 16.146 34.6682 15.246V10.62H33.3362V8.55H34.0022C34.3622 8.55 34.6082 8.466 34.7402 8.298C34.8722 8.118 34.9382 7.866 34.9382 7.542V5.994H37.3322V8.55H39.2042V10.62H37.3322V15.93H39.0602V18H37.4762ZM47.7689 18C47.2889 18 46.8869 17.85 46.5629 17.55C46.2509 17.25 46.0529 16.848 45.9689 16.344H45.8609C45.7169 16.956 45.3989 17.424 44.9069 17.748C44.4149 18.06 43.8089 18.216 43.0889 18.216C42.1409 18.216 41.4149 17.964 40.9109 17.46C40.4069 16.956 40.1549 16.29 40.1549 15.462C40.1549 14.466 40.5149 13.728 41.2349 13.248C41.9669 12.756 42.9569 12.51 44.2049 12.51H45.6989V11.916C45.6989 11.46 45.5789 11.1 45.3389 10.836C45.0989 10.56 44.6969 10.422 44.1329 10.422C43.6049 10.422 43.1849 10.536 42.8729 10.764C42.5609 10.992 42.3029 11.25 42.0989 11.538L40.5149 10.134C40.8989 9.57 41.3789 9.132 41.9549 8.82C42.5429 8.496 43.3349 8.334 44.3309 8.334C45.6749 8.334 46.6829 8.628 47.3549 9.216C48.0269 9.804 48.3629 10.662 48.3629 11.79V15.93H49.2449V18H47.7689ZM44.0789 16.362C44.5229 16.362 44.9009 16.266 45.2129 16.074C45.5369 15.882 45.6989 15.57 45.6989 15.138V14.022H44.4029C43.3589 14.022 42.8369 14.376 42.8369 15.084V15.354C42.8369 15.702 42.9449 15.96 43.1609 16.128C43.3769 16.284 43.6829 16.362 44.0789 16.362ZM50.7629 18V8.55H53.4269V10.152H53.5349C53.7029 9.66 53.9969 9.234 54.4169 8.874C54.8369 8.514 55.4189 8.334 56.1629 8.334C57.1349 8.334 57.8669 8.658 58.3589 9.306C58.8629 9.954 59.1149 10.878 59.1149 12.078V18H56.4509V12.294C56.4509 11.682 56.3549 11.232 56.1629 10.944C55.9709 10.644 55.6289 10.494 55.1369 10.494C54.9209 10.494 54.7109 10.524 54.5069 10.584C54.3029 10.632 54.1169 10.716 53.9489 10.836C53.7929 10.956 53.6669 11.106 53.5709 11.286C53.4749 11.454 53.4269 11.652 53.4269 11.88V18H50.7629ZM65.0496 18.216C64.3536 18.216 63.7296 18.102 63.1776 17.874C62.6376 17.646 62.1756 17.316 61.7916 16.884C61.4196 16.452 61.1316 15.93 60.9276 15.318C60.7236 14.706 60.6216 14.022 60.6216 13.266C60.6216 12.51 60.7236 11.826 60.9276 11.214C61.1316 10.602 61.4196 10.086 61.7916 9.666C62.1756 9.234 62.6376 8.904 63.1776 8.676C63.7296 8.448 64.3536 8.334 65.0496 8.334C65.7456 8.334 66.3636 8.448 66.9036 8.676C67.4556 8.904 67.9176 9.234 68.2896 9.666C68.6736 10.086 68.9676 10.602 69.1716 11.214C69.3756 11.826 69.4776 12.51 69.4776 13.266C69.4776 14.022 69.3756 14.706 69.1716 15.318C68.9676 15.93 68.6736 16.452 68.2896 16.884C67.9176 17.316 67.4556 17.646 66.9036 17.874C66.3636 18.102 65.7456 18.216 65.0496 18.216ZM65.0496 16.11C65.5776 16.11 65.9856 15.948 66.2736 15.624C66.5616 15.3 66.7056 14.838 66.7056 14.238V12.312C66.7056 11.712 66.5616 11.25 66.2736 10.926C65.9856 10.602 65.5776 10.44 65.0496 10.44C64.5216 10.44 64.1136 10.602 63.8256 10.926C63.5376 11.25 63.3936 11.712 63.3936 12.312V14.238C63.3936 14.838 63.5376 15.3 63.8256 15.624C64.1136 15.948 64.5216 16.11 65.0496 16.11ZM72.9811 18L69.8851 8.55H72.5131L73.6831 12.366L74.5651 15.786H74.7091L75.5911 12.366L76.7251 8.55H79.2451L76.1491 18H72.9811ZM87.2064 18C86.7264 18 86.3244 17.85 86.0004 17.55C85.6884 17.25 85.4904 16.848 85.4064 16.344H85.2984C85.1544 16.956 84.8364 17.424 84.3444 17.748C83.8524 18.06 83.2464 18.216 82.5264 18.216C81.5784 18.216 80.8524 17.964 80.3484 17.46C79.8444 16.956 79.5924 16.29 79.5924 15.462C79.5924 14.466 79.9524 13.728 80.6724 13.248C81.4044 12.756 82.3944 12.51 83.6424 12.51H85.1364V11.916C85.1364 11.46 85.0164 11.1 84.7764 10.836C84.5364 10.56 84.1344 10.422 83.5704 10.422C83.0424 10.422 82.6224 10.536 82.3104 10.764C81.9984 10.992 81.7404 11.25 81.5364 11.538L79.9524 10.134C80.3364 9.57 80.8164 9.132 81.3924 8.82C81.9804 8.496 82.7724 8.334 83.7684 8.334C85.1124 8.334 86.1204 8.628 86.7924 9.216C87.4644 9.804 87.8004 10.662 87.8004 11.79V15.93H88.6824V18H87.2064ZM83.5164 16.362C83.9604 16.362 84.3384 16.266 84.6504 16.074C84.9744 15.882 85.1364 15.57 85.1364 15.138V14.022H83.8404C82.7964 14.022 82.2744 14.376 82.2744 15.084V15.354C82.2744 15.702 82.3824 15.96 82.5984 16.128C82.8144 16.284 83.1204 16.362 83.5164 16.362ZM95.8203 8.55H98.3043L94.6683 19.458C94.4283 20.19 94.0863 20.73 93.6423 21.078C93.2103 21.426 92.5863 21.6 91.7703 21.6H90.1143V19.53H91.8963L92.2203 18.486L88.9083 8.55H91.5543L92.9403 12.96L93.6243 15.696H93.7323L94.4343 12.96L95.8203 8.55ZM106.125 18C105.645 18 105.243 17.85 104.919 17.55C104.607 17.25 104.409 16.848 104.325 16.344H104.217C104.073 16.956 103.755 17.424 103.263 17.748C102.771 18.06 102.165 18.216 101.445 18.216C100.497 18.216 99.7714 17.964 99.2674 17.46C98.7634 16.956 98.5114 16.29 98.5114 15.462C98.5114 14.466 98.8714 13.728 99.5914 13.248C100.323 12.756 101.313 12.51 102.561 12.51H104.055V11.916C104.055 11.46 103.935 11.1 103.695 10.836C103.455 10.56 103.053 10.422 102.489 10.422C101.961 10.422 101.541 10.536 101.229 10.764C100.917 10.992 100.659 11.25 100.455 11.538L98.8714 10.134C99.2554 9.57 99.7354 9.132 100.311 8.82C100.899 8.496 101.691 8.334 102.687 8.334C104.031 8.334 105.039 8.628 105.711 9.216C106.383 9.804 106.719 10.662 106.719 11.79V15.93H107.601V18H106.125ZM102.435 16.362C102.879 16.362 103.257 16.266 103.569 16.074C103.893 15.882 104.055 15.57 104.055 15.138V14.022H102.759C101.715 14.022 101.193 14.376 101.193 15.084V15.354C101.193 15.702 101.301 15.96 101.517 16.128C101.733 16.284 102.039 16.362 102.435 16.362ZM113.247 18V5.436H121.797V7.866H115.983V10.44H120.969V12.852H115.983V15.57H121.797V18H113.247ZM129.347 16.416H129.257C129.173 16.656 129.059 16.884 128.915 17.1C128.783 17.316 128.609 17.508 128.393 17.676C128.177 17.844 127.919 17.976 127.619 18.072C127.331 18.168 126.995 18.216 126.611 18.216C125.639 18.216 124.901 17.898 124.397 17.262C123.905 16.614 123.659 15.69 123.659 14.49V8.55H126.323V14.256C126.323 14.832 126.425 15.276 126.629 15.588C126.833 15.9 127.181 16.056 127.673 16.056C127.877 16.056 128.081 16.026 128.285 15.966C128.489 15.906 128.669 15.822 128.825 15.714C128.981 15.594 129.107 15.45 129.203 15.282C129.299 15.114 129.347 14.916 129.347 14.688V8.55H132.011V18H129.347V16.416ZM142.968 18.684C142.968 19.188 142.878 19.632 142.698 20.016C142.53 20.4 142.248 20.724 141.852 20.988C141.456 21.264 140.928 21.468 140.268 21.6C139.62 21.744 138.816 21.816 137.856 21.816C137.04 21.816 136.344 21.762 135.768 21.654C135.204 21.558 134.742 21.414 134.382 21.222C134.034 21.042 133.776 20.814 133.608 20.538C133.452 20.274 133.374 19.968 133.374 19.62C133.374 19.092 133.53 18.678 133.842 18.378C134.154 18.078 134.586 17.892 135.138 17.82V17.622C134.682 17.538 134.34 17.346 134.112 17.046C133.884 16.734 133.77 16.374 133.77 15.966C133.77 15.714 133.818 15.498 133.914 15.318C134.022 15.126 134.154 14.964 134.31 14.832C134.478 14.688 134.67 14.574 134.886 14.49C135.102 14.406 135.318 14.34 135.534 14.292V14.22C134.958 13.956 134.532 13.596 134.256 13.14C133.98 12.672 133.842 12.132 133.842 11.52C133.842 10.56 134.172 9.792 134.832 9.216C135.504 8.628 136.524 8.334 137.892 8.334C138.516 8.334 139.05 8.394 139.494 8.514V8.154C139.494 7.65 139.614 7.29 139.854 7.074C140.106 6.846 140.46 6.732 140.916 6.732H142.41V8.712H140.322V8.82C140.874 9.084 141.282 9.45 141.546 9.918C141.81 10.374 141.942 10.908 141.942 11.52C141.942 12.468 141.606 13.23 140.934 13.806C140.274 14.37 139.26 14.652 137.892 14.652C137.28 14.652 136.722 14.586 136.218 14.454C135.942 14.634 135.804 14.886 135.804 15.21C135.804 15.438 135.888 15.618 136.056 15.75C136.236 15.87 136.53 15.93 136.938 15.93H139.674C140.826 15.93 141.66 16.17 142.176 16.65C142.704 17.13 142.968 17.808 142.968 18.684ZM140.466 19.044C140.466 18.768 140.358 18.558 140.142 18.414C139.926 18.27 139.548 18.198 139.008 18.198H135.768C135.648 18.318 135.558 18.45 135.498 18.594C135.45 18.75 135.426 18.9 135.426 19.044C135.426 19.392 135.576 19.644 135.876 19.8C136.176 19.968 136.686 20.052 137.406 20.052H138.486C139.206 20.052 139.716 19.968 140.016 19.8C140.316 19.644 140.466 19.392 140.466 19.044ZM137.892 12.906C138.42 12.906 138.81 12.798 139.062 12.582C139.326 12.354 139.458 12.03 139.458 11.61V11.394C139.458 10.974 139.326 10.656 139.062 10.44C138.81 10.212 138.42 10.098 137.892 10.098C137.364 10.098 136.968 10.212 136.704 10.44C136.452 10.656 136.326 10.974 136.326 11.394V11.61C136.326 12.03 136.452 12.354 136.704 12.582C136.968 12.798 137.364 12.906 137.892 12.906ZM147.718 18.216C146.998 18.216 146.356 18.102 145.792 17.874C145.228 17.634 144.748 17.304 144.352 16.884C143.968 16.452 143.674 15.93 143.47 15.318C143.278 14.706 143.182 14.022 143.182 13.266C143.182 12.522 143.278 11.85 143.47 11.25C143.662 10.638 143.944 10.116 144.316 9.684C144.7 9.252 145.168 8.922 145.72 8.694C146.272 8.454 146.902 8.334 147.61 8.334C148.39 8.334 149.056 8.466 149.608 8.73C150.172 8.994 150.628 9.348 150.976 9.792C151.336 10.236 151.594 10.752 151.75 11.34C151.918 11.916 152.002 12.522 152.002 13.158V13.95H145.936V14.094C145.936 14.718 146.104 15.216 146.44 15.588C146.776 15.948 147.304 16.128 148.024 16.128C148.576 16.128 149.026 16.02 149.374 15.804C149.722 15.576 150.046 15.306 150.346 14.994L151.678 16.65C151.258 17.142 150.706 17.526 150.022 17.802C149.35 18.078 148.582 18.216 147.718 18.216ZM147.664 10.296C147.124 10.296 146.698 10.476 146.386 10.836C146.086 11.184 145.936 11.652 145.936 12.24V12.384H149.248V12.222C149.248 11.646 149.116 11.184 148.852 10.836C148.6 10.476 148.204 10.296 147.664 10.296ZM153.613 18V8.55H156.277V10.152H156.385C156.553 9.66 156.847 9.234 157.267 8.874C157.687 8.514 158.269 8.334 159.013 8.334C159.985 8.334 160.717 8.658 161.209 9.306C161.713 9.954 161.965 10.878 161.965 12.078V18H159.301V12.294C159.301 11.682 159.205 11.232 159.013 10.944C158.821 10.644 158.479 10.494 157.987 10.494C157.771 10.494 157.561 10.524 157.357 10.584C157.153 10.632 156.967 10.716 156.799 10.836C156.643 10.956 156.517 11.106 156.421 11.286C156.325 11.454 156.277 11.652 156.277 11.88V18H153.613ZM165.398 7.542C164.858 7.542 164.462 7.422 164.21 7.182C163.97 6.93 163.85 6.612 163.85 6.228V5.832C163.85 5.448 163.97 5.136 164.21 4.896C164.462 4.644 164.858 4.518 165.398 4.518C165.938 4.518 166.328 4.644 166.568 4.896C166.82 5.136 166.946 5.448 166.946 5.832V6.228C166.946 6.612 166.82 6.93 166.568 7.182C166.328 7.422 165.938 7.542 165.398 7.542ZM164.066 8.55H166.73V18H164.066V8.55ZM175.93 18C175.45 18 175.048 17.85 174.724 17.55C174.412 17.25 174.214 16.848 174.13 16.344H174.022C173.878 16.956 173.56 17.424 173.068 17.748C172.576 18.06 171.97 18.216 171.25 18.216C170.302 18.216 169.576 17.964 169.072 17.46C168.568 16.956 168.316 16.29 168.316 15.462C168.316 14.466 168.676 13.728 169.396 13.248C170.128 12.756 171.118 12.51 172.366 12.51H173.86V11.916C173.86 11.46 173.74 11.1 173.5 10.836C173.26 10.56 172.858 10.422 172.294 10.422C171.766 10.422 171.346 10.536 171.034 10.764C170.722 10.992 170.464 11.25 170.26 11.538L168.676 10.134C169.06 9.57 169.54 9.132 170.116 8.82C170.704 8.496 171.496 8.334 172.492 8.334C173.836 8.334 174.844 8.628 175.516 9.216C176.188 9.804 176.524 10.662 176.524 11.79V15.93H177.406V18H175.93ZM172.24 16.362C172.684 16.362 173.062 16.266 173.374 16.074C173.698 15.882 173.86 15.57 173.86 15.138V14.022H172.564C171.52 14.022 170.998 14.376 170.998 15.084V15.354C170.998 15.702 171.106 15.96 171.322 16.128C171.538 16.284 171.844 16.362 172.24 16.362ZM47.679 40L49.919 28.832H53.903C54.3937 28.832 54.815 28.9013 55.167 29.04C55.519 29.168 55.807 29.3547 56.031 29.6C56.255 29.8347 56.415 30.1173 56.511 30.448C56.6177 30.768 56.671 31.12 56.671 31.504C56.671 32.0267 56.5803 32.5173 56.399 32.976C56.2283 33.424 55.983 33.8187 55.663 34.16C55.343 34.4907 54.9483 34.752 54.479 34.944C54.0203 35.136 53.503 35.232 52.927 35.232H49.935L48.975 40H47.679ZM50.175 34.08H53.119C53.6523 34.08 54.095 33.9467 54.447 33.68C54.799 33.4027 55.0283 32.9973 55.135 32.464C55.2097 32.1013 55.2577 31.8453 55.279 31.696C55.311 31.5467 55.327 31.408 55.327 31.28C55.327 30.8853 55.215 30.5707 54.991 30.336C54.767 30.1013 54.3723 29.984 53.807 29.984H50.975L50.175 34.08ZM56.641 40L58.305 31.744H59.537L59.185 33.392H59.265C59.3717 33.1893 59.4997 32.992 59.649 32.8C59.7983 32.5973 59.969 32.4213 60.161 32.272C60.3637 32.112 60.593 31.984 60.849 31.888C61.105 31.792 61.4037 31.744 61.745 31.744H62.257L62.017 33.008H61.441C61.057 33.008 60.7157 33.0667 60.417 33.184C60.129 33.2907 59.8783 33.44 59.665 33.632C59.4517 33.824 59.2757 34.048 59.137 34.304C59.009 34.5493 58.9183 34.8107 58.865 35.088L57.873 40H56.641ZM65.335 40.192C64.8977 40.192 64.4977 40.1227 64.135 39.984C63.7723 39.8347 63.4577 39.6213 63.191 39.344C62.935 39.056 62.7323 38.704 62.583 38.288C62.4337 37.8613 62.359 37.3653 62.359 36.8C62.359 36.1067 62.4603 35.4453 62.663 34.816C62.8763 34.176 63.1697 33.616 63.543 33.136C63.9163 32.656 64.3643 32.272 64.887 31.984C65.4097 31.696 65.9857 31.552 66.615 31.552C67.0417 31.552 67.4363 31.6267 67.799 31.776C68.1723 31.9147 68.487 32.128 68.743 32.416C69.0097 32.6933 69.2177 33.0453 69.367 33.472C69.5163 33.8987 69.591 34.3893 69.591 34.944C69.591 35.6373 69.4843 36.304 69.271 36.944C69.0683 37.5733 68.7803 38.128 68.407 38.608C68.0337 39.088 67.5857 39.472 67.063 39.76C66.5403 40.048 65.9643 40.192 65.335 40.192ZM65.495 39.088C66.0923 39.088 66.6257 38.8693 67.095 38.432C67.5643 37.9947 67.8843 37.3547 68.055 36.512L68.295 35.312C68.3483 35.0453 68.375 34.8053 68.375 34.592C68.375 34.016 68.2097 33.552 67.879 33.2C67.559 32.8373 67.0843 32.656 66.455 32.656C65.8577 32.656 65.3243 32.8747 64.855 33.312C64.3857 33.7493 64.0657 34.3893 63.895 35.232L63.655 36.432C63.6017 36.6987 63.575 36.9387 63.575 37.152C63.575 37.728 63.735 38.1973 64.055 38.56C64.3857 38.912 64.8657 39.088 65.495 39.088ZM77.1239 40C76.7612 40 76.4892 39.9093 76.3079 39.728C76.1372 39.5467 76.0519 39.3067 76.0519 39.008C76.0519 38.88 76.0679 38.736 76.0999 38.576L76.1799 38.208H76.1319C75.7905 38.9013 75.4119 39.408 74.9959 39.728C74.5799 40.0373 74.0679 40.192 73.4599 40.192C72.7025 40.192 72.0945 39.9147 71.6359 39.36C71.1772 38.7947 70.9479 38.0213 70.9479 37.04C70.9479 36.432 71.0279 35.808 71.1879 35.168C71.3585 34.5173 71.6092 33.9253 71.9399 33.392C72.2705 32.848 72.6865 32.4053 73.1879 32.064C73.6999 31.7227 74.2972 31.552 74.9799 31.552C75.2252 31.552 75.4652 31.584 75.6999 31.648C75.9345 31.712 76.1479 31.808 76.3399 31.936C76.5319 32.064 76.6972 32.224 76.8359 32.416C76.9745 32.608 77.0759 32.832 77.1399 33.088H77.2039L78.1959 28.16H79.4279L77.2679 38.912H78.4359L78.2279 40H77.1239ZM73.7959 39.072C74.1585 39.072 74.4732 38.9973 74.7399 38.848C75.0172 38.6987 75.2785 38.5013 75.5239 38.256C75.7905 37.9893 76.0092 37.696 76.1799 37.376C76.3505 37.056 76.4785 36.688 76.5639 36.272L76.8999 34.592C76.9532 34.336 76.9585 34.096 76.9159 33.872C76.8732 33.6373 76.7772 33.4347 76.6279 33.264C76.4785 33.0827 76.2759 32.9387 76.0199 32.832C75.7639 32.7253 75.4545 32.672 75.0919 32.672C74.4199 32.672 73.8652 32.8907 73.4279 33.328C72.9905 33.7653 72.6919 34.384 72.5319 35.184L72.2919 36.384C72.2385 36.6827 72.2119 36.9547 72.2119 37.2C72.2119 37.744 72.3345 38.192 72.5799 38.544C72.8359 38.896 73.2412 39.072 73.7959 39.072ZM82.596 31.744L81.572 36.832C81.54 36.992 81.5187 37.152 81.508 37.312C81.4973 37.4613 81.492 37.584 81.492 37.68C81.492 38.1387 81.5827 38.4853 81.764 38.72C81.956 38.9547 82.276 39.072 82.724 39.072C83.2893 39.072 83.7853 38.8533 84.212 38.416C84.5107 38.1067 84.7507 37.7653 84.932 37.392C85.1133 37.008 85.236 36.6613 85.3 36.352L86.228 31.744H87.46L86.02 38.912H87.188L86.98 40H85.86C85.508 40 85.2413 39.9093 85.06 39.728C84.8893 39.536 84.804 39.2907 84.804 38.992C84.804 38.8853 84.8253 38.7307 84.868 38.528L84.9 38.368H84.82C84.532 38.9973 84.1907 39.4613 83.796 39.76C83.4013 40.048 82.916 40.192 82.34 40.192C81.636 40.192 81.108 39.9893 80.756 39.584C80.404 39.1787 80.228 38.6187 80.228 37.904C80.228 37.7547 80.2333 37.5893 80.244 37.408C80.2653 37.2267 80.2973 37.0347 80.34 36.832L81.364 31.744H82.596ZM91.7404 40.192C91.271 40.192 90.8497 40.112 90.4764 39.952C90.1137 39.792 89.8044 39.5627 89.5484 39.264C89.2924 38.9653 89.095 38.6133 88.9564 38.208C88.8177 37.792 88.7484 37.328 88.7484 36.816C88.7484 36.1013 88.839 35.424 89.0204 34.784C89.2124 34.144 89.4844 33.584 89.8364 33.104C90.1884 32.624 90.6097 32.2453 91.1004 31.968C91.6017 31.6907 92.167 31.552 92.7964 31.552C93.5324 31.552 94.1297 31.7333 94.5884 32.096C95.0577 32.4587 95.3724 32.9227 95.5324 33.488L94.5084 33.952C94.231 33.088 93.6497 32.656 92.7644 32.656C92.103 32.656 91.5644 32.864 91.1484 33.28C90.743 33.696 90.4657 34.272 90.3164 35.008L90.0444 36.352C90.023 36.4693 90.007 36.5973 89.9964 36.736C89.9857 36.864 89.9804 36.976 89.9804 37.072C89.9804 37.6693 90.135 38.1547 90.4444 38.528C90.7537 38.9013 91.2284 39.088 91.8684 39.088C92.2737 39.088 92.6417 38.976 92.9724 38.752C93.3137 38.5173 93.6497 38.0907 93.9804 37.472L94.9564 37.952C94.615 38.6667 94.1724 39.2213 93.6284 39.616C93.0844 40 92.455 40.192 91.7404 40.192ZM97.7129 40C97.3395 40 97.0569 39.9093 96.8649 39.728C96.6835 39.536 96.5929 39.2907 96.5929 38.992C96.5929 38.896 96.6089 38.768 96.6409 38.608L97.8089 32.832H96.5929L96.8009 31.744H97.4249C97.7235 31.744 97.9209 31.6853 98.0169 31.568C98.1235 31.4507 98.2035 31.248 98.2569 30.96L98.5609 29.456H99.6969L99.2489 31.744H100.993L100.785 32.832H99.0409L97.8089 38.912H99.4249L99.2169 40H97.7129ZM107.723 40.192C107.286 40.192 106.886 40.1227 106.523 39.984C106.16 39.8347 105.846 39.6213 105.579 39.344C105.323 39.056 105.12 38.704 104.971 38.288C104.822 37.8613 104.747 37.3653 104.747 36.8C104.747 36.1067 104.848 35.4453 105.051 34.816C105.264 34.176 105.558 33.616 105.931 33.136C106.304 32.656 106.752 32.272 107.275 31.984C107.798 31.696 108.374 31.552 109.003 31.552C109.43 31.552 109.824 31.6267 110.187 31.776C110.56 31.9147 110.875 32.128 111.131 32.416C111.398 32.6933 111.606 33.0453 111.755 33.472C111.904 33.8987 111.979 34.3893 111.979 34.944C111.979 35.6373 111.872 36.304 111.659 36.944C111.456 37.5733 111.168 38.128 110.795 38.608C110.422 39.088 109.974 39.472 109.451 39.76C108.928 40.048 108.352 40.192 107.723 40.192ZM107.883 39.088C108.48 39.088 109.014 38.8693 109.483 38.432C109.952 37.9947 110.272 37.3547 110.443 36.512L110.683 35.312C110.736 35.0453 110.763 34.8053 110.763 34.592C110.763 34.016 110.598 33.552 110.267 33.2C109.947 32.8373 109.472 32.656 108.843 32.656C108.246 32.656 107.712 32.8747 107.243 33.312C106.774 33.7493 106.454 34.3893 106.283 35.232L106.043 36.432C105.99 36.6987 105.963 36.9387 105.963 37.152C105.963 37.728 106.123 38.1973 106.443 38.56C106.774 38.912 107.254 39.088 107.883 39.088ZM113.377 31.744H114.561L114.705 35.76L114.801 38.816H114.881L116.145 36.112L118.193 31.744H119.393L119.745 35.904L119.937 38.752H120.017L121.233 35.968L123.105 31.744H124.305L120.545 40H119.057L118.657 35.536L118.545 33.424H118.465L117.521 35.536L115.393 40H113.825L113.377 31.744ZM124.325 40L125.989 31.744H127.221L126.885 33.376H126.965C127.253 32.7573 127.594 32.2987 127.989 32C128.394 31.7013 128.895 31.552 129.493 31.552C130.207 31.552 130.741 31.7547 131.093 32.16C131.445 32.5653 131.621 33.1253 131.621 33.84C131.621 33.9893 131.61 34.1547 131.589 34.336C131.578 34.5173 131.551 34.7093 131.509 34.912L130.709 38.912H131.877L131.669 40H130.501C130.191 40 129.941 39.9253 129.749 39.776C129.567 39.6267 129.477 39.392 129.477 39.072C129.477 39.0187 129.477 38.9707 129.477 38.928C129.477 38.8853 129.487 38.8213 129.509 38.736L130.277 34.912C130.309 34.752 130.33 34.5973 130.341 34.448C130.351 34.288 130.357 34.16 130.357 34.064C130.357 33.5947 130.255 33.248 130.053 33.024C129.861 32.7893 129.541 32.672 129.093 32.672C128.517 32.672 128.01 32.8907 127.573 33.328C127.295 33.6053 127.061 33.936 126.869 34.32C126.677 34.704 126.549 35.0613 126.485 35.392L125.557 40H124.325ZM136.46 40.192C135.468 40.192 134.7 39.8987 134.156 39.312C133.612 38.7253 133.34 37.8667 133.34 36.736C133.34 36.0533 133.441 35.4027 133.644 34.784C133.857 34.1547 134.15 33.6 134.524 33.12C134.908 32.64 135.361 32.2613 135.884 31.984C136.417 31.696 137.009 31.552 137.66 31.552C138.012 31.552 138.348 31.6 138.668 31.696C138.988 31.7813 139.27 31.9147 139.516 32.096C139.761 32.2773 139.953 32.5067 140.092 32.784C140.241 33.0613 140.316 33.3867 140.316 33.76C140.316 34.6667 139.846 35.3387 138.908 35.776C137.98 36.2133 136.55 36.4427 134.62 36.464C134.598 36.5813 134.582 36.704 134.572 36.832C134.572 36.9493 134.572 37.0507 134.572 37.136C134.572 37.7227 134.737 38.1973 135.068 38.56C135.409 38.912 135.9 39.088 136.54 39.088C137.062 39.088 137.532 38.9707 137.948 38.736C138.374 38.4907 138.748 38.1707 139.068 37.776L139.868 38.496C139.356 39.1253 138.806 39.568 138.22 39.824C137.644 40.0693 137.057 40.192 136.46 40.192ZM137.532 32.608C137.212 32.608 136.902 32.6667 136.604 32.784C136.316 32.9013 136.054 33.0667 135.82 33.28C135.596 33.4827 135.398 33.7387 135.228 34.048C135.068 34.3467 134.95 34.6773 134.876 35.04L134.78 35.504C135.665 35.472 136.385 35.4187 136.94 35.344C137.494 35.2587 137.926 35.1467 138.236 35.008C138.556 34.8587 138.769 34.6827 138.876 34.48C138.993 34.2773 139.052 34.032 139.052 33.744C139.052 33.52 139.009 33.3387 138.924 33.2C138.838 33.0507 138.726 32.9333 138.588 32.848C138.449 32.7627 138.284 32.704 138.092 32.672C137.91 32.6293 137.724 32.608 137.532 32.608ZM141.064 40L142.728 31.744H143.96L143.608 33.392H143.688C143.794 33.1893 143.922 32.992 144.072 32.8C144.221 32.5973 144.392 32.4213 144.584 32.272C144.786 32.112 145.016 31.984 145.272 31.888C145.528 31.792 145.826 31.744 146.168 31.744H146.68L146.44 33.008H145.864C145.48 33.008 145.138 33.0667 144.84 33.184C144.552 33.2907 144.301 33.44 144.088 33.632C143.874 33.824 143.698 34.048 143.56 34.304C143.432 34.5493 143.341 34.8107 143.288 35.088L142.296 40H141.064ZM146.661 38.128C146.917 38.128 147.114 38.1813 147.253 38.288C147.402 38.3947 147.477 38.5547 147.477 38.768C147.477 38.8427 147.471 38.9227 147.461 39.008C147.45 39.0933 147.434 39.1787 147.413 39.264C147.37 39.4667 147.301 39.696 147.205 39.952C147.109 40.1973 146.981 40.448 146.821 40.704C146.671 40.96 146.49 41.2107 146.277 41.456C146.063 41.712 145.823 41.936 145.557 42.128H144.517C144.911 41.7867 145.226 41.4507 145.461 41.12C145.706 40.8 145.914 40.4587 146.085 40.096C145.733 40.0107 145.557 39.8133 145.557 39.504C145.557 39.4293 145.562 39.3493 145.573 39.264C145.583 39.1787 145.599 39.0933 145.621 39.008C145.663 38.7947 145.754 38.5973 145.893 38.416C146.042 38.224 146.298 38.128 146.661 38.128ZM48.4343 62L48.0183 58.704H43.6823L41.9543 62H40.5783L46.5463 50.832H48.2583L49.7623 62H48.4343ZM47.2023 52.064H47.1223L44.2743 57.552H47.8903L47.2023 52.064ZM52.9791 53.744H54.2111L53.8431 55.536H53.8911C54.2324 54.8427 54.6111 54.3413 55.0271 54.032C55.4431 53.712 55.9551 53.552 56.5631 53.552C57.3204 53.552 57.9284 53.8347 58.3871 54.4C58.8457 54.9547 59.0751 55.7227 59.0751 56.704C59.0751 57.312 58.9897 57.9413 58.8191 58.592C58.6591 59.232 58.4137 59.824 58.0831 60.368C57.7524 60.9013 57.3311 61.3387 56.8191 61.68C56.3177 62.0213 55.7257 62.192 55.0431 62.192C54.7977 62.192 54.5577 62.16 54.3231 62.096C54.0884 62.032 53.8751 61.936 53.6831 61.808C53.4911 61.68 53.3257 61.52 53.1871 61.328C53.0484 61.136 52.9471 60.912 52.8831 60.656H52.8191L51.9071 65.2H50.6751L52.9791 53.744ZM54.9311 61.072C55.6031 61.072 56.1577 60.8533 56.5951 60.416C57.0324 59.9787 57.3311 59.36 57.4911 58.56L57.7311 57.36C57.7844 57.0613 57.8111 56.7893 57.8111 56.544C57.8111 56 57.6831 55.552 57.4271 55.2C57.1817 54.848 56.7817 54.672 56.2271 54.672C55.8644 54.672 55.5444 54.7467 55.2671 54.896C55.0004 55.0453 54.7444 55.2427 54.4991 55.488C54.2324 55.7547 54.0137 56.048 53.8431 56.368C53.6724 56.688 53.5444 57.056 53.4591 57.472L53.1231 59.152C53.0697 59.408 53.0644 59.6533 53.1071 59.888C53.1497 60.1227 53.2457 60.3307 53.3951 60.512C53.5444 60.6827 53.7417 60.8213 53.9871 60.928C54.2431 61.024 54.5577 61.072 54.9311 61.072ZM61.8953 53.744H63.1273L62.7593 55.536H62.8073C63.1486 54.8427 63.5273 54.3413 63.9433 54.032C64.3593 53.712 64.8713 53.552 65.4793 53.552C66.2366 53.552 66.8446 53.8347 67.3033 54.4C67.762 54.9547 67.9913 55.7227 67.9913 56.704C67.9913 57.312 67.906 57.9413 67.7353 58.592C67.5753 59.232 67.33 59.824 66.9993 60.368C66.6686 60.9013 66.2473 61.3387 65.7353 61.68C65.234 62.0213 64.642 62.192 63.9593 62.192C63.714 62.192 63.474 62.16 63.2393 62.096C63.0046 62.032 62.7913 61.936 62.5993 61.808C62.4073 61.68 62.242 61.52 62.1033 61.328C61.9646 61.136 61.8633 60.912 61.7993 60.656H61.7353L60.8233 65.2H59.5913L61.8953 53.744ZM63.8473 61.072C64.5193 61.072 65.074 60.8533 65.5113 60.416C65.9486 59.9787 66.2473 59.36 66.4073 58.56L66.6473 57.36C66.7006 57.0613 66.7273 56.7893 66.7273 56.544C66.7273 56 66.5993 55.552 66.3433 55.2C66.098 54.848 65.698 54.672 65.1433 54.672C64.7806 54.672 64.4606 54.7467 64.1833 54.896C63.9166 55.0453 63.6606 55.2427 63.4153 55.488C63.1486 55.7547 62.93 56.048 62.7593 56.368C62.5886 56.688 62.4606 57.056 62.3753 57.472L62.0393 59.152C61.986 59.408 61.9806 59.6533 62.0233 59.888C62.066 60.1227 62.162 60.3307 62.3113 60.512C62.4606 60.6827 62.658 60.8213 62.9033 60.928C63.1593 61.024 63.474 61.072 63.8473 61.072ZM71.5316 50.16H72.7636L71.7076 55.376H71.7876C72.0756 54.7573 72.4169 54.2987 72.8116 54C73.2169 53.7013 73.7182 53.552 74.3156 53.552C75.0302 53.552 75.5636 53.7547 75.9156 54.16C76.2676 54.5653 76.4436 55.1253 76.4436 55.84C76.4436 55.9893 76.4329 56.1547 76.4116 56.336C76.4009 56.5173 76.3742 56.7093 76.3316 56.912L75.5316 60.912H76.6996L76.4916 62H75.3236C75.0142 62 74.7636 61.9253 74.5716 61.776C74.3902 61.6267 74.2996 61.392 74.2996 61.072C74.2996 61.0187 74.2996 60.9707 74.2996 60.928C74.2996 60.8853 74.3102 60.8213 74.3316 60.736L75.0996 56.912C75.1316 56.752 75.1529 56.5973 75.1636 56.448C75.1742 56.288 75.1796 56.16 75.1796 56.064C75.1796 55.5947 75.0782 55.248 74.8756 55.024C74.6836 54.7893 74.3636 54.672 73.9156 54.672C73.3396 54.672 72.8329 54.8907 72.3956 55.328C72.1182 55.6053 71.8836 55.936 71.6916 56.32C71.4996 56.704 71.3716 57.0613 71.3076 57.392L70.3796 62H69.1476L71.5316 50.16ZM80.7544 53.744L79.7304 58.832C79.6984 58.992 79.6771 59.152 79.6664 59.312C79.6558 59.4613 79.6504 59.584 79.6504 59.68C79.6504 60.1387 79.7411 60.4853 79.9224 60.72C80.1144 60.9547 80.4344 61.072 80.8824 61.072C81.4478 61.072 81.9438 60.8533 82.3704 60.416C82.6691 60.1067 82.9091 59.7653 83.0904 59.392C83.2718 59.008 83.3944 58.6613 83.4584 58.352L84.3864 53.744H85.6184L84.1784 60.912H85.3464L85.1384 62H84.0184C83.6664 62 83.3998 61.9093 83.2184 61.728C83.0478 61.536 82.9624 61.2907 82.9624 60.992C82.9624 60.8853 82.9838 60.7307 83.0264 60.528L83.0584 60.368H82.9784C82.6904 60.9973 82.3491 61.4613 81.9544 61.76C81.5598 62.048 81.0744 62.192 80.4984 62.192C79.7944 62.192 79.2664 61.9893 78.9144 61.584C78.5624 61.1787 78.3864 60.6187 78.3864 59.904C78.3864 59.7547 78.3918 59.5893 78.4024 59.408C78.4238 59.2267 78.4558 59.0347 78.4984 58.832L79.5224 53.744H80.7544ZM93.1148 62C92.7522 62 92.4802 61.9093 92.2988 61.728C92.1282 61.5467 92.0428 61.3067 92.0428 61.008C92.0428 60.88 92.0588 60.736 92.0908 60.576L92.1708 60.208H92.1228C91.7815 60.9013 91.4028 61.408 90.9868 61.728C90.5708 62.0373 90.0588 62.192 89.4508 62.192C88.6935 62.192 88.0855 61.9147 87.6268 61.36C87.1682 60.7947 86.9388 60.0213 86.9388 59.04C86.9388 58.432 87.0188 57.808 87.1788 57.168C87.3495 56.5173 87.6002 55.9253 87.9308 55.392C88.2615 54.848 88.6775 54.4053 89.1788 54.064C89.6908 53.7227 90.2882 53.552 90.9708 53.552C91.2162 53.552 91.4562 53.584 91.6908 53.648C91.9255 53.712 92.1388 53.808 92.3308 53.936C92.5228 54.064 92.6882 54.224 92.8268 54.416C92.9655 54.608 93.0668 54.832 93.1308 55.088H93.1948L94.1868 50.16H95.4188L93.2588 60.912H94.4268L94.2188 62H93.1148ZM89.7868 61.072C90.1495 61.072 90.4642 60.9973 90.7308 60.848C91.0082 60.6987 91.2695 60.5013 91.5148 60.256C91.7815 59.9893 92.0002 59.696 92.1708 59.376C92.3415 59.056 92.4695 58.688 92.5548 58.272L92.8908 56.592C92.9442 56.336 92.9495 56.096 92.9068 55.872C92.8642 55.6373 92.7682 55.4347 92.6188 55.264C92.4695 55.0827 92.2668 54.9387 92.0108 54.832C91.7548 54.7253 91.4455 54.672 91.0828 54.672C90.4108 54.672 89.8562 54.8907 89.4188 55.328C88.9815 55.7653 88.6828 56.384 88.5228 57.184L88.2828 58.384C88.2295 58.6827 88.2028 58.9547 88.2028 59.2C88.2028 59.744 88.3255 60.192 88.5708 60.544C88.8268 60.896 89.2322 61.072 89.7868 61.072ZM102.528 62.192C102.059 62.192 101.638 62.112 101.264 61.952C100.902 61.792 100.592 61.5627 100.336 61.264C100.08 60.9653 99.8829 60.6133 99.7442 60.208C99.6055 59.792 99.5362 59.328 99.5362 58.816C99.5362 58.1013 99.6269 57.424 99.8082 56.784C100 56.144 100.272 55.584 100.624 55.104C100.976 54.624 101.398 54.2453 101.888 53.968C102.39 53.6907 102.955 53.552 103.584 53.552C104.32 53.552 104.918 53.7333 105.376 54.096C105.846 54.4587 106.16 54.9227 106.32 55.488L105.296 55.952C105.019 55.088 104.438 54.656 103.552 54.656C102.891 54.656 102.352 54.864 101.936 55.28C101.531 55.696 101.254 56.272 101.104 57.008L100.832 58.352C100.811 58.4693 100.795 58.5973 100.784 58.736C100.774 58.864 100.768 58.976 100.768 59.072C100.768 59.6693 100.923 60.1547 101.232 60.528C101.542 60.9013 102.016 61.088 102.656 61.088C103.062 61.088 103.43 60.976 103.76 60.752C104.102 60.5173 104.438 60.0907 104.768 59.472L105.744 59.952C105.403 60.6667 104.96 61.2213 104.416 61.616C103.872 62 103.243 62.192 102.528 62.192ZM109.975 62.192C109.538 62.192 109.138 62.1227 108.775 61.984C108.413 61.8347 108.098 61.6213 107.831 61.344C107.575 61.056 107.373 60.704 107.223 60.288C107.074 59.8613 106.999 59.3653 106.999 58.8C106.999 58.1067 107.101 57.4453 107.303 56.816C107.517 56.176 107.81 55.616 108.183 55.136C108.557 54.656 109.005 54.272 109.527 53.984C110.05 53.696 110.626 53.552 111.255 53.552C111.682 53.552 112.077 53.6267 112.439 53.776C112.813 53.9147 113.127 54.128 113.383 54.416C113.65 54.6933 113.858 55.0453 114.007 55.472C114.157 55.8987 114.231 56.3893 114.231 56.944C114.231 57.6373 114.125 58.304 113.911 58.944C113.709 59.5733 113.421 60.128 113.047 60.608C112.674 61.088 112.226 61.472 111.703 61.76C111.181 62.048 110.605 62.192 109.975 62.192ZM110.135 61.088C110.733 61.088 111.266 60.8693 111.735 60.432C112.205 59.9947 112.525 59.3547 112.695 58.512L112.935 57.312C112.989 57.0453 113.015 56.8053 113.015 56.592C113.015 56.016 112.85 55.552 112.519 55.2C112.199 54.8373 111.725 54.656 111.095 54.656C110.498 54.656 109.965 54.8747 109.495 55.312C109.026 55.7493 108.706 56.3893 108.535 57.232L108.295 58.432C108.242 58.6987 108.215 58.9387 108.215 59.152C108.215 59.728 108.375 60.1973 108.695 60.56C109.026 60.912 109.506 61.088 110.135 61.088ZM115.348 62L117.012 53.744H118.244L117.908 55.376H117.988C118.276 54.7573 118.612 54.2987 118.996 54C119.391 53.7013 119.892 53.552 120.5 53.552C121.076 53.552 121.524 53.712 121.844 54.032C122.164 54.352 122.356 54.8 122.42 55.376H122.516C122.794 54.7573 123.14 54.2987 123.556 54C123.972 53.7013 124.484 53.552 125.092 53.552C125.786 53.552 126.303 53.7493 126.644 54.144C126.996 54.5387 127.172 55.0987 127.172 55.824C127.172 56.1653 127.135 56.5227 127.06 56.896L126.26 60.912H127.428L127.22 62H126.068C125.748 62 125.492 61.9253 125.3 61.776C125.108 61.6267 125.012 61.3973 125.012 61.088C125.012 61.0027 125.028 60.88 125.06 60.72L125.828 56.896C125.892 56.576 125.924 56.2827 125.924 56.016C125.924 55.568 125.823 55.232 125.62 55.008C125.428 54.784 125.108 54.672 124.66 54.672C124.159 54.672 123.695 54.8907 123.268 55.328C123.002 55.5947 122.778 55.92 122.596 56.304C122.426 56.688 122.308 57.0507 122.244 57.392L121.316 62H120.084L121.108 56.912C121.172 56.592 121.204 56.2827 121.204 55.984C121.204 55.1093 120.82 54.672 120.052 54.672C119.775 54.672 119.514 54.7307 119.268 54.848C119.023 54.9653 118.81 55.12 118.628 55.312C118.33 55.6107 118.084 55.952 117.892 56.336C117.7 56.72 117.572 57.072 117.508 57.392L116.58 62H115.348ZM130.335 53.744H131.567L131.199 55.536H131.247C131.588 54.8427 131.967 54.3413 132.383 54.032C132.799 53.712 133.311 53.552 133.919 53.552C134.676 53.552 135.284 53.8347 135.743 54.4C136.201 54.9547 136.431 55.7227 136.431 56.704C136.431 57.312 136.345 57.9413 136.175 58.592C136.015 59.232 135.769 59.824 135.439 60.368C135.108 60.9013 134.687 61.3387 134.175 61.68C133.673 62.0213 133.081 62.192 132.399 62.192C132.153 62.192 131.913 62.16 131.679 62.096C131.444 62.032 131.231 61.936 131.039 61.808C130.847 61.68 130.681 61.52 130.543 61.328C130.404 61.136 130.303 60.912 130.239 60.656H130.175L129.263 65.2H128.031L130.335 53.744ZM132.287 61.072C132.959 61.072 133.513 60.8533 133.951 60.416C134.388 59.9787 134.687 59.36 134.847 58.56L135.087 57.36C135.14 57.0613 135.167 56.7893 135.167 56.544C135.167 56 135.039 55.552 134.783 55.2C134.537 54.848 134.137 54.672 133.583 54.672C133.22 54.672 132.9 54.7467 132.623 54.896C132.356 55.0453 132.1 55.2427 131.855 55.488C131.588 55.7547 131.369 56.048 131.199 56.368C131.028 56.688 130.9 57.056 130.815 57.472L130.479 59.152C130.425 59.408 130.42 59.6533 130.463 59.888C130.505 60.1227 130.601 60.3307 130.751 60.512C130.9 60.6827 131.097 60.8213 131.343 60.928C131.599 61.024 131.913 61.072 132.287 61.072ZM144.003 62C143.64 62 143.368 61.9093 143.187 61.728C143.016 61.5467 142.931 61.3067 142.931 61.008C142.931 60.88 142.947 60.736 142.979 60.576L143.059 60.208H143.011C142.67 60.9013 142.291 61.408 141.875 61.728C141.459 62.0373 140.947 62.192 140.339 62.192C139.582 62.192 138.974 61.9147 138.515 61.36C138.056 60.7947 137.827 60.0213 137.827 59.04C137.827 58.432 137.907 57.808 138.067 57.168C138.238 56.5173 138.488 55.9253 138.819 55.392C139.15 54.848 139.566 54.4053 140.067 54.064C140.579 53.7227 141.176 53.552 141.859 53.552C142.104 53.552 142.344 53.584 142.579 53.648C142.814 53.712 143.027 53.808 143.219 53.936C143.411 54.064 143.576 54.224 143.715 54.416C143.854 54.608 143.955 54.832 144.019 55.088H144.083L144.355 53.744H145.587L144.147 60.912H145.315L145.107 62H144.003ZM140.659 61.072C141.022 61.072 141.342 61.0027 141.619 60.864C141.896 60.7147 142.158 60.512 142.403 60.256C142.68 59.9787 142.899 59.68 143.059 59.36C143.23 59.04 143.358 58.6773 143.443 58.272L143.779 56.592C143.832 56.336 143.838 56.096 143.795 55.872C143.752 55.6373 143.656 55.4347 143.507 55.264C143.358 55.0827 143.155 54.9387 142.899 54.832C142.643 54.7253 142.334 54.672 141.971 54.672C141.299 54.672 140.744 54.8907 140.307 55.328C139.87 55.7653 139.571 56.384 139.411 57.184L139.171 58.384C139.118 58.6827 139.091 58.9547 139.091 59.2C139.091 59.7653 139.224 60.2187 139.491 60.56C139.758 60.9013 140.147 61.072 140.659 61.072ZM146.675 62L148.339 53.744H149.571L149.235 55.376H149.315C149.603 54.7573 149.944 54.2987 150.339 54C150.744 53.7013 151.246 53.552 151.843 53.552C152.558 53.552 153.091 53.7547 153.443 54.16C153.795 54.5653 153.971 55.1253 153.971 55.84C153.971 55.9893 153.96 56.1547 153.939 56.336C153.928 56.5173 153.902 56.7093 153.859 56.912L153.059 60.912H154.227L154.019 62H152.851C152.542 62 152.291 61.9253 152.099 61.776C151.918 61.6267 151.827 61.392 151.827 61.072C151.827 61.0187 151.827 60.9707 151.827 60.928C151.827 60.8853 151.838 60.8213 151.859 60.736L152.627 56.912C152.659 56.752 152.68 56.5973 152.691 56.448C152.702 56.288 152.707 56.16 152.707 56.064C152.707 55.5947 152.606 55.248 152.403 55.024C152.211 54.7893 151.891 54.672 151.443 54.672C150.867 54.672 150.36 54.8907 149.923 55.328C149.646 55.6053 149.411 55.936 149.219 56.32C149.027 56.704 148.899 57.0613 148.835 57.392L147.907 62H146.675ZM161.789 53.744H163.101L157.517 63.872C157.25 64.352 156.989 64.6933 156.733 64.896C156.488 65.0987 156.157 65.2 155.741 65.2H154.461L154.669 64.144H156.157L157.181 62.256L155.869 53.744H157.069L157.677 57.824L158.013 60.832H158.093L159.581 57.824L161.789 53.744Z" fill="white"/>
</g>
<defs>
<clipPath id="clip0_828_98">
<rect width="200" height="70" fill="white"/>
</clipPath>
</defs>
</svg>
