<svg width="170" height="170" viewBox="0 0 170 170" fill="none" xmlns="http://www.w3.org/2000/svg">
<circle cx="85" cy="85" r="85" fill="white"/>
<path d="M54.4182 111.84C50.1249 111.84 46.4849 111.117 43.4982 109.67C40.5115 108.177 37.9682 106.263 35.8682 103.93L42.8682 96.86C46.1815 100.593 50.2649 102.46 55.1182 102.46C57.7315 102.46 59.6682 101.923 60.9282 100.85C62.1882 99.7767 62.8182 98.3533 62.8182 96.58C62.8182 95.2267 62.4449 94.1067 61.6982 93.22C60.9515 92.2867 59.4349 91.6567 57.1482 91.33L52.3182 90.7C47.1382 90.0467 43.3349 88.4833 40.9082 86.01C38.5282 83.5367 37.3382 80.2467 37.3382 76.14C37.3382 73.9467 37.7582 71.94 38.5982 70.12C39.4382 68.3 40.6282 66.7367 42.1682 65.43C43.7549 64.1233 45.6682 63.12 47.9082 62.42C50.1949 61.6733 52.7849 61.3 55.6782 61.3C59.3649 61.3 62.6082 61.8833 65.4082 63.05C68.2082 64.2167 70.6115 65.92 72.6182 68.16L65.5482 75.3C64.3815 73.9467 62.9582 72.85 61.2782 72.01C59.6449 71.1233 57.5682 70.68 55.0482 70.68C52.6682 70.68 50.8949 71.1 49.7282 71.94C48.5615 72.78 47.9782 73.9467 47.9782 75.44C47.9782 77.12 48.4215 78.3333 49.3082 79.08C50.2415 79.8267 51.7349 80.3633 53.7882 80.69L58.6182 81.46C63.6582 82.2533 67.3915 83.8167 69.8182 86.15C72.2449 88.4367 73.4582 91.7033 73.4582 95.95C73.4582 98.2833 73.0382 100.43 72.1982 102.39C71.3582 104.35 70.1215 106.03 68.4882 107.43C66.9015 108.83 64.9182 109.927 62.5382 110.72C60.1582 111.467 57.4515 111.84 54.4182 111.84ZM108.693 111V91.89L91.9628 62.14H103.863L114.363 81.6H114.503L124.583 62.14H136.133L119.403 91.82V111H108.693Z" fill="#00BDF8"/>
</svg>
