<svg width="200" height="70" viewBox="0 0 200 70" fill="none" xmlns="http://www.w3.org/2000/svg">
<g clip-path="url(#clip0_828_98)">
<path d="M44.7433 18L43.8433 15.012H39.6493L38.7493 18H35.9773L40.1173 5.436H43.5013L47.5873 18H44.7433ZM41.7733 7.92H41.6833L40.2973 12.69H43.1773L41.7733 7.92ZM48.9116 18V8.55H51.5756V10.152H51.6836C51.8516 9.66 52.1456 9.234 52.5656 8.874C52.9856 8.514 53.5676 8.334 54.3116 8.334C55.2836 8.334 56.0156 8.658 56.5076 9.306C57.0116 9.954 57.2636 10.878 57.2636 12.078V18H54.5996V12.294C54.5996 11.682 54.5036 11.232 54.3116 10.944C54.1196 10.644 53.7776 10.494 53.2856 10.494C53.0696 10.494 52.8596 10.524 52.6556 10.584C52.4516 10.632 52.2656 10.716 52.0976 10.836C51.9416 10.956 51.8156 11.106 51.7196 11.286C51.6236 11.454 51.5756 11.652 51.5756 11.88V18H48.9116ZM62.6762 18C61.7522 18 61.0502 17.766 60.5702 17.298C60.1022 16.83 59.8682 16.146 59.8682 15.246V10.62H58.5362V8.55H59.2022C59.5622 8.55 59.8082 8.466 59.9402 8.298C60.0722 8.118 60.1382 7.866 60.1382 7.542V5.994H62.5322V8.55H64.4042V10.62H62.5322V15.93H64.2602V18H62.6762ZM69.7485 18.216C69.0525 18.216 68.4285 18.102 67.8765 17.874C67.3365 17.646 66.8745 17.316 66.4905 16.884C66.1185 16.452 65.8305 15.93 65.6265 15.318C65.4225 14.706 65.3205 14.022 65.3205 13.266C65.3205 12.51 65.4225 11.826 65.6265 11.214C65.8305 10.602 66.1185 10.086 66.4905 9.666C66.8745 9.234 67.3365 8.904 67.8765 8.676C68.4285 8.448 69.0525 8.334 69.7485 8.334C70.4445 8.334 71.0625 8.448 71.6025 8.676C72.1545 8.904 72.6165 9.234 72.9885 9.666C73.3725 10.086 73.6665 10.602 73.8705 11.214C74.0745 11.826 74.1765 12.51 74.1765 13.266C74.1765 14.022 74.0745 14.706 73.8705 15.318C73.6665 15.93 73.3725 16.452 72.9885 16.884C72.6165 17.316 72.1545 17.646 71.6025 17.874C71.0625 18.102 70.4445 18.216 69.7485 18.216ZM69.7485 16.11C70.2765 16.11 70.6845 15.948 70.9725 15.624C71.2605 15.3 71.4045 14.838 71.4045 14.238V12.312C71.4045 11.712 71.2605 11.25 70.9725 10.926C70.6845 10.602 70.2765 10.44 69.7485 10.44C69.2205 10.44 68.8125 10.602 68.5245 10.926C68.2365 11.25 68.0925 11.712 68.0925 12.312V14.238C68.0925 14.838 68.2365 15.3 68.5245 15.624C68.8125 15.948 69.2205 16.11 69.7485 16.11ZM75.8047 18V8.55H78.4687V10.152H78.5767C78.7447 9.66 79.0387 9.234 79.4587 8.874C79.8787 8.514 80.4607 8.334 81.2047 8.334C82.1767 8.334 82.9087 8.658 83.4007 9.306C83.9047 9.954 84.1567 10.878 84.1567 12.078V18H81.4927V12.294C81.4927 11.682 81.3967 11.232 81.2047 10.944C81.0127 10.644 80.6707 10.494 80.1787 10.494C79.9627 10.494 79.7527 10.524 79.5487 10.584C79.3447 10.632 79.1587 10.716 78.9907 10.836C78.8347 10.956 78.7087 11.106 78.6127 11.286C78.5167 11.454 78.4687 11.652 78.4687 11.88V18H75.8047ZM94.4533 18.216C93.3493 18.216 92.4133 18.03 91.6453 17.658C90.8773 17.274 90.2233 16.782 89.6833 16.182L91.4833 14.364C92.3353 15.324 93.3853 15.804 94.6333 15.804C95.3053 15.804 95.8033 15.666 96.1273 15.39C96.4513 15.114 96.6133 14.748 96.6133 14.292C96.6133 13.944 96.5173 13.656 96.3253 13.428C96.1333 13.188 95.7433 13.026 95.1553 12.942L93.9133 12.78C92.5813 12.612 91.6033 12.21 90.9793 11.574C90.3673 10.938 90.0613 10.092 90.0613 9.036C90.0613 8.472 90.1693 7.956 90.3853 7.488C90.6013 7.02 90.9073 6.618 91.3033 6.282C91.7113 5.946 92.2033 5.688 92.7793 5.508C93.3673 5.316 94.0333 5.22 94.7773 5.22C95.7253 5.22 96.5593 5.37 97.2793 5.67C97.9993 5.97 98.6173 6.408 99.1333 6.984L97.3153 8.82C97.0153 8.472 96.6493 8.19 96.2173 7.974C95.7973 7.746 95.2633 7.632 94.6153 7.632C94.0033 7.632 93.5473 7.74 93.2473 7.956C92.9473 8.172 92.7973 8.472 92.7973 8.856C92.7973 9.288 92.9113 9.6 93.1393 9.792C93.3793 9.984 93.7633 10.122 94.2913 10.206L95.5333 10.404C96.8293 10.608 97.7893 11.01 98.4133 11.61C99.0373 12.198 99.3493 13.038 99.3493 14.13C99.3493 14.73 99.2413 15.282 99.0253 15.786C98.8093 16.29 98.4913 16.722 98.0713 17.082C97.6633 17.442 97.1533 17.724 96.5413 17.928C95.9293 18.12 95.2333 18.216 94.4533 18.216ZM105.146 18.216C104.426 18.216 103.784 18.102 103.22 17.874C102.656 17.634 102.176 17.304 101.78 16.884C101.396 16.452 101.102 15.93 100.898 15.318C100.706 14.706 100.61 14.022 100.61 13.266C100.61 12.522 100.706 11.85 100.898 11.25C101.09 10.638 101.372 10.116 101.744 9.684C102.128 9.252 102.596 8.922 103.148 8.694C103.7 8.454 104.33 8.334 105.038 8.334C105.818 8.334 106.484 8.466 107.036 8.73C107.6 8.994 108.056 9.348 108.404 9.792C108.764 10.236 109.022 10.752 109.178 11.34C109.346 11.916 109.43 12.522 109.43 13.158V13.95H103.364V14.094C103.364 14.718 103.532 15.216 103.868 15.588C104.204 15.948 104.732 16.128 105.452 16.128C106.004 16.128 106.454 16.02 106.802 15.804C107.15 15.576 107.474 15.306 107.774 14.994L109.106 16.65C108.686 17.142 108.134 17.526 107.45 17.802C106.778 18.078 106.01 18.216 105.146 18.216ZM105.092 10.296C104.552 10.296 104.126 10.476 103.814 10.836C103.514 11.184 103.364 11.652 103.364 12.24V12.384H106.676V12.222C106.676 11.646 106.544 11.184 106.28 10.836C106.028 10.476 105.632 10.296 105.092 10.296ZM111.041 18V8.55H113.705V10.602H113.795C113.843 10.338 113.927 10.086 114.047 9.846C114.167 9.594 114.323 9.372 114.515 9.18C114.719 8.988 114.959 8.838 115.235 8.73C115.511 8.61 115.835 8.55 116.207 8.55H116.675V11.034H116.009C115.229 11.034 114.647 11.136 114.263 11.34C113.891 11.544 113.705 11.922 113.705 12.474V18H111.041ZM126.55 18.684C126.55 19.188 126.46 19.632 126.28 20.016C126.112 20.4 125.83 20.724 125.434 20.988C125.038 21.264 124.51 21.468 123.85 21.6C123.202 21.744 122.398 21.816 121.438 21.816C120.622 21.816 119.926 21.762 119.35 21.654C118.786 21.558 118.324 21.414 117.964 21.222C117.616 21.042 117.358 20.814 117.19 20.538C117.034 20.274 116.956 19.968 116.956 19.62C116.956 19.092 117.112 18.678 117.424 18.378C117.736 18.078 118.168 17.892 118.72 17.82V17.622C118.264 17.538 117.922 17.346 117.694 17.046C117.466 16.734 117.352 16.374 117.352 15.966C117.352 15.714 117.4 15.498 117.496 15.318C117.604 15.126 117.736 14.964 117.892 14.832C118.06 14.688 118.252 14.574 118.468 14.49C118.684 14.406 118.9 14.34 119.116 14.292V14.22C118.54 13.956 118.114 13.596 117.838 13.14C117.562 12.672 117.424 12.132 117.424 11.52C117.424 10.56 117.754 9.792 118.414 9.216C119.086 8.628 120.106 8.334 121.474 8.334C122.098 8.334 122.632 8.394 123.076 8.514V8.154C123.076 7.65 123.196 7.29 123.436 7.074C123.688 6.846 124.042 6.732 124.498 6.732H125.992V8.712H123.904V8.82C124.456 9.084 124.864 9.45 125.128 9.918C125.392 10.374 125.524 10.908 125.524 11.52C125.524 12.468 125.188 13.23 124.516 13.806C123.856 14.37 122.842 14.652 121.474 14.652C120.862 14.652 120.304 14.586 119.8 14.454C119.524 14.634 119.386 14.886 119.386 15.21C119.386 15.438 119.47 15.618 119.638 15.75C119.818 15.87 120.112 15.93 120.52 15.93H123.256C124.408 15.93 125.242 16.17 125.758 16.65C126.286 17.13 126.55 17.808 126.55 18.684ZM124.048 19.044C124.048 18.768 123.94 18.558 123.724 18.414C123.508 18.27 123.13 18.198 122.59 18.198H119.35C119.23 18.318 119.14 18.45 119.08 18.594C119.032 18.75 119.008 18.9 119.008 19.044C119.008 19.392 119.158 19.644 119.458 19.8C119.758 19.968 120.268 20.052 120.988 20.052H122.068C122.788 20.052 123.298 19.968 123.598 19.8C123.898 19.644 124.048 19.392 124.048 19.044ZM121.474 12.906C122.002 12.906 122.392 12.798 122.644 12.582C122.908 12.354 123.04 12.03 123.04 11.61V11.394C123.04 10.974 122.908 10.656 122.644 10.44C122.392 10.212 122.002 10.098 121.474 10.098C120.946 10.098 120.55 10.212 120.286 10.44C120.034 10.656 119.908 10.974 119.908 11.394V11.61C119.908 12.03 120.034 12.354 120.286 12.582C120.55 12.798 120.946 12.906 121.474 12.906ZM131.301 18.216C130.581 18.216 129.939 18.102 129.375 17.874C128.811 17.634 128.331 17.304 127.935 16.884C127.551 16.452 127.257 15.93 127.053 15.318C126.861 14.706 126.765 14.022 126.765 13.266C126.765 12.522 126.861 11.85 127.053 11.25C127.245 10.638 127.527 10.116 127.899 9.684C128.283 9.252 128.751 8.922 129.303 8.694C129.855 8.454 130.485 8.334 131.193 8.334C131.973 8.334 132.639 8.466 133.191 8.73C133.755 8.994 134.211 9.348 134.559 9.792C134.919 10.236 135.177 10.752 135.333 11.34C135.501 11.916 135.585 12.522 135.585 13.158V13.95H129.519V14.094C129.519 14.718 129.687 15.216 130.023 15.588C130.359 15.948 130.887 16.128 131.607 16.128C132.159 16.128 132.609 16.02 132.957 15.804C133.305 15.576 133.629 15.306 133.929 14.994L135.261 16.65C134.841 17.142 134.289 17.526 133.605 17.802C132.933 18.078 132.165 18.216 131.301 18.216ZM131.247 10.296C130.707 10.296 130.281 10.476 129.969 10.836C129.669 11.184 129.519 11.652 129.519 12.24V12.384H132.831V12.222C132.831 11.646 132.699 11.184 132.435 10.836C132.183 10.476 131.787 10.296 131.247 10.296ZM142.851 8.55H145.335L141.699 19.458C141.459 20.19 141.117 20.73 140.673 21.078C140.241 21.426 139.617 21.6 138.801 21.6H137.145V19.53H138.927L139.251 18.486L135.939 8.55H138.585L139.971 12.96L140.655 15.696H140.763L141.465 12.96L142.851 8.55ZM150.22 18.216C149.5 18.216 148.858 18.102 148.294 17.874C147.73 17.634 147.25 17.304 146.854 16.884C146.47 16.452 146.176 15.93 145.972 15.318C145.78 14.706 145.684 14.022 145.684 13.266C145.684 12.522 145.78 11.85 145.972 11.25C146.164 10.638 146.446 10.116 146.818 9.684C147.202 9.252 147.67 8.922 148.222 8.694C148.774 8.454 149.404 8.334 150.112 8.334C150.892 8.334 151.558 8.466 152.11 8.73C152.674 8.994 153.13 9.348 153.478 9.792C153.838 10.236 154.096 10.752 154.252 11.34C154.42 11.916 154.504 12.522 154.504 13.158V13.95H148.438V14.094C148.438 14.718 148.606 15.216 148.942 15.588C149.278 15.948 149.806 16.128 150.526 16.128C151.078 16.128 151.528 16.02 151.876 15.804C152.224 15.576 152.548 15.306 152.848 14.994L154.18 16.65C153.76 17.142 153.208 17.526 152.524 17.802C151.852 18.078 151.084 18.216 150.22 18.216ZM150.166 10.296C149.626 10.296 149.2 10.476 148.888 10.836C148.588 11.184 148.438 11.652 148.438 12.24V12.384H151.75V12.222C151.75 11.646 151.618 11.184 151.354 10.836C151.102 10.476 150.706 10.296 150.166 10.296ZM157.955 18L154.859 8.55H157.487L158.657 12.366L159.539 15.786H159.683L160.565 12.366L161.699 8.55H164.219L161.123 18H157.955ZM48.6137 40L50.8537 28.832H57.2537L57.0137 29.984H51.9257L51.1737 33.76H55.8457L55.6217 34.912H50.9337L49.9097 40H48.6137ZM59.6972 40.192C59.2599 40.192 58.8599 40.1227 58.4972 39.984C58.1345 39.8347 57.8199 39.6213 57.5532 39.344C57.2972 39.056 57.0945 38.704 56.9452 38.288C56.7959 37.8613 56.7212 37.3653 56.7212 36.8C56.7212 36.1067 56.8225 35.4453 57.0252 34.816C57.2385 34.176 57.5319 33.616 57.9052 33.136C58.2785 32.656 58.7265 32.272 59.2492 31.984C59.7719 31.696 60.3479 31.552 60.9772 31.552C61.4039 31.552 61.7985 31.6267 62.1612 31.776C62.5345 31.9147 62.8492 32.128 63.1052 32.416C63.3719 32.6933 63.5799 33.0453 63.7292 33.472C63.8785 33.8987 63.9532 34.3893 63.9532 34.944C63.9532 35.6373 63.8465 36.304 63.6332 36.944C63.4305 37.5733 63.1425 38.128 62.7692 38.608C62.3959 39.088 61.9479 39.472 61.4252 39.76C60.9025 40.048 60.3265 40.192 59.6972 40.192ZM59.8572 39.088C60.4545 39.088 60.9879 38.8693 61.4572 38.432C61.9265 37.9947 62.2465 37.3547 62.4172 36.512L62.6572 35.312C62.7105 35.0453 62.7372 34.8053 62.7372 34.592C62.7372 34.016 62.5719 33.552 62.2412 33.2C61.9212 32.8373 61.4465 32.656 60.8172 32.656C60.2199 32.656 59.6865 32.8747 59.2172 33.312C58.7479 33.7493 58.4279 34.3893 58.2572 35.232L58.0172 36.432C57.9639 36.6987 57.9372 36.9387 57.9372 37.152C57.9372 37.728 58.0972 38.1973 58.4172 38.56C58.7479 38.912 59.2279 39.088 59.8572 39.088ZM67.8701 31.744L66.8461 36.832C66.8141 36.992 66.7927 37.152 66.7821 37.312C66.7714 37.4613 66.7661 37.584 66.7661 37.68C66.7661 38.1387 66.8567 38.4853 67.0381 38.72C67.2301 38.9547 67.5501 39.072 67.9981 39.072C68.5634 39.072 69.0594 38.8533 69.4861 38.416C69.7847 38.1067 70.0247 37.7653 70.2061 37.392C70.3874 37.008 70.5101 36.6613 70.5741 36.352L71.5021 31.744H72.7341L71.2941 38.912H72.4621L72.2541 40H71.1341C70.7821 40 70.5154 39.9093 70.3341 39.728C70.1634 39.536 70.0781 39.2907 70.0781 38.992C70.0781 38.8853 70.0994 38.7307 70.1421 38.528L70.1741 38.368H70.0941C69.8061 38.9973 69.4647 39.4613 69.0701 39.76C68.6754 40.048 68.1901 40.192 67.6141 40.192C66.9101 40.192 66.3821 39.9893 66.0301 39.584C65.6781 39.1787 65.5021 38.6187 65.5021 37.904C65.5021 37.7547 65.5074 37.5893 65.5181 37.408C65.5394 37.2267 65.5714 37.0347 65.6141 36.832L66.6381 31.744H67.8701ZM73.8144 40L75.4784 31.744H76.7104L76.3744 33.376H76.4544C76.7424 32.7573 77.0838 32.2987 77.4784 32C77.8838 31.7013 78.3851 31.552 78.9824 31.552C79.6971 31.552 80.2304 31.7547 80.5824 32.16C80.9344 32.5653 81.1104 33.1253 81.1104 33.84C81.1104 33.9893 81.0998 34.1547 81.0784 34.336C81.0678 34.5173 81.0411 34.7093 80.9984 34.912L80.1984 38.912H81.3664L81.1584 40H79.9904C79.6811 40 79.4304 39.9253 79.2384 39.776C79.0571 39.6267 78.9664 39.392 78.9664 39.072C78.9664 39.0187 78.9664 38.9707 78.9664 38.928C78.9664 38.8853 78.9771 38.8213 78.9984 38.736L79.7664 34.912C79.7984 34.752 79.8198 34.5973 79.8304 34.448C79.8411 34.288 79.8464 34.16 79.8464 34.064C79.8464 33.5947 79.7451 33.248 79.5424 33.024C79.3504 32.7893 79.0304 32.672 78.5824 32.672C78.0064 32.672 77.4998 32.8907 77.0624 33.328C76.7851 33.6053 76.5504 33.936 76.3584 34.32C76.1664 34.704 76.0384 35.0613 75.9744 35.392L75.0464 40H73.8144ZM89.0373 40C88.6747 40 88.4027 39.9093 88.2213 39.728C88.0507 39.5467 87.9653 39.3067 87.9653 39.008C87.9653 38.88 87.9813 38.736 88.0133 38.576L88.0933 38.208H88.0453C87.704 38.9013 87.3253 39.408 86.9093 39.728C86.4933 40.0373 85.9813 40.192 85.3733 40.192C84.616 40.192 84.008 39.9147 83.5493 39.36C83.0907 38.7947 82.8613 38.0213 82.8613 37.04C82.8613 36.432 82.9413 35.808 83.1013 35.168C83.272 34.5173 83.5227 33.9253 83.8533 33.392C84.184 32.848 84.6 32.4053 85.1013 32.064C85.6133 31.7227 86.2107 31.552 86.8933 31.552C87.1387 31.552 87.3787 31.584 87.6133 31.648C87.848 31.712 88.0613 31.808 88.2533 31.936C88.4453 32.064 88.6107 32.224 88.7493 32.416C88.888 32.608 88.9893 32.832 89.0533 33.088H89.1173L90.1093 28.16H91.3413L89.1813 38.912H90.3493L90.1413 40H89.0373ZM85.7093 39.072C86.072 39.072 86.3867 38.9973 86.6533 38.848C86.9307 38.6987 87.192 38.5013 87.4373 38.256C87.704 37.9893 87.9227 37.696 88.0933 37.376C88.264 37.056 88.392 36.688 88.4773 36.272L88.8133 34.592C88.8667 34.336 88.872 34.096 88.8293 33.872C88.7867 33.6373 88.6907 33.4347 88.5413 33.264C88.392 33.0827 88.1893 32.9387 87.9333 32.832C87.6773 32.7253 87.368 32.672 87.0053 32.672C86.3333 32.672 85.7787 32.8907 85.3413 33.328C84.904 33.7653 84.6053 34.384 84.4453 35.184L84.2053 36.384C84.152 36.6827 84.1253 36.9547 84.1253 37.2C84.1253 37.744 84.248 38.192 84.4933 38.544C84.7493 38.896 85.1547 39.072 85.7093 39.072ZM95.0374 40.192C94.0454 40.192 93.2774 39.8987 92.7334 39.312C92.1894 38.7253 91.9174 37.8667 91.9174 36.736C91.9174 36.0533 92.0188 35.4027 92.2214 34.784C92.4348 34.1547 92.7281 33.6 93.1014 33.12C93.4854 32.64 93.9388 32.2613 94.4614 31.984C94.9948 31.696 95.5868 31.552 96.2374 31.552C96.5894 31.552 96.9254 31.6 97.2454 31.696C97.5654 31.7813 97.8481 31.9147 98.0934 32.096C98.3388 32.2773 98.5308 32.5067 98.6694 32.784C98.8188 33.0613 98.8934 33.3867 98.8934 33.76C98.8934 34.6667 98.4241 35.3387 97.4854 35.776C96.5574 36.2133 95.1281 36.4427 93.1974 36.464C93.1761 36.5813 93.1601 36.704 93.1494 36.832C93.1494 36.9493 93.1494 37.0507 93.1494 37.136C93.1494 37.7227 93.3148 38.1973 93.6454 38.56C93.9868 38.912 94.4774 39.088 95.1174 39.088C95.6401 39.088 96.1094 38.9707 96.5254 38.736C96.9521 38.4907 97.3254 38.1707 97.6454 37.776L98.4454 38.496C97.9334 39.1253 97.3841 39.568 96.7974 39.824C96.2214 40.0693 95.6348 40.192 95.0374 40.192ZM96.1094 32.608C95.7894 32.608 95.4801 32.6667 95.1814 32.784C94.8934 32.9013 94.6321 33.0667 94.3974 33.28C94.1734 33.4827 93.9761 33.7387 93.8054 34.048C93.6454 34.3467 93.5281 34.6773 93.4534 35.04L93.3574 35.504C94.2428 35.472 94.9628 35.4187 95.5174 35.344C96.0721 35.2587 96.5041 35.1467 96.8134 35.008C97.1334 34.8587 97.3468 34.6827 97.4534 34.48C97.5708 34.2773 97.6294 34.032 97.6294 33.744C97.6294 33.52 97.5868 33.3387 97.5014 33.2C97.4161 33.0507 97.3041 32.9333 97.1654 32.848C97.0268 32.7627 96.8614 32.704 96.6694 32.672C96.4881 32.6293 96.3014 32.608 96.1094 32.608ZM99.6413 40L101.305 31.744H102.537L102.185 33.392H102.265C102.372 33.1893 102.5 32.992 102.649 32.8C102.799 32.5973 102.969 32.4213 103.161 32.272C103.364 32.112 103.593 31.984 103.849 31.888C104.105 31.792 104.404 31.744 104.745 31.744H105.257L105.017 33.008H104.441C104.057 33.008 103.716 33.0667 103.417 33.184C103.129 33.2907 102.879 33.44 102.665 33.632C102.452 33.824 102.276 34.048 102.137 34.304C102.009 34.5493 101.919 34.8107 101.865 35.088L100.873 40H99.6413ZM111.955 40.192C111.517 40.192 111.117 40.1227 110.755 39.984C110.392 39.8347 110.077 39.6213 109.811 39.344C109.555 39.056 109.352 38.704 109.203 38.288C109.053 37.8613 108.979 37.3653 108.979 36.8C108.979 36.1067 109.08 35.4453 109.283 34.816C109.496 34.176 109.789 33.616 110.163 33.136C110.536 32.656 110.984 32.272 111.507 31.984C112.029 31.696 112.605 31.552 113.235 31.552C113.661 31.552 114.056 31.6267 114.419 31.776C114.792 31.9147 115.107 32.128 115.363 32.416C115.629 32.6933 115.837 33.0453 115.987 33.472C116.136 33.8987 116.211 34.3893 116.211 34.944C116.211 35.6373 116.104 36.304 115.891 36.944C115.688 37.5733 115.4 38.128 115.027 38.608C114.653 39.088 114.205 39.472 113.683 39.76C113.16 40.048 112.584 40.192 111.955 40.192ZM112.115 39.088C112.712 39.088 113.245 38.8693 113.715 38.432C114.184 37.9947 114.504 37.3547 114.675 36.512L114.915 35.312C114.968 35.0453 114.995 34.8053 114.995 34.592C114.995 34.016 114.829 33.552 114.499 33.2C114.179 32.8373 113.704 32.656 113.075 32.656C112.477 32.656 111.944 32.8747 111.475 33.312C111.005 33.7493 110.685 34.3893 110.515 35.232L110.275 36.432C110.221 36.6987 110.195 36.9387 110.195 37.152C110.195 37.728 110.355 38.1973 110.675 38.56C111.005 38.912 111.485 39.088 112.115 39.088ZM118.53 41.376C118.413 41.9413 118.205 42.384 117.906 42.704C117.618 43.0347 117.154 43.2 116.514 43.2H115.442L115.65 42.112H117.138L119.026 32.832H117.666L117.874 31.744H119.234L119.586 29.984C119.704 29.4187 119.906 28.976 120.194 28.656C120.493 28.3253 120.962 28.16 121.602 28.16H122.866L122.658 29.248H120.978L120.466 31.744H122.082L121.874 32.832H120.258L118.53 41.376ZM131.842 40C131.479 40 131.207 39.9093 131.026 39.728C130.855 39.5467 130.77 39.3067 130.77 39.008C130.77 38.88 130.786 38.736 130.818 38.576L130.898 38.208H130.85C130.508 38.9013 130.13 39.408 129.714 39.728C129.298 40.0373 128.786 40.192 128.178 40.192C127.42 40.192 126.812 39.9147 126.354 39.36C125.895 38.7947 125.666 38.0213 125.666 37.04C125.666 36.432 125.746 35.808 125.906 35.168C126.076 34.5173 126.327 33.9253 126.658 33.392C126.988 32.848 127.404 32.4053 127.906 32.064C128.418 31.7227 129.015 31.552 129.698 31.552C129.943 31.552 130.183 31.584 130.418 31.648C130.652 31.712 130.866 31.808 131.058 31.936C131.25 32.064 131.415 32.224 131.554 32.416C131.692 32.608 131.794 32.832 131.858 33.088H131.922L132.194 31.744H133.426L131.986 38.912H133.154L132.946 40H131.842ZM128.498 39.072C128.86 39.072 129.18 39.0027 129.458 38.864C129.735 38.7147 129.996 38.512 130.242 38.256C130.519 37.9787 130.738 37.68 130.898 37.36C131.068 37.04 131.196 36.6773 131.282 36.272L131.618 34.592C131.671 34.336 131.676 34.096 131.634 33.872C131.591 33.6373 131.495 33.4347 131.346 33.264C131.196 33.0827 130.994 32.9387 130.738 32.832C130.482 32.7253 130.172 32.672 129.81 32.672C129.138 32.672 128.583 32.8907 128.146 33.328C127.708 33.7653 127.41 34.384 127.25 35.184L127.01 36.384C126.956 36.6827 126.93 36.9547 126.93 37.2C126.93 37.7653 127.063 38.2187 127.33 38.56C127.596 38.9013 127.986 39.072 128.498 39.072ZM136.178 31.744H137.41L137.042 33.536H137.09C137.431 32.8427 137.81 32.3413 138.226 32.032C138.642 31.712 139.154 31.552 139.762 31.552C140.519 31.552 141.127 31.8347 141.586 32.4C142.044 32.9547 142.274 33.7227 142.274 34.704C142.274 35.312 142.188 35.9413 142.018 36.592C141.858 37.232 141.612 37.824 141.282 38.368C140.951 38.9013 140.53 39.3387 140.018 39.68C139.516 40.0213 138.924 40.192 138.242 40.192C137.996 40.192 137.756 40.16 137.522 40.096C137.287 40.032 137.074 39.936 136.882 39.808C136.69 39.68 136.524 39.52 136.386 39.328C136.247 39.136 136.146 38.912 136.082 38.656H136.018L135.106 43.2H133.874L136.178 31.744ZM138.13 39.072C138.802 39.072 139.356 38.8533 139.794 38.416C140.231 37.9787 140.53 37.36 140.69 36.56L140.93 35.36C140.983 35.0613 141.01 34.7893 141.01 34.544C141.01 34 140.882 33.552 140.626 33.2C140.38 32.848 139.98 32.672 139.426 32.672C139.063 32.672 138.743 32.7467 138.466 32.896C138.199 33.0453 137.943 33.2427 137.698 33.488C137.431 33.7547 137.212 34.048 137.042 34.368C136.871 34.688 136.743 35.056 136.658 35.472L136.322 37.152C136.268 37.408 136.263 37.6533 136.306 37.888C136.348 38.1227 136.444 38.3307 136.594 38.512C136.743 38.6827 136.94 38.8213 137.186 38.928C137.442 39.024 137.756 39.072 138.13 39.072ZM145.094 31.744H146.326L145.958 33.536H146.006C146.347 32.8427 146.726 32.3413 147.142 32.032C147.558 31.712 148.07 31.552 148.678 31.552C149.435 31.552 150.043 31.8347 150.502 32.4C150.961 32.9547 151.19 33.7227 151.19 34.704C151.19 35.312 151.105 35.9413 150.934 36.592C150.774 37.232 150.529 37.824 150.198 38.368C149.867 38.9013 149.446 39.3387 148.934 39.68C148.433 40.0213 147.841 40.192 147.158 40.192C146.913 40.192 146.673 40.16 146.438 40.096C146.203 40.032 145.99 39.936 145.798 39.808C145.606 39.68 145.441 39.52 145.302 39.328C145.163 39.136 145.062 38.912 144.998 38.656H144.934L144.022 43.2H142.79L145.094 31.744ZM147.046 39.072C147.718 39.072 148.273 38.8533 148.71 38.416C149.147 37.9787 149.446 37.36 149.606 36.56L149.846 35.36C149.899 35.0613 149.926 34.7893 149.926 34.544C149.926 34 149.798 33.552 149.542 33.2C149.297 32.848 148.897 32.672 148.342 32.672C147.979 32.672 147.659 32.7467 147.382 32.896C147.115 33.0453 146.859 33.2427 146.614 33.488C146.347 33.7547 146.129 34.048 145.958 34.368C145.787 34.688 145.659 35.056 145.574 35.472L145.238 37.152C145.185 37.408 145.179 37.6533 145.222 37.888C145.265 38.1227 145.361 38.3307 145.51 38.512C145.659 38.6827 145.857 38.8213 146.102 38.928C146.358 39.024 146.673 39.072 147.046 39.072ZM79.7687 50.832H83.8807C84.7447 50.832 85.406 51.0453 85.8647 51.472C86.3234 51.8987 86.5527 52.48 86.5527 53.216C86.5527 53.5573 86.4994 53.888 86.3927 54.208C86.2967 54.5173 86.1527 54.8 85.9607 55.056C85.7687 55.312 85.5287 55.536 85.2407 55.728C84.9634 55.9093 84.6434 56.0427 84.2807 56.128L84.2647 56.208C84.7767 56.3253 85.1714 56.544 85.4487 56.864C85.7367 57.1733 85.8807 57.616 85.8807 58.192C85.8807 58.7147 85.7847 59.2053 85.5927 59.664C85.4114 60.1227 85.1554 60.528 84.8247 60.88C84.5047 61.2213 84.1207 61.4933 83.6727 61.696C83.2354 61.8987 82.7554 62 82.2327 62H77.5287L79.7687 50.832ZM82.2167 60.848C82.7714 60.848 83.2407 60.704 83.6247 60.416C84.0087 60.1173 84.2594 59.664 84.3767 59.056C84.43 58.7787 84.4674 58.576 84.4887 58.448C84.51 58.3093 84.5207 58.2027 84.5207 58.128C84.5207 57.712 84.382 57.392 84.1047 57.168C83.8274 56.9333 83.422 56.816 82.8887 56.816H79.8487L79.0487 60.848H82.2167ZM82.7767 55.696C83.374 55.696 83.8647 55.5733 84.2487 55.328C84.6434 55.072 84.8994 54.6613 85.0167 54.096C85.07 53.8507 85.102 53.664 85.1127 53.536C85.1234 53.3973 85.1287 53.2907 85.1287 53.216C85.1287 52.832 85.0114 52.5333 84.7767 52.32C84.542 52.096 84.1847 51.984 83.7047 51.984H80.8087L80.0727 55.696H82.7767ZM88.6319 62C88.2586 62 87.9759 61.9093 87.7839 61.728C87.6026 61.536 87.5119 61.2907 87.5119 60.992C87.5119 60.896 87.5279 60.768 87.5599 60.608L89.6559 50.16H90.8879L88.7279 60.912H89.9759L89.7679 62H88.6319ZM94.4347 62.192C93.9973 62.192 93.5973 62.1227 93.2347 61.984C92.872 61.8347 92.5573 61.6213 92.2907 61.344C92.0347 61.056 91.832 60.704 91.6827 60.288C91.5333 59.8613 91.4587 59.3653 91.4587 58.8C91.4587 58.1067 91.56 57.4453 91.7627 56.816C91.976 56.176 92.2693 55.616 92.6427 55.136C93.016 54.656 93.464 54.272 93.9867 53.984C94.5093 53.696 95.0853 53.552 95.7147 53.552C96.1413 53.552 96.536 53.6267 96.8987 53.776C97.272 53.9147 97.5867 54.128 97.8427 54.416C98.1093 54.6933 98.3173 55.0453 98.4667 55.472C98.616 55.8987 98.6907 56.3893 98.6907 56.944C98.6907 57.6373 98.584 58.304 98.3707 58.944C98.168 59.5733 97.88 60.128 97.5067 60.608C97.1333 61.088 96.6853 61.472 96.1627 61.76C95.64 62.048 95.064 62.192 94.4347 62.192ZM94.5947 61.088C95.192 61.088 95.7253 60.8693 96.1947 60.432C96.664 59.9947 96.984 59.3547 97.1547 58.512L97.3947 57.312C97.448 57.0453 97.4747 56.8053 97.4747 56.592C97.4747 56.016 97.3093 55.552 96.9787 55.2C96.6587 54.8373 96.184 54.656 95.5547 54.656C94.9573 54.656 94.424 54.8747 93.9547 55.312C93.4853 55.7493 93.1653 56.3893 92.9947 57.232L92.7547 58.432C92.7013 58.6987 92.6747 58.9387 92.6747 59.152C92.6747 59.728 92.8347 60.1973 93.1547 60.56C93.4853 60.912 93.9653 61.088 94.5947 61.088ZM102.192 50.16H103.424L101.92 57.6H102L103.472 56.192L106.256 53.744H107.744L104.064 57.072L105.744 60.912H106.8L106.592 62H105.888C105.514 62 105.226 61.936 105.024 61.808C104.832 61.6693 104.666 61.4453 104.528 61.136L103.072 57.792L101.616 59.104L101.04 62H99.8076L102.192 50.16ZM110.248 50.16H111.48L109.976 57.6H110.056L111.528 56.192L114.312 53.744H115.8L112.12 57.072L113.8 60.912H114.856L114.648 62H113.944C113.571 62 113.283 61.936 113.08 61.808C112.888 61.6693 112.723 61.4453 112.584 61.136L111.128 57.792L109.672 59.104L109.096 62H107.864L110.248 50.16ZM122.353 53.744H123.665L118.081 63.872C117.815 64.352 117.553 64.6933 117.297 64.896C117.052 65.0987 116.721 65.2 116.305 65.2H115.025L115.233 64.144H116.721L117.745 62.256L116.433 53.744H117.633L118.241 57.824L118.577 60.832H118.657L120.145 57.824L122.353 53.744Z" fill="white"/>
</g>
<defs>
<clipPath id="clip0_828_98">
<rect width="200" height="70" fill="white"/>
</clipPath>
</defs>
</svg>
