<svg width="170" height="170" viewBox="0 0 170 170" fill="none" xmlns="http://www.w3.org/2000/svg">
<circle cx="85" cy="85" r="85" fill="white"/>
<path d="M44.7164 62.14H68.4464C72.5064 62.14 75.6564 63.2833 77.8964 65.57C80.183 67.8567 81.3264 70.89 81.3264 74.67C81.3264 76.5367 81.0697 78.1233 80.5564 79.43C80.0897 80.7367 79.4364 81.81 78.5964 82.65C77.803 83.49 76.8464 84.12 75.7264 84.54C74.653 84.9133 73.4864 85.1233 72.2264 85.17V85.59C73.393 85.59 74.6064 85.8 75.8664 86.22C77.173 86.64 78.363 87.3167 79.4364 88.25C80.5097 89.1367 81.3964 90.3033 82.0964 91.75C82.843 93.1967 83.2164 94.97 83.2164 97.07C83.2164 98.9833 82.8897 100.803 82.2364 102.53C81.6297 104.21 80.7664 105.68 79.6464 106.94C78.5264 108.2 77.1964 109.203 75.6564 109.95C74.1164 110.65 72.4364 111 70.6164 111H44.7164V62.14ZM55.3564 102.04H67.6064C69.0064 102.04 70.103 101.667 70.8964 100.92C71.7364 100.127 72.1564 99.03 72.1564 97.63V95.25C72.1564 93.85 71.7364 92.7767 70.8964 92.03C70.103 91.2367 69.0064 90.84 67.6064 90.84H55.3564V102.04ZM55.3564 82.16H65.9264C67.3264 82.16 68.423 81.7633 69.2164 80.97C70.0097 80.1767 70.4064 79.08 70.4064 77.68V75.58C70.4064 74.18 70.0097 73.0833 69.2164 72.29C68.423 71.4967 67.3264 71.1 65.9264 71.1H55.3564V82.16ZM103.959 111V102.53H110.259V70.61H103.959V62.14H127.199V70.61H120.899V102.53H127.199V111H103.959Z" fill="#00BDF8"/>
</svg>
