<svg width="200" height="70" viewBox="0 0 200 70" fill="none" xmlns="http://www.w3.org/2000/svg">
<g clip-path="url(#clip0_828_98)">
<path d="M57.0541 9.756H57.0001L56.0821 11.592L53.6341 16.038L51.2401 11.61L50.2861 9.63H50.2321V18H47.6581V5.436H50.5561L53.6341 11.322H53.6701L56.7121 5.436H59.6281V18H57.0541V9.756ZM68.9762 18C68.4962 18 68.0942 17.85 67.7702 17.55C67.4582 17.25 67.2602 16.848 67.1762 16.344H67.0682C66.9242 16.956 66.6062 17.424 66.1142 17.748C65.6222 18.06 65.0162 18.216 64.2962 18.216C63.3482 18.216 62.6222 17.964 62.1182 17.46C61.6142 16.956 61.3622 16.29 61.3622 15.462C61.3622 14.466 61.7222 13.728 62.4422 13.248C63.1742 12.756 64.1642 12.51 65.4122 12.51H66.9062V11.916C66.9062 11.46 66.7862 11.1 66.5462 10.836C66.3062 10.56 65.9042 10.422 65.3402 10.422C64.8122 10.422 64.3922 10.536 64.0802 10.764C63.7682 10.992 63.5102 11.25 63.3062 11.538L61.7222 10.134C62.1062 9.57 62.5862 9.132 63.1622 8.82C63.7502 8.496 64.5422 8.334 65.5382 8.334C66.8822 8.334 67.8902 8.628 68.5622 9.216C69.2342 9.804 69.5702 10.662 69.5702 11.79V15.93H70.4522V18H68.9762ZM65.2862 16.362C65.7302 16.362 66.1082 16.266 66.4202 16.074C66.7442 15.882 66.9062 15.57 66.9062 15.138V14.022H65.6102C64.5662 14.022 64.0442 14.376 64.0442 15.084V15.354C64.0442 15.702 64.1522 15.96 64.3682 16.128C64.5842 16.284 64.8902 16.362 65.2862 16.362ZM71.9702 18V8.55H74.6342V10.602H74.7242C74.7722 10.338 74.8562 10.086 74.9762 9.846C75.0962 9.594 75.2522 9.372 75.4442 9.18C75.6482 8.988 75.8882 8.838 76.1642 8.73C76.4402 8.61 76.7642 8.55 77.1362 8.55H77.6042V11.034H76.9382C76.1582 11.034 75.5762 11.136 75.1922 11.34C74.8202 11.544 74.6342 11.922 74.6342 12.474V18H71.9702ZM82.3599 18C81.4359 18 80.7339 17.766 80.2539 17.298C79.7859 16.83 79.5519 16.146 79.5519 15.246V10.62H78.2199V8.55H78.8859C79.2459 8.55 79.4919 8.466 79.6239 8.298C79.7559 8.118 79.8219 7.866 79.8219 7.542V5.994H82.2159V8.55H84.0879V10.62H82.2159V15.93H83.9439V18H82.3599ZM87.0005 7.542C86.4605 7.542 86.0645 7.422 85.8125 7.182C85.5725 6.93 85.4525 6.612 85.4525 6.228V5.832C85.4525 5.448 85.5725 5.136 85.8125 4.896C86.0645 4.644 86.4605 4.518 87.0005 4.518C87.5405 4.518 87.9305 4.644 88.1705 4.896C88.4225 5.136 88.5485 5.448 88.5485 5.832V6.228C88.5485 6.612 88.4225 6.93 88.1705 7.182C87.9305 7.422 87.5405 7.542 87.0005 7.542ZM85.6685 8.55H88.3325V18H85.6685V8.55ZM90.5489 18V8.55H93.2129V10.152H93.3209C93.4889 9.66 93.7829 9.234 94.2029 8.874C94.6229 8.514 95.2049 8.334 95.9489 8.334C96.9209 8.334 97.6529 8.658 98.1449 9.306C98.6489 9.954 98.9009 10.878 98.9009 12.078V18H96.2369V12.294C96.2369 11.682 96.1409 11.232 95.9489 10.944C95.7569 10.644 95.4149 10.494 94.9229 10.494C94.7069 10.494 94.4969 10.524 94.2929 10.584C94.0889 10.632 93.9029 10.716 93.7349 10.836C93.5789 10.956 93.4529 11.106 93.3569 11.286C93.2609 11.454 93.2129 11.652 93.2129 11.88V18H90.5489ZM113.103 16.002H113.013C112.917 16.638 112.593 17.166 112.041 17.586C111.489 18.006 110.739 18.216 109.791 18.216C109.071 18.216 108.399 18.078 107.775 17.802C107.151 17.526 106.605 17.118 106.137 16.578C105.669 16.038 105.303 15.366 105.039 14.562C104.775 13.758 104.643 12.828 104.643 11.772C104.643 10.716 104.781 9.78 105.057 8.964C105.333 8.148 105.717 7.464 106.209 6.912C106.713 6.36 107.313 5.94 108.009 5.652C108.705 5.364 109.479 5.22 110.331 5.22C111.459 5.22 112.431 5.466 113.247 5.958C114.063 6.438 114.705 7.164 115.173 8.136L112.941 9.414C112.749 8.922 112.449 8.508 112.041 8.172C111.633 7.824 111.063 7.65 110.331 7.65C109.479 7.65 108.801 7.896 108.297 8.388C107.793 8.88 107.541 9.654 107.541 10.71V12.726C107.541 13.77 107.793 14.544 108.297 15.048C108.801 15.54 109.479 15.786 110.331 15.786C110.667 15.786 110.985 15.75 111.285 15.678C111.585 15.594 111.849 15.474 112.077 15.318C112.305 15.15 112.479 14.952 112.599 14.724C112.731 14.496 112.797 14.226 112.797 13.914V13.284H110.457V10.998H115.407V18H113.103V16.002ZM117.653 18V8.55H120.317V10.602H120.407C120.455 10.338 120.539 10.086 120.659 9.846C120.779 9.594 120.935 9.372 121.127 9.18C121.331 8.988 121.571 8.838 121.847 8.73C122.123 8.61 122.447 8.55 122.819 8.55H123.287V11.034H122.621C121.841 11.034 121.259 11.136 120.875 11.34C120.503 11.544 120.317 11.922 120.317 12.474V18H117.653ZM128.514 18.216C127.794 18.216 127.152 18.102 126.588 17.874C126.024 17.634 125.544 17.304 125.148 16.884C124.764 16.452 124.47 15.93 124.266 15.318C124.074 14.706 123.978 14.022 123.978 13.266C123.978 12.522 124.074 11.85 124.266 11.25C124.458 10.638 124.74 10.116 125.112 9.684C125.496 9.252 125.964 8.922 126.516 8.694C127.068 8.454 127.698 8.334 128.406 8.334C129.186 8.334 129.852 8.466 130.404 8.73C130.968 8.994 131.424 9.348 131.772 9.792C132.132 10.236 132.39 10.752 132.546 11.34C132.714 11.916 132.798 12.522 132.798 13.158V13.95H126.732V14.094C126.732 14.718 126.9 15.216 127.236 15.588C127.572 15.948 128.1 16.128 128.82 16.128C129.372 16.128 129.822 16.02 130.17 15.804C130.518 15.576 130.842 15.306 131.142 14.994L132.474 16.65C132.054 17.142 131.502 17.526 130.818 17.802C130.146 18.078 129.378 18.216 128.514 18.216ZM128.46 10.296C127.92 10.296 127.494 10.476 127.182 10.836C126.882 11.184 126.732 11.652 126.732 12.24V12.384H130.044V12.222C130.044 11.646 129.912 11.184 129.648 10.836C129.396 10.476 129 10.296 128.46 10.296ZM138.352 18.216C137.632 18.216 136.99 18.102 136.426 17.874C135.862 17.634 135.382 17.304 134.986 16.884C134.602 16.452 134.308 15.93 134.104 15.318C133.912 14.706 133.816 14.022 133.816 13.266C133.816 12.522 133.912 11.85 134.104 11.25C134.296 10.638 134.578 10.116 134.95 9.684C135.334 9.252 135.802 8.922 136.354 8.694C136.906 8.454 137.536 8.334 138.244 8.334C139.024 8.334 139.69 8.466 140.242 8.73C140.806 8.994 141.262 9.348 141.61 9.792C141.97 10.236 142.228 10.752 142.384 11.34C142.552 11.916 142.636 12.522 142.636 13.158V13.95H136.57V14.094C136.57 14.718 136.738 15.216 137.074 15.588C137.41 15.948 137.938 16.128 138.658 16.128C139.21 16.128 139.66 16.02 140.008 15.804C140.356 15.576 140.68 15.306 140.98 14.994L142.312 16.65C141.892 17.142 141.34 17.526 140.656 17.802C139.984 18.078 139.216 18.216 138.352 18.216ZM138.298 10.296C137.758 10.296 137.332 10.476 137.02 10.836C136.72 11.184 136.57 11.652 136.57 12.24V12.384H139.882V12.222C139.882 11.646 139.75 11.184 139.486 10.836C139.234 10.476 138.838 10.296 138.298 10.296ZM144.247 18V8.55H146.911V10.152H147.019C147.187 9.66 147.481 9.234 147.901 8.874C148.321 8.514 148.903 8.334 149.647 8.334C150.619 8.334 151.351 8.658 151.843 9.306C152.347 9.954 152.599 10.878 152.599 12.078V18H149.935V12.294C149.935 11.682 149.839 11.232 149.647 10.944C149.455 10.644 149.113 10.494 148.621 10.494C148.405 10.494 148.195 10.524 147.991 10.584C147.787 10.632 147.601 10.716 147.433 10.836C147.277 10.956 147.151 11.106 147.055 11.286C146.959 11.454 146.911 11.652 146.911 11.88V18H144.247ZM47.1459 40.192C46.6019 40.192 46.1006 40.096 45.6419 39.904C45.1833 39.712 44.7833 39.4293 44.4419 39.056C44.1113 38.672 43.8499 38.208 43.6579 37.664C43.4766 37.1093 43.3859 36.4693 43.3859 35.744C43.3859 34.7733 43.5139 33.8613 43.7699 33.008C44.0259 32.144 44.3886 31.392 44.8579 30.752C45.3273 30.1013 45.8926 29.5893 46.5539 29.216C47.2153 28.832 47.9513 28.64 48.7619 28.64C49.6686 28.64 50.4206 28.848 51.0179 29.264C51.6259 29.68 52.0686 30.32 52.3459 31.184L51.1779 31.712C50.9753 31.0827 50.6766 30.608 50.2819 30.288C49.8873 29.968 49.3379 29.808 48.6339 29.808C48.2073 29.808 47.8019 29.888 47.4179 30.048C47.0446 30.208 46.7033 30.4373 46.3939 30.736C46.0953 31.024 45.8339 31.376 45.6099 31.792C45.3966 32.1973 45.2419 32.656 45.1459 33.168L44.7779 35.008C44.7353 35.2107 44.7086 35.3973 44.6979 35.568C44.6873 35.7387 44.6819 35.904 44.6819 36.064C44.6819 36.5013 44.7406 36.9013 44.8579 37.264C44.9753 37.6267 45.1406 37.9413 45.3539 38.208C45.5673 38.464 45.8286 38.6667 46.1379 38.816C46.4579 38.9547 46.8206 39.024 47.2259 39.024C47.6099 39.024 47.9513 38.976 48.2499 38.88C48.5593 38.784 48.8313 38.6507 49.0659 38.48C49.3113 38.2987 49.5299 38.08 49.7219 37.824C49.9246 37.5573 50.1166 37.264 50.2979 36.944L51.3859 37.488C50.8953 38.416 50.3139 39.0987 49.6419 39.536C48.9699 39.9733 48.1379 40.192 47.1459 40.192ZM52.5149 40L54.7549 28.832H61.3309L61.0909 29.984H55.8269L55.0749 33.76H59.8109L59.5869 34.912H54.8349L54.0509 38.848H59.5869L59.3629 40H52.5149ZM65.3096 40.192C64.7549 40.192 64.2376 40.1013 63.7576 39.92C63.2882 39.728 62.8776 39.4507 62.5256 39.088C62.1842 38.7147 61.9122 38.256 61.7096 37.712C61.5176 37.168 61.4216 36.544 61.4216 35.84C61.4216 34.912 61.5496 34.016 61.8056 33.152C62.0616 32.288 62.4349 31.5253 62.9256 30.864C63.4162 30.192 64.0082 29.6533 64.7016 29.248C65.4056 28.8427 66.2002 28.64 67.0856 28.64C67.6402 28.64 68.1522 28.736 68.6216 28.928C69.1016 29.12 69.5122 29.4027 69.8536 29.776C70.2056 30.1387 70.4776 30.592 70.6696 31.136C70.8722 31.6693 70.9736 32.288 70.9736 32.992C70.9736 33.92 70.8456 34.816 70.5896 35.68C70.3336 36.544 69.9602 37.312 69.4696 37.984C68.9789 38.6453 68.3816 39.1787 67.6776 39.584C66.9842 39.9893 66.1949 40.192 65.3096 40.192ZM65.4376 39.024C66.4296 39.024 67.2562 38.6987 67.9176 38.048C68.5789 37.3867 69.0269 36.4747 69.2616 35.312L69.5816 33.712C69.6242 33.5093 69.6509 33.3173 69.6616 33.136C69.6829 32.944 69.6936 32.768 69.6936 32.608C69.6936 31.7547 69.4536 31.0773 68.9736 30.576C68.4936 30.064 67.8216 29.808 66.9576 29.808C65.9656 29.808 65.1389 30.1387 64.4776 30.8C63.8162 31.4507 63.3682 32.3573 63.1336 33.52L62.8136 35.12C62.7709 35.3227 62.7389 35.52 62.7176 35.712C62.7069 35.8933 62.7016 36.064 62.7016 36.224C62.7016 37.0773 62.9416 37.76 63.4216 38.272C63.9016 38.7733 64.5736 39.024 65.4376 39.024ZM78.4622 40.192C78.0249 40.192 77.6249 40.1227 77.2622 39.984C76.8995 39.8347 76.5849 39.6213 76.3182 39.344C76.0622 39.056 75.8595 38.704 75.7102 38.288C75.5609 37.8613 75.4862 37.3653 75.4862 36.8C75.4862 36.1067 75.5875 35.4453 75.7902 34.816C76.0035 34.176 76.2969 33.616 76.6702 33.136C77.0435 32.656 77.4915 32.272 78.0142 31.984C78.5369 31.696 79.1129 31.552 79.7422 31.552C80.1689 31.552 80.5635 31.6267 80.9262 31.776C81.2995 31.9147 81.6142 32.128 81.8702 32.416C82.1369 32.6933 82.3449 33.0453 82.4942 33.472C82.6435 33.8987 82.7182 34.3893 82.7182 34.944C82.7182 35.6373 82.6115 36.304 82.3982 36.944C82.1955 37.5733 81.9075 38.128 81.5342 38.608C81.1609 39.088 80.7129 39.472 80.1902 39.76C79.6675 40.048 79.0915 40.192 78.4622 40.192ZM78.6222 39.088C79.2195 39.088 79.7529 38.8693 80.2222 38.432C80.6915 37.9947 81.0115 37.3547 81.1822 36.512L81.4222 35.312C81.4755 35.0453 81.5022 34.8053 81.5022 34.592C81.5022 34.016 81.3369 33.552 81.0062 33.2C80.6862 32.8373 80.2115 32.656 79.5822 32.656C78.9849 32.656 78.4515 32.8747 77.9822 33.312C77.5129 33.7493 77.1929 34.3893 77.0222 35.232L76.7822 36.432C76.7289 36.6987 76.7022 36.9387 76.7022 37.152C76.7022 37.728 76.8622 38.1973 77.1822 38.56C77.5129 38.912 77.9929 39.088 78.6222 39.088ZM85.0377 41.376C84.9204 41.9413 84.7124 42.384 84.4137 42.704C84.1257 43.0347 83.6617 43.2 83.0217 43.2H81.9497L82.1577 42.112H83.6457L85.5337 32.832H84.1737L84.3817 31.744H85.7417L86.0937 29.984C86.211 29.4187 86.4137 28.976 86.7017 28.656C87.0004 28.3253 87.4697 28.16 88.1097 28.16H89.3737L89.1657 29.248H87.4857L86.9737 31.744H88.5897L88.3817 32.832H86.7657L85.0377 41.376ZM94.2212 28.832H98.3332C99.1972 28.832 99.8585 29.0453 100.317 29.472C100.776 29.8987 101.005 30.48 101.005 31.216C101.005 31.5573 100.952 31.888 100.845 32.208C100.749 32.5173 100.605 32.8 100.413 33.056C100.221 33.312 99.9812 33.536 99.6932 33.728C99.4159 33.9093 99.0959 34.0427 98.7332 34.128L98.7172 34.208C99.2292 34.3253 99.6239 34.544 99.9012 34.864C100.189 35.1733 100.333 35.616 100.333 36.192C100.333 36.7147 100.237 37.2053 100.045 37.664C99.8639 38.1227 99.6079 38.528 99.2772 38.88C98.9572 39.2213 98.5732 39.4933 98.1252 39.696C97.6879 39.8987 97.2079 40 96.6852 40H91.9812L94.2212 28.832ZM96.6692 38.848C97.2239 38.848 97.6932 38.704 98.0772 38.416C98.4612 38.1173 98.7119 37.664 98.8292 37.056C98.8825 36.7787 98.9199 36.576 98.9412 36.448C98.9625 36.3093 98.9732 36.2027 98.9732 36.128C98.9732 35.712 98.8345 35.392 98.5572 35.168C98.2799 34.9333 97.8745 34.816 97.3412 34.816H94.3012L93.5012 38.848H96.6692ZM97.2292 33.696C97.8265 33.696 98.3172 33.5733 98.7012 33.328C99.0959 33.072 99.3519 32.6613 99.4692 32.096C99.5225 31.8507 99.5545 31.664 99.5652 31.536C99.5759 31.3973 99.5812 31.2907 99.5812 31.216C99.5812 30.832 99.4639 30.5333 99.2292 30.32C98.9945 30.096 98.6372 29.984 98.1572 29.984H95.2612L94.5252 33.696H97.2292ZM103.084 40C102.711 40 102.428 39.9093 102.236 39.728C102.055 39.536 101.964 39.2907 101.964 38.992C101.964 38.896 101.98 38.768 102.012 38.608L104.108 28.16H105.34L103.18 38.912H104.428L104.22 40H103.084ZM108.503 31.744L107.479 36.832C107.447 36.992 107.426 37.152 107.415 37.312C107.405 37.4613 107.399 37.584 107.399 37.68C107.399 38.1387 107.49 38.4853 107.671 38.72C107.863 38.9547 108.183 39.072 108.631 39.072C109.197 39.072 109.693 38.8533 110.119 38.416C110.418 38.1067 110.658 37.7653 110.839 37.392C111.021 37.008 111.143 36.6613 111.207 36.352L112.135 31.744H113.367L111.927 38.912H113.095L112.887 40H111.767C111.415 40 111.149 39.9093 110.967 39.728C110.797 39.536 110.711 39.2907 110.711 38.992C110.711 38.8853 110.733 38.7307 110.775 38.528L110.807 38.368H110.727C110.439 38.9973 110.098 39.4613 109.703 39.76C109.309 40.048 108.823 40.192 108.247 40.192C107.543 40.192 107.015 39.9893 106.663 39.584C106.311 39.1787 106.135 38.6187 106.135 37.904C106.135 37.7547 106.141 37.5893 106.151 37.408C106.173 37.2267 106.205 37.0347 106.247 36.832L107.271 31.744H108.503ZM117.776 40.192C116.784 40.192 116.016 39.8987 115.472 39.312C114.928 38.7253 114.656 37.8667 114.656 36.736C114.656 36.0533 114.757 35.4027 114.96 34.784C115.173 34.1547 115.466 33.6 115.84 33.12C116.224 32.64 116.677 32.2613 117.2 31.984C117.733 31.696 118.325 31.552 118.976 31.552C119.328 31.552 119.664 31.6 119.984 31.696C120.304 31.7813 120.586 31.9147 120.832 32.096C121.077 32.2773 121.269 32.5067 121.408 32.784C121.557 33.0613 121.632 33.3867 121.632 33.76C121.632 34.6667 121.162 35.3387 120.224 35.776C119.296 36.2133 117.866 36.4427 115.936 36.464C115.914 36.5813 115.898 36.704 115.888 36.832C115.888 36.9493 115.888 37.0507 115.888 37.136C115.888 37.7227 116.053 38.1973 116.384 38.56C116.725 38.912 117.216 39.088 117.856 39.088C118.378 39.088 118.848 38.9707 119.264 38.736C119.69 38.4907 120.064 38.1707 120.384 37.776L121.184 38.496C120.672 39.1253 120.122 39.568 119.536 39.824C118.96 40.0693 118.373 40.192 117.776 40.192ZM118.848 32.608C118.528 32.608 118.218 32.6667 117.92 32.784C117.632 32.9013 117.37 33.0667 117.136 33.28C116.912 33.4827 116.714 33.7387 116.544 34.048C116.384 34.3467 116.266 34.6773 116.192 35.04L116.096 35.504C116.981 35.472 117.701 35.4187 118.256 35.344C118.81 35.2587 119.242 35.1467 119.552 35.008C119.872 34.8587 120.085 34.6827 120.192 34.48C120.309 34.2773 120.368 34.032 120.368 33.744C120.368 33.52 120.325 33.3387 120.24 33.2C120.154 33.0507 120.042 32.9333 119.904 32.848C119.765 32.7627 119.6 32.704 119.408 32.672C119.226 32.6293 119.04 32.608 118.848 32.608ZM124.763 28.16H125.995L124.907 33.536H124.955C125.297 32.8427 125.675 32.3413 126.091 32.032C126.507 31.712 127.019 31.552 127.627 31.552C128.385 31.552 128.993 31.8347 129.451 32.4C129.91 32.9547 130.139 33.7227 130.139 34.704C130.139 35.312 130.054 35.9413 129.883 36.592C129.723 37.232 129.478 37.824 129.147 38.368C128.817 38.9013 128.395 39.3387 127.883 39.68C127.382 40.0213 126.79 40.192 126.107 40.192C125.862 40.192 125.622 40.16 125.387 40.096C125.153 40.032 124.939 39.936 124.747 39.808C124.555 39.68 124.39 39.52 124.251 39.328C124.113 39.136 124.011 38.912 123.947 38.656H123.883L123.611 40H122.379L124.763 28.16ZM125.995 39.072C126.667 39.072 127.222 38.8533 127.659 38.416C128.097 37.9787 128.395 37.36 128.555 36.56L128.795 35.36C128.849 35.0613 128.875 34.7893 128.875 34.544C128.875 34 128.747 33.552 128.491 33.2C128.246 32.848 127.846 32.672 127.291 32.672C126.929 32.672 126.609 32.7467 126.331 32.896C126.065 33.0453 125.809 33.2427 125.563 33.488C125.297 33.7547 125.078 34.048 124.907 34.368C124.737 34.688 124.609 35.056 124.523 35.472L124.187 37.152C124.134 37.408 124.129 37.6533 124.171 37.888C124.214 38.1227 124.31 38.3307 124.459 38.512C124.609 38.6827 124.806 38.8213 125.051 38.928C125.307 39.024 125.622 39.072 125.995 39.072ZM134.624 40.192C133.632 40.192 132.864 39.8987 132.32 39.312C131.776 38.7253 131.504 37.8667 131.504 36.736C131.504 36.0533 131.605 35.4027 131.808 34.784C132.021 34.1547 132.314 33.6 132.688 33.12C133.072 32.64 133.525 32.2613 134.048 31.984C134.581 31.696 135.173 31.552 135.824 31.552C136.176 31.552 136.512 31.6 136.832 31.696C137.152 31.7813 137.434 31.9147 137.68 32.096C137.925 32.2773 138.117 32.5067 138.256 32.784C138.405 33.0613 138.48 33.3867 138.48 33.76C138.48 34.6667 138.01 35.3387 137.072 35.776C136.144 36.2133 134.714 36.4427 132.784 36.464C132.762 36.5813 132.746 36.704 132.736 36.832C132.736 36.9493 132.736 37.0507 132.736 37.136C132.736 37.7227 132.901 38.1973 133.232 38.56C133.573 38.912 134.064 39.088 134.704 39.088C135.226 39.088 135.696 38.9707 136.112 38.736C136.538 38.4907 136.912 38.1707 137.232 37.776L138.032 38.496C137.52 39.1253 136.97 39.568 136.384 39.824C135.808 40.0693 135.221 40.192 134.624 40.192ZM135.696 32.608C135.376 32.608 135.066 32.6667 134.768 32.784C134.48 32.9013 134.218 33.0667 133.984 33.28C133.76 33.4827 133.562 33.7387 133.392 34.048C133.232 34.3467 133.114 34.6773 133.04 35.04L132.944 35.504C133.829 35.472 134.549 35.4187 135.104 35.344C135.658 35.2587 136.09 35.1467 136.4 35.008C136.72 34.8587 136.933 34.6827 137.04 34.48C137.157 34.2773 137.216 34.032 137.216 33.744C137.216 33.52 137.173 33.3387 137.088 33.2C137.002 33.0507 136.89 32.9333 136.752 32.848C136.613 32.7627 136.448 32.704 136.256 32.672C136.074 32.6293 135.888 32.608 135.696 32.608ZM139.228 40L140.892 31.744H142.124L141.772 33.392H141.852C141.958 33.1893 142.086 32.992 142.236 32.8C142.385 32.5973 142.556 32.4213 142.748 32.272C142.95 32.112 143.18 31.984 143.436 31.888C143.692 31.792 143.99 31.744 144.332 31.744H144.844L144.604 33.008H144.028C143.644 33.008 143.302 33.0667 143.004 33.184C142.716 33.2907 142.465 33.44 142.252 33.632C142.038 33.824 141.862 34.048 141.724 34.304C141.596 34.5493 141.505 34.8107 141.452 35.088L140.46 40H139.228ZM144.816 40L146.48 31.744H147.712L147.36 33.392H147.44C147.546 33.1893 147.674 32.992 147.824 32.8C147.973 32.5973 148.144 32.4213 148.336 32.272C148.538 32.112 148.768 31.984 149.024 31.888C149.28 31.792 149.578 31.744 149.92 31.744H150.432L150.192 33.008H149.616C149.232 33.008 148.89 33.0667 148.592 33.184C148.304 33.2907 148.053 33.44 147.84 33.632C147.626 33.824 147.45 34.048 147.312 34.304C147.184 34.5493 147.093 34.8107 147.04 35.088L146.048 40H144.816ZM156.992 31.744H158.304L152.72 41.872C152.453 42.352 152.192 42.6933 151.936 42.896C151.691 43.0987 151.36 43.2 150.944 43.2H149.664L149.872 42.144H151.36L152.384 40.256L151.072 31.744H152.272L152.88 35.824L153.216 38.832H153.296L154.784 35.824L156.992 31.744ZM63.6994 62.192C63.1554 62.192 62.654 62.096 62.1954 61.904C61.7367 61.712 61.3367 61.4293 60.9954 61.056C60.6647 60.672 60.4034 60.208 60.2114 59.664C60.03 59.1093 59.9394 58.4693 59.9394 57.744C59.9394 56.7733 60.0674 55.8613 60.3234 55.008C60.5794 54.144 60.942 53.392 61.4114 52.752C61.8807 52.1013 62.446 51.5893 63.1074 51.216C63.7687 50.832 64.5047 50.64 65.3154 50.64C66.222 50.64 66.974 50.848 67.5714 51.264C68.1794 51.68 68.622 52.32 68.8994 53.184L67.7314 53.712C67.5287 53.0827 67.23 52.608 66.8354 52.288C66.4407 51.968 65.8914 51.808 65.1874 51.808C64.7607 51.808 64.3554 51.888 63.9714 52.048C63.598 52.208 63.2567 52.4373 62.9474 52.736C62.6487 53.024 62.3874 53.376 62.1634 53.792C61.95 54.1973 61.7954 54.656 61.6994 55.168L61.3314 57.008C61.2887 57.2107 61.262 57.3973 61.2514 57.568C61.2407 57.7387 61.2354 57.904 61.2354 58.064C61.2354 58.5013 61.294 58.9013 61.4114 59.264C61.5287 59.6267 61.694 59.9413 61.9074 60.208C62.1207 60.464 62.382 60.6667 62.6914 60.816C63.0114 60.9547 63.374 61.024 63.7794 61.024C64.1634 61.024 64.5047 60.976 64.8034 60.88C65.1127 60.784 65.3847 60.6507 65.6194 60.48C65.8647 60.2987 66.0834 60.08 66.2754 59.824C66.478 59.5573 66.67 59.264 66.8514 58.944L67.9394 59.488C67.4487 60.416 66.8674 61.0987 66.1954 61.536C65.5234 61.9733 64.6914 62.192 63.6994 62.192ZM72.2044 62.192C71.767 62.192 71.367 62.1227 71.0044 61.984C70.6417 61.8347 70.327 61.6213 70.0604 61.344C69.8044 61.056 69.6017 60.704 69.4524 60.288C69.303 59.8613 69.2284 59.3653 69.2284 58.8C69.2284 58.1067 69.3297 57.4453 69.5324 56.816C69.7457 56.176 70.039 55.616 70.4124 55.136C70.7857 54.656 71.2337 54.272 71.7564 53.984C72.279 53.696 72.855 53.552 73.4844 53.552C73.911 53.552 74.3057 53.6267 74.6684 53.776C75.0417 53.9147 75.3564 54.128 75.6124 54.416C75.879 54.6933 76.087 55.0453 76.2364 55.472C76.3857 55.8987 76.4604 56.3893 76.4604 56.944C76.4604 57.6373 76.3537 58.304 76.1404 58.944C75.9377 59.5733 75.6497 60.128 75.2764 60.608C74.903 61.088 74.455 61.472 73.9324 61.76C73.4097 62.048 72.8337 62.192 72.2044 62.192ZM72.3644 61.088C72.9617 61.088 73.495 60.8693 73.9644 60.432C74.4337 59.9947 74.7537 59.3547 74.9244 58.512L75.1644 57.312C75.2177 57.0453 75.2444 56.8053 75.2444 56.592C75.2444 56.016 75.079 55.552 74.7484 55.2C74.4284 54.8373 73.9537 54.656 73.3244 54.656C72.727 54.656 72.1937 54.8747 71.7244 55.312C71.255 55.7493 70.935 56.3893 70.7644 57.232L70.5244 58.432C70.471 58.6987 70.4444 58.9387 70.4444 59.152C70.4444 59.728 70.6044 60.1973 70.9244 60.56C71.255 60.912 71.735 61.088 72.3644 61.088ZM77.5773 62L79.2413 53.744H80.4733L80.1373 55.376H80.2173C80.5053 54.7573 80.8466 54.2987 81.2413 54C81.6466 53.7013 82.1479 53.552 82.7453 53.552C83.4599 53.552 83.9933 53.7547 84.3453 54.16C84.6973 54.5653 84.8733 55.1253 84.8733 55.84C84.8733 55.9893 84.8626 56.1547 84.8413 56.336C84.8306 56.5173 84.8039 56.7093 84.7613 56.912L83.9613 60.912H85.1293L84.9213 62H83.7533C83.4439 62 83.1933 61.9253 83.0013 61.776C82.8199 61.6267 82.7293 61.392 82.7293 61.072C82.7293 61.0187 82.7293 60.9707 82.7293 60.928C82.7293 60.8853 82.7399 60.8213 82.7613 60.736L83.5293 56.912C83.5613 56.752 83.5826 56.5973 83.5933 56.448C83.6039 56.288 83.6093 56.16 83.6093 56.064C83.6093 55.5947 83.5079 55.248 83.3053 55.024C83.1133 54.7893 82.7933 54.672 82.3453 54.672C81.7693 54.672 81.2626 54.8907 80.8253 55.328C80.5479 55.6053 80.3133 55.936 80.1213 56.32C79.9293 56.704 79.8013 57.0613 79.7373 57.392L78.8093 62H77.5773ZM89.1521 62.192C88.5121 62.192 87.9148 62.064 87.3601 61.808C86.8055 61.5413 86.3628 61.168 86.0321 60.688L86.8801 59.936C87.1681 60.32 87.4988 60.6133 87.8721 60.816C88.2455 61.0187 88.6721 61.12 89.1521 61.12C89.6961 61.12 90.1441 60.992 90.4961 60.736C90.8481 60.4693 91.0241 60.08 91.0241 59.568C91.0241 59.2907 90.9388 59.056 90.7681 58.864C90.6081 58.6613 90.2881 58.512 89.8081 58.416L89.1841 58.288C88.8748 58.224 88.5815 58.144 88.3041 58.048C88.0375 57.9413 87.8028 57.808 87.6001 57.648C87.4081 57.4773 87.2535 57.2747 87.1361 57.04C87.0295 56.7947 86.9761 56.5013 86.9761 56.16C86.9761 55.8187 87.0348 55.4933 87.1521 55.184C87.2801 54.864 87.4721 54.5867 87.7281 54.352C87.9841 54.1067 88.3041 53.9147 88.6881 53.776C89.0721 53.6267 89.5201 53.552 90.0321 53.552C90.6401 53.552 91.1628 53.6587 91.6001 53.872C92.0375 54.0747 92.4108 54.3733 92.7201 54.768L91.8721 55.52C91.6908 55.264 91.4455 55.0507 91.1361 54.88C90.8268 54.7093 90.4268 54.624 89.9361 54.624C89.3281 54.624 88.8801 54.7573 88.5921 55.024C88.3148 55.2907 88.1761 55.632 88.1761 56.048C88.1761 56.336 88.2561 56.576 88.4161 56.768C88.5868 56.9493 88.9068 57.088 89.3761 57.184L90.0001 57.312C90.3308 57.376 90.6295 57.4613 90.8961 57.568C91.1735 57.6747 91.4081 57.8133 91.6001 57.984C91.7921 58.1547 91.9415 58.3627 92.0481 58.608C92.1548 58.8533 92.2081 59.1467 92.2081 59.488C92.2081 59.904 92.1281 60.2827 91.9681 60.624C91.8188 60.9547 91.6055 61.2373 91.3281 61.472C91.0615 61.696 90.7415 61.872 90.3681 62C89.9948 62.128 89.5895 62.192 89.1521 62.192ZM96.4754 53.744L95.4514 58.832C95.4194 58.992 95.398 59.152 95.3874 59.312C95.3767 59.4613 95.3714 59.584 95.3714 59.68C95.3714 60.1387 95.462 60.4853 95.6434 60.72C95.8354 60.9547 96.1554 61.072 96.6034 61.072C97.1687 61.072 97.6647 60.8533 98.0914 60.416C98.39 60.1067 98.63 59.7653 98.8114 59.392C98.9927 59.008 99.1154 58.6613 99.1794 58.352L100.107 53.744H101.339L99.8994 60.912H101.067L100.859 62H99.7394C99.3874 62 99.1207 61.9093 98.9394 61.728C98.7687 61.536 98.6834 61.2907 98.6834 60.992C98.6834 60.8853 98.7047 60.7307 98.7474 60.528L98.7794 60.368H98.6994C98.4114 60.9973 98.07 61.4613 97.6754 61.76C97.2807 62.048 96.7954 62.192 96.2194 62.192C95.5154 62.192 94.9874 61.9893 94.6354 61.584C94.2834 61.1787 94.1074 60.6187 94.1074 59.904C94.1074 59.7547 94.1127 59.5893 94.1234 59.408C94.1447 59.2267 94.1767 59.0347 94.2194 58.832L95.2434 53.744H96.4754ZM103.78 62C103.406 62 103.124 61.9093 102.932 61.728C102.75 61.536 102.66 61.2907 102.66 60.992C102.66 60.896 102.676 60.768 102.708 60.608L104.804 50.16H106.036L103.876 60.912H105.124L104.916 62H103.78ZM107.999 62C107.625 62 107.343 61.9093 107.151 61.728C106.969 61.536 106.879 61.2907 106.879 60.992C106.879 60.896 106.895 60.768 106.927 60.608L108.095 54.832H106.879L107.087 53.744H107.711C108.009 53.744 108.207 53.6853 108.303 53.568C108.409 53.4507 108.489 53.248 108.543 52.96L108.847 51.456H109.983L109.535 53.744H111.279L111.071 54.832H109.327L108.095 60.912H109.711L109.503 62H107.999ZM117.621 62C117.259 62 116.987 61.9093 116.805 61.728C116.635 61.5467 116.549 61.3067 116.549 61.008C116.549 60.88 116.565 60.736 116.597 60.576L116.677 60.208H116.629C116.288 60.9013 115.909 61.408 115.493 61.728C115.077 62.0373 114.565 62.192 113.957 62.192C113.2 62.192 112.592 61.9147 112.133 61.36C111.675 60.7947 111.445 60.0213 111.445 59.04C111.445 58.432 111.525 57.808 111.685 57.168C111.856 56.5173 112.107 55.9253 112.437 55.392C112.768 54.848 113.184 54.4053 113.685 54.064C114.197 53.7227 114.795 53.552 115.477 53.552C115.723 53.552 115.963 53.584 116.197 53.648C116.432 53.712 116.645 53.808 116.837 53.936C117.029 54.064 117.195 54.224 117.333 54.416C117.472 54.608 117.573 54.832 117.637 55.088H117.701L117.973 53.744H119.205L117.765 60.912H118.933L118.725 62H117.621ZM114.277 61.072C114.64 61.072 114.96 61.0027 115.237 60.864C115.515 60.7147 115.776 60.512 116.021 60.256C116.299 59.9787 116.517 59.68 116.677 59.36C116.848 59.04 116.976 58.6773 117.061 58.272L117.397 56.592C117.451 56.336 117.456 56.096 117.413 55.872C117.371 55.6373 117.275 55.4347 117.125 55.264C116.976 55.0827 116.773 54.9387 116.517 54.832C116.261 54.7253 115.952 54.672 115.589 54.672C114.917 54.672 114.363 54.8907 113.925 55.328C113.488 55.7653 113.189 56.384 113.029 57.184L112.789 58.384C112.736 58.6827 112.709 58.9547 112.709 59.2C112.709 59.7653 112.843 60.2187 113.109 60.56C113.376 60.9013 113.765 61.072 114.277 61.072ZM120.293 62L121.957 53.744H123.189L122.853 55.376H122.933C123.221 54.7573 123.563 54.2987 123.957 54C124.363 53.7013 124.864 53.552 125.461 53.552C126.176 53.552 126.709 53.7547 127.061 54.16C127.413 54.5653 127.589 55.1253 127.589 55.84C127.589 55.9893 127.579 56.1547 127.557 56.336C127.547 56.5173 127.52 56.7093 127.477 56.912L126.677 60.912H127.845L127.637 62H126.469C126.16 62 125.909 61.9253 125.717 61.776C125.536 61.6267 125.445 61.392 125.445 61.072C125.445 61.0187 125.445 60.9707 125.445 60.928C125.445 60.8853 125.456 60.8213 125.477 60.736L126.245 56.912C126.277 56.752 126.299 56.5973 126.309 56.448C126.32 56.288 126.325 56.16 126.325 56.064C126.325 55.5947 126.224 55.248 126.021 55.024C125.829 54.7893 125.509 54.672 125.061 54.672C124.485 54.672 123.979 54.8907 123.541 55.328C123.264 55.6053 123.029 55.936 122.837 56.32C122.645 56.704 122.517 57.0613 122.453 57.392L121.525 62H120.293ZM130.7 62C130.327 62 130.044 61.9093 129.852 61.728C129.671 61.536 129.58 61.2907 129.58 60.992C129.58 60.896 129.596 60.768 129.628 60.608L130.796 54.832H129.58L129.788 53.744H130.412C130.711 53.744 130.908 53.6853 131.004 53.568C131.111 53.4507 131.191 53.248 131.244 52.96L131.548 51.456H132.684L132.236 53.744H133.98L133.772 54.832H132.028L130.796 60.912H132.412L132.204 62H130.7ZM136.753 62.192C136.113 62.192 135.516 62.064 134.961 61.808C134.407 61.5413 133.964 61.168 133.633 60.688L134.481 59.936C134.769 60.32 135.1 60.6133 135.473 60.816C135.847 61.0187 136.273 61.12 136.753 61.12C137.297 61.12 137.745 60.992 138.097 60.736C138.449 60.4693 138.625 60.08 138.625 59.568C138.625 59.2907 138.54 59.056 138.369 58.864C138.209 58.6613 137.889 58.512 137.409 58.416L136.785 58.288C136.476 58.224 136.183 58.144 135.905 58.048C135.639 57.9413 135.404 57.808 135.201 57.648C135.009 57.4773 134.855 57.2747 134.737 57.04C134.631 56.7947 134.577 56.5013 134.577 56.16C134.577 55.8187 134.636 55.4933 134.753 55.184C134.881 54.864 135.073 54.5867 135.329 54.352C135.585 54.1067 135.905 53.9147 136.289 53.776C136.673 53.6267 137.121 53.552 137.633 53.552C138.241 53.552 138.764 53.6587 139.201 53.872C139.639 54.0747 140.012 54.3733 140.321 54.768L139.473 55.52C139.292 55.264 139.047 55.0507 138.737 54.88C138.428 54.7093 138.028 54.624 137.537 54.624C136.929 54.624 136.481 54.7573 136.193 55.024C135.916 55.2907 135.777 55.632 135.777 56.048C135.777 56.336 135.857 56.576 136.017 56.768C136.188 56.9493 136.508 57.088 136.977 57.184L137.601 57.312C137.932 57.376 138.231 57.4613 138.497 57.568C138.775 57.6747 139.009 57.8133 139.201 57.984C139.393 58.1547 139.543 58.3627 139.649 58.608C139.756 58.8533 139.809 59.1467 139.809 59.488C139.809 59.904 139.729 60.2827 139.569 60.624C139.42 60.9547 139.207 61.2373 138.929 61.472C138.663 61.696 138.343 61.872 137.969 62C137.596 62.128 137.191 62.192 136.753 62.192Z" fill="white"/>
</g>
<defs>
<clipPath id="clip0_828_98">
<rect width="200" height="70" fill="white"/>
</clipPath>
</defs>
</svg>
