<svg xmlns="http://www.w3.org/2000/svg" xmlns:xlink="http://www.w3.org/1999/xlink" viewBox="0 0 1521 1027.97"><defs><style>.cls-1{isolation:isolate;}.cls-2{fill:#ebeff2;}.cls-13,.cls-3{fill:#d8dee8;}.cls-4{fill:#3cc;}.cls-15,.cls-16,.cls-23,.cls-27,.cls-28,.cls-5,.cls-7,.cls-8,.cls-9{fill:#fff;}.cls-5{mix-blend-mode:screen;opacity:0.16;}.cls-18,.cls-35,.cls-6{fill:#25b5df;}.cls-7{opacity:0.74;}.cls-9{opacity:0.25;}.cls-10{fill:url(#linear-gradient);}.cls-11{fill:#97a6b7;}.cls-12{fill:url(#linear-gradient-2);}.cls-112,.cls-13,.cls-25,.cls-60,.cls-66,.cls-67,.cls-70,.cls-97{mix-blend-mode:multiply;}.cls-112,.cls-13,.cls-25,.cls-60,.cls-66,.cls-67,.cls-97{opacity:0.3;}.cls-14{fill:url(#linear-gradient-3);}.cls-15,.cls-16,.cls-23,.cls-82{mix-blend-mode:soft-light;}.cls-15{opacity:0.6;}.cls-16{opacity:0.36;}.cls-17,.cls-59,.cls-60,.cls-70{fill:#0283f0;}.cls-17,.cls-18,.cls-19,.cls-21,.cls-22{opacity:0.5;}.cls-19{fill:url(#linear-gradient-4);}.cls-20{fill:url(#linear-gradient-5);}.cls-21{fill:url(#linear-gradient-6);}.cls-22{fill:url(#linear-gradient-7);}.cls-24{fill:url(#_24);}.cls-26{fill:url(#linear-gradient-8);}.cls-27{opacity:0.68;}.cls-28{opacity:0.38;}.cls-29{fill:#09f;}.cls-30{fill:url(#linear-gradient-9);}.cls-31{fill:url(#linear-gradient-10);}.cls-32{fill:url(#linear-gradient-11);}.cls-33{fill:#999;}.cls-34{fill:#c2c2c2;}.cls-35{opacity:0.57;}.cls-36,.cls-37,.cls-38,.cls-39,.cls-40{opacity:0.7;}.cls-36{fill:url(#linear-gradient-12);}.cls-37{fill:url(#linear-gradient-13);}.cls-38{fill:url(#linear-gradient-14);}.cls-39{fill:url(#linear-gradient-15);}.cls-40{fill:url(#linear-gradient-16);}.cls-41{fill:url(#linear-gradient-17);}.cls-42{fill:url(#_24-2);}.cls-43{fill:url(#linear-gradient-18);}.cls-44{fill:url(#linear-gradient-19);}.cls-45{fill:url(#linear-gradient-20);}.cls-46{fill:url(#linear-gradient-21);}.cls-47{fill:url(#linear-gradient-22);}.cls-48{fill:url(#_24-3);}.cls-49{fill:url(#linear-gradient-23);}.cls-50{fill:url(#linear-gradient-24);}.cls-51{fill:#26264f;}.cls-52{fill:url(#linear-gradient-25);}.cls-53{fill:#9b305e;}.cls-54{fill:url(#_24-4);}.cls-55{fill:url(#linear-gradient-26);}.cls-56{fill:url(#linear-gradient-27);}.cls-57{fill:url(#linear-gradient-28);}.cls-58{fill:url(#linear-gradient-29);}.cls-61{fill:url(#linear-gradient-30);}.cls-62{fill:url(#linear-gradient-31);}.cls-63{fill:url(#linear-gradient-32);}.cls-64{fill:url(#linear-gradient-33);}.cls-65{fill:url(#linear-gradient-34);}.cls-66{fill:url(#linear-gradient-35);}.cls-67{fill:url(#linear-gradient-36);}.cls-68{fill:url(#linear-gradient-37);}.cls-69{fill:url(#linear-gradient-38);}.cls-71{fill:url(#linear-gradient-39);}.cls-72{fill:url(#linear-gradient-40);}.cls-73{fill:url(#linear-gradient-41);}.cls-74{fill:url(#linear-gradient-42);}.cls-75{fill:url(#linear-gradient-43);}.cls-76{fill:url(#linear-gradient-44);}.cls-77{fill:url(#linear-gradient-45);}.cls-78{fill:url(#linear-gradient-46);}.cls-79{fill:url(#linear-gradient-47);}.cls-80{fill:url(#linear-gradient-48);}.cls-81{fill:url(#linear-gradient-49);}.cls-82{opacity:0.49;}.cls-83{fill:url(#linear-gradient-50);}.cls-84{fill:url(#linear-gradient-51);}.cls-85{fill:url(#linear-gradient-52);}.cls-86{fill:url(#linear-gradient-53);}.cls-87{fill:url(#linear-gradient-54);}.cls-88{fill:url(#linear-gradient-55);}.cls-89{fill:#444b8c;}.cls-90{fill:url(#linear-gradient-56);}.cls-91{fill:url(#linear-gradient-57);}.cls-92{fill:url(#linear-gradient-58);}.cls-93{fill:url(#linear-gradient-59);}.cls-94{fill:url(#linear-gradient-60);}.cls-95{fill:url(#linear-gradient-61);}.cls-96{fill:url(#linear-gradient-62);}.cls-97{fill:url(#linear-gradient-63);}.cls-98{fill:url(#linear-gradient-64);}.cls-99{fill:url(#linear-gradient-65);}.cls-100{fill:url(#linear-gradient-66);}.cls-101{fill:url(#linear-gradient-67);}.cls-102{fill:url(#linear-gradient-68);}.cls-103{fill:url(#linear-gradient-69);}.cls-104{fill:url(#linear-gradient-70);}.cls-105{fill:url(#linear-gradient-71);}.cls-106{fill:url(#linear-gradient-72);}.cls-107{fill:url(#linear-gradient-73);}.cls-108{fill:url(#linear-gradient-74);}.cls-109{fill:url(#linear-gradient-75);}.cls-110{fill:url(#linear-gradient-76);}.cls-111{fill:url(#linear-gradient-77);}.cls-112{fill:url(#linear-gradient-78);}.cls-113{fill:url(#linear-gradient-79);}</style><linearGradient id="linear-gradient" x1="112.72" y1="207.33" x2="85.7" y2="364.43" gradientUnits="userSpaceOnUse"><stop offset="0" stop-color="#ffc444"/><stop offset="1" stop-color="#f36f56"/></linearGradient><linearGradient id="linear-gradient-2" x1="800.25" y1="734.44" x2="800.25" y2="831.33" gradientUnits="userSpaceOnUse"><stop offset="0.49" stop-color="#ebeff2"/><stop offset="1" stop-color="#fff"/></linearGradient><linearGradient id="linear-gradient-3" x1="534.66" y1="32.82" x2="946.57" y2="788.31" gradientUnits="userSpaceOnUse"><stop offset="0" stop-color="#444b8c"/><stop offset="1" stop-color="#26264f"/></linearGradient><linearGradient id="linear-gradient-4" x1="795.06" y1="605.99" x2="963.95" y2="605.99" gradientUnits="userSpaceOnUse"><stop offset="0" stop-color="#ff9085"/><stop offset="1" stop-color="#fb6fbb"/></linearGradient><linearGradient id="linear-gradient-5" x1="808.47" y1="189.87" x2="861.32" y2="511.97" gradientUnits="userSpaceOnUse"><stop offset="0" stop-color="#e38ddd"/><stop offset="1" stop-color="#9571f6"/></linearGradient><linearGradient id="linear-gradient-6" x1="752.49" y1="505.92" x2="907.33" y2="505.92" xlink:href="#linear-gradient-4"/><linearGradient id="linear-gradient-7" x1="752.49" y1="522.91" x2="907.33" y2="522.91" xlink:href="#linear-gradient-4"/><linearGradient id="_24" x1="1014.74" y1="792.06" x2="944.12" y2="268.81" gradientUnits="userSpaceOnUse"><stop offset="0" stop-color="#53d8ff"/><stop offset="0.75" stop-color="#3840f7"/></linearGradient><linearGradient id="linear-gradient-8" x1="744.19" y1="430.4" x2="1197.46" y2="430.4" xlink:href="#linear-gradient"/><linearGradient id="linear-gradient-9" x1="1072.47" y1="590.57" x2="963.67" y2="760.85" xlink:href="#linear-gradient-3"/><linearGradient id="linear-gradient-10" x1="1085.74" y1="429.75" x2="952.17" y2="686.82" xlink:href="#linear-gradient-3"/><linearGradient id="linear-gradient-11" x1="962.64" y1="530.65" x2="959.29" y2="859.31" gradientUnits="userSpaceOnUse"><stop offset="0" stop-color="#aa80f9"/><stop offset="1" stop-color="#6165d7"/></linearGradient><linearGradient id="linear-gradient-12" x1="478.67" y1="275.52" x2="428.22" y2="432.47" xlink:href="#linear-gradient-4"/><linearGradient id="linear-gradient-13" x1="491.15" y1="278.54" x2="439.88" y2="438.04" xlink:href="#linear-gradient-4"/><linearGradient id="linear-gradient-14" x1="512.63" y1="284.52" x2="460.77" y2="445.86" xlink:href="#linear-gradient-4"/><linearGradient id="linear-gradient-15" x1="526.44" y1="288.18" x2="473.76" y2="452.08" xlink:href="#linear-gradient-4"/><linearGradient id="linear-gradient-16" x1="549.42" y1="294.58" x2="496.16" y2="460.27" xlink:href="#linear-gradient-4"/><linearGradient id="linear-gradient-17" x1="1017.87" y1="355.79" x2="1041.58" y2="385.62" gradientTransform="matrix(-1, 0, 0, 1, 1463.72, 0)" xlink:href="#linear-gradient"/><linearGradient id="_24-2" x1="1121.78" y1="402.32" x2="1137.93" y2="337.73" gradientTransform="matrix(-1, 0, 0, 1, 1463.72, 0)" xlink:href="#_24"/><linearGradient id="linear-gradient-18" x1="1268.91" y1="543.6" x2="1276.57" y2="550.41" gradientTransform="matrix(-0.99, -0.14, -0.14, 0.99, 1659.1, 191.33)" xlink:href="#linear-gradient-3"/><linearGradient id="linear-gradient-19" x1="351.02" y1="550.4" x2="351.02" y2="537.06" gradientTransform="matrix(-0.99, -0.14, -0.14, 0.99, 742.9, 61.81)" xlink:href="#linear-gradient"/><linearGradient id="linear-gradient-20" x1="1269.68" y1="542.73" x2="1277.34" y2="549.54" gradientTransform="matrix(-0.99, -0.14, -0.14, 0.99, 1659.1, 191.33)" xlink:href="#linear-gradient-3"/><linearGradient id="linear-gradient-21" x1="1082.98" y1="556.19" x2="1090.64" y2="563" gradientTransform="matrix(-1, 0, 0, 1, 1463.72, 0)" xlink:href="#linear-gradient-3"/><linearGradient id="linear-gradient-22" x1="165.05" y1="563.01" x2="165.05" y2="549.67" gradientTransform="matrix(-1, 0, 0, 1, 538.41, 0)" xlink:href="#linear-gradient"/><linearGradient id="_24-3" x1="1157.16" y1="413.13" x2="1049.94" y2="338.56" gradientTransform="matrix(-1, 0, 0, 1, 1463.72, 0)" xlink:href="#_24"/><linearGradient id="linear-gradient-23" x1="1083.75" y1="555.32" x2="1091.41" y2="562.13" gradientTransform="matrix(-1, 0, 0, 1, 1463.72, 0)" xlink:href="#linear-gradient-3"/><linearGradient id="linear-gradient-24" x1="353.38" y1="338.29" x2="369.31" y2="307.18" xlink:href="#linear-gradient"/><linearGradient id="linear-gradient-25" x1="1092.26" y1="311.75" x2="1133.75" y2="363.94" gradientTransform="matrix(-1, 0, 0, 1, 1463.72, 0)" xlink:href="#linear-gradient"/><linearGradient id="_24-4" x1="1156.03" y1="425.77" x2="1035.33" y2="341.83" gradientTransform="matrix(-1, 0, 0, 1, 1463.72, 0)" xlink:href="#_24"/><linearGradient id="linear-gradient-26" x1="411.8" y1="1053.13" x2="415.29" y2="1097.53" gradientTransform="matrix(-1, 0.09, 0.09, 1, 647.77, -131.57)" gradientUnits="userSpaceOnUse"><stop offset="0" stop-color="#311944"/><stop offset="1" stop-color="#a03976"/></linearGradient><linearGradient id="linear-gradient-27" x1="420.81" y1="1077.85" x2="420.17" y2="1031.86" gradientTransform="matrix(-1, 0.09, 0.09, 1, 647.77, -131.57)" xlink:href="#linear-gradient"/><linearGradient id="linear-gradient-28" x1="477.73" y1="1047.95" x2="481.22" y2="1092.35" xlink:href="#linear-gradient-26"/><linearGradient id="linear-gradient-29" x1="481.23" y1="1077.01" x2="480.59" y2="1031.03" gradientTransform="matrix(-1, 0.09, 0.09, 1, 647.77, -131.57)" xlink:href="#linear-gradient"/><linearGradient id="linear-gradient-30" x1="302.12" y1="765.39" x2="260.48" y2="880.43" xlink:href="#linear-gradient-3"/><linearGradient id="linear-gradient-31" x1="252.07" y1="747.27" x2="210.43" y2="862.32" xlink:href="#linear-gradient-3"/><linearGradient id="linear-gradient-32" x1="3044.99" y1="1023.97" x2="3044.99" y2="996.49" gradientTransform="matrix(-0.81, 0.59, 0.59, 0.81, 2119.69, -1856.89)" xlink:href="#linear-gradient"/><linearGradient id="linear-gradient-33" x1="1445.87" y1="1692.87" x2="1434.2" y2="1663.24" gradientTransform="matrix(-0.99, 0.14, 0.14, 0.99, 1463.55, -1109.55)" gradientUnits="userSpaceOnUse"><stop offset="0" stop-color="#444b8c"/><stop offset="1" stop-color="#3e4177"/></linearGradient><linearGradient id="linear-gradient-34" x1="3025.58" y1="1016.05" x2="3038.42" y2="991.07" gradientTransform="matrix(-0.81, 0.59, 0.59, 0.81, 2119.69, -1856.89)" xlink:href="#linear-gradient"/><linearGradient id="linear-gradient-35" x1="-735.48" y1="1155.86" x2="-635.18" y2="1155.86" gradientTransform="translate(480.5 -494.39) rotate(-21.32)" xlink:href="#linear-gradient"/><linearGradient id="linear-gradient-36" x1="-640.87" y1="1168.22" x2="-594.59" y2="1168.22" gradientTransform="translate(471.34 -504.93) rotate(-21.67)" xlink:href="#linear-gradient"/><linearGradient id="linear-gradient-37" x1="-1972.75" y1="1092.53" x2="-1970.01" y2="1077.02" gradientTransform="matrix(0.81, -0.59, 0.59, 0.81, 1195.1, -1178.96)" xlink:href="#linear-gradient"/><linearGradient id="linear-gradient-38" x1="359.93" y1="786.58" x2="358.21" y2="862.99" xlink:href="#linear-gradient"/><linearGradient id="linear-gradient-39" x1="432.63" y1="729.48" x2="632.8" y2="729.48" gradientUnits="userSpaceOnUse"><stop offset="0" stop-color="#d8dee8"/><stop offset="0.49" stop-color="#ebeff2"/><stop offset="1" stop-color="#fff"/></linearGradient><linearGradient id="linear-gradient-40" x1="440.92" y1="676.13" x2="485.3" y2="676.13" gradientUnits="userSpaceOnUse"><stop offset="0" stop-color="#311944"/><stop offset="1" stop-color="#893976"/></linearGradient><linearGradient id="linear-gradient-41" x1="625.32" y1="649.53" x2="583.8" y2="665.21" xlink:href="#linear-gradient-40"/><linearGradient id="linear-gradient-42" x1="433.09" y1="731.36" x2="473.07" y2="712.09" xlink:href="#linear-gradient-40"/><linearGradient id="linear-gradient-43" x1="461.36" y1="789.78" x2="482.47" y2="750.74" xlink:href="#linear-gradient-40"/><linearGradient id="linear-gradient-44" x1="2336.64" y1="1044.7" x2="2298.32" y2="1022.31" gradientTransform="matrix(0.85, -0.53, 0.53, 0.85, -1898.31, 1033.21)" xlink:href="#linear-gradient-40"/><linearGradient id="linear-gradient-45" x1="622" y1="771.3" x2="589.03" y2="741.59" xlink:href="#linear-gradient-40"/><linearGradient id="linear-gradient-46" x1="536.91" y1="661.91" x2="535.6" y2="792.52" xlink:href="#linear-gradient-40"/><linearGradient id="linear-gradient-47" x1="557.56" y1="571.9" x2="547.06" y2="621.78" xlink:href="#linear-gradient"/><linearGradient id="linear-gradient-48" x1="526.34" y1="717.12" x2="599.85" y2="751.25" xlink:href="#linear-gradient"/><linearGradient id="linear-gradient-49" x1="499.98" y1="661.54" x2="498.67" y2="792.15" xlink:href="#linear-gradient"/><linearGradient id="linear-gradient-50" x1="585.24" y1="650.83" x2="587.82" y2="417.75" xlink:href="#linear-gradient"/><linearGradient id="linear-gradient-51" x1="483.31" y1="649.7" x2="485.89" y2="416.62" xlink:href="#linear-gradient"/><linearGradient id="linear-gradient-52" x1="432.63" y1="729.76" x2="632.8" y2="729.76" xlink:href="#linear-gradient-39"/><linearGradient id="linear-gradient-53" x1="786.93" y1="682.19" x2="788.84" y2="708.45" gradientTransform="matrix(1, -0.01, 0.01, 1, -49.75, -2.16)" xlink:href="#linear-gradient-40"/><linearGradient id="linear-gradient-54" x1="762.31" y1="635.66" x2="764.71" y2="668.66" xlink:href="#linear-gradient-40"/><linearGradient id="linear-gradient-55" x1="904.66" y1="887.87" x2="911.34" y2="930" xlink:href="#linear-gradient-40"/><linearGradient id="linear-gradient-56" x1="861.76" y1="829.84" x2="919.37" y2="829.84" xlink:href="#linear-gradient-3"/><linearGradient id="linear-gradient-57" x1="861.76" y1="829.84" x2="913.9" y2="829.84" xlink:href="#linear-gradient-3"/><linearGradient id="linear-gradient-58" x1="880.9" y1="887.91" x2="888.86" y2="938.11" xlink:href="#linear-gradient-40"/><linearGradient id="linear-gradient-59" x1="843.44" y1="830.48" x2="892.83" y2="830.48" xlink:href="#linear-gradient-3"/><linearGradient id="linear-gradient-60" x1="820.02" y1="692.98" x2="822.44" y2="711.94" xlink:href="#linear-gradient-40"/><linearGradient id="linear-gradient-61" x1="1675.46" y1="689.8" x2="1673.44" y2="665.62" gradientTransform="matrix(-1, 0, 0, 1, 2492.15, 0)" gradientUnits="userSpaceOnUse"><stop offset="0" stop-color="#26264f"/><stop offset="1" stop-color="#444b8c"/></linearGradient><linearGradient id="linear-gradient-62" x1="1662.93" y1="674.09" x2="1681.56" y2="693.74" gradientTransform="matrix(-1, 0, 0, 1, 2492.15, 0)" xlink:href="#linear-gradient-40"/><linearGradient id="linear-gradient-63" x1="752.58" y1="751.4" x2="910.88" y2="751.4" xlink:href="#linear-gradient-11"/><linearGradient id="linear-gradient-64" x1="1178.16" y1="677.63" x2="1192.21" y2="677.63" xlink:href="#linear-gradient"/><linearGradient id="linear-gradient-65" x1="1222.56" y1="651.19" x2="1226.91" y2="731.08" xlink:href="#linear-gradient"/><linearGradient id="linear-gradient-66" x1="731.33" y1="515.91" x2="1186.65" y2="515.91" xlink:href="#linear-gradient-3"/><linearGradient id="linear-gradient-67" x1="1158.42" y1="935.12" x2="1162.77" y2="904.96" xlink:href="#linear-gradient-3"/><linearGradient id="linear-gradient-68" x1="1168.84" y1="918.48" x2="1185.55" y2="843.07" xlink:href="#linear-gradient"/><linearGradient id="linear-gradient-69" x1="1250.71" y1="848.81" x2="1166.75" y2="870.82" xlink:href="#linear-gradient-3"/><linearGradient id="linear-gradient-70" x1="1250" y1="846.1" x2="1166.04" y2="868.11" xlink:href="#linear-gradient-3"/><linearGradient id="linear-gradient-71" x1="1174.28" y1="680.94" x2="1181.61" y2="680.94" xlink:href="#linear-gradient"/><linearGradient id="linear-gradient-72" x1="1109.11" y1="928.01" x2="1113.46" y2="897.85" xlink:href="#linear-gradient-3"/><linearGradient id="linear-gradient-73" x1="1120.9" y1="907.86" x2="1137.61" y2="832.45" xlink:href="#linear-gradient"/><linearGradient id="linear-gradient-74" x1="1206.5" y1="860.89" x2="1120.09" y2="848.93" xlink:href="#linear-gradient-3"/><linearGradient id="linear-gradient-75" x1="2685.64" y1="1058.27" x2="2669.75" y2="1083.98" gradientTransform="matrix(-0.93, -0.37, -0.37, 0.93, 4135.27, 720.62)" xlink:href="#linear-gradient"/><linearGradient id="linear-gradient-76" x1="1251.7" y1="764.32" x2="1398.53" y2="764.32" xlink:href="#linear-gradient-40"/><linearGradient id="linear-gradient-77" x1="1244.8" y1="732.55" x2="1226.87" y2="837.98" xlink:href="#linear-gradient"/><linearGradient id="linear-gradient-78" x1="1182.53" y1="779.06" x2="1298.68" y2="779.06" xlink:href="#linear-gradient-4"/><linearGradient id="linear-gradient-79" x1="872.78" y1="255.53" x2="961.98" y2="255.53" xlink:href="#linear-gradient-3"/></defs><g class="cls-1"><g id="Слой_2" data-name="Слой 2"><g id="Illustration"><path class="cls-2" d="M686.33,798c-112.35,3.58-193,13.19-295.75,25.72C303.9,834.28-1.27,871.45,0,904.08c1.07,27.27,215.48,35.21,215.38,64.3,0,15.37-60,21.51-59.47,32.14.89,17.74,169.4,34.86,377.72,24.11,205.47-10.6,244.31-37.72,482.2-65.9,306.82-36.34,463.76-17.46,466.12-41.79,3-30.73-244.91-86-450-107.69C998.73,805.74,864.51,792.32,686.33,798Z"/><path class="cls-3" d="M694.37,814.07C669.4,817.68,631.6,824.85,569,831c-27.49,2.68-91.92,8.27-159.12,14.47-47.51,4.37-73.84,7-73.94,11.25-.16,7.35,77.26,11.79,77.15,17.68-.21,11.79-311.16,1.86-314.23,31.34-1.51,14.56,72.34,36.08,131,45.81,91.5,15.17,161.93,4.26,276.46-14.47,214.07-35,207.84-35.69,261.19-43.4,221.11-31.92,327-20,327.89-33.75C1096.69,839.57,868.11,789,694.37,814.07Z"/><path class="cls-3" d="M372.1,970c-5-19-133.12-11.86-135.82,7.24-1.54,10.85,36.6,31.54,74.74,27.32C342.83,1001,374.77,980.16,372.1,970Z"/><path class="cls-3" d="M945.11,910.51c-46.67-13.52-103.34-.91-103.67,11.25-.3,10.68,42.76,23.55,80.36,20.09,20.64-1.89,47.39-9.42,47.42-17.68C969.24,917.5,951.82,912.46,945.11,910.51Z"/><path class="cls-3" d="M1154.86,900.06c-49.53-4-103,7.52-102.87,16.88.17,9.58,56.5,18.14,105.28,14.47,21.92-1.65,58.51-7,58.67-14.47C1216.09,909.67,1181.72,902.24,1154.86,900.06Z"/><path class="cls-4" d="M1207.08,838.51c-15.2-5.26-40.79-14.12-58.69-38.68-32.54-44.64-18.54-112.18,7-154.52,21.95-36.36,60.89-59,138.77-104.44,73.35-42.74,98-47,105.16-74.57,10.21-39.23-29.56-70.18-10.79-114.17,2.26-5.27,10-23.4,27.06-29.69,29.22-10.77,65.26,20.71,81.83,43.55,16,22,32.59,61.89,17.82,93.05-10.7,22.58-28.77,21.41-33.4,42.38s12.25,28.63,18.88,63.87c2.65,14.08,8,42.34-5.28,66-17.13,30.59-49.81,25.77-56.75,51.48-5,18.57,10.4,27.16,9.24,48.83-1.53,28.54-30.11,48.44-54.12,64.68C1365.57,815.39,1289.31,867,1207.08,838.51Z"/><path class="cls-5" d="M1426.18,335c-15.73,10.76,29.11,59.57,15.84,123.41-14.28,68.69-87.11,112.89-120.77,133.31-57.43,34.84-81.69,27.17-118.79,66.65-14.68,15.63-45.26,48.18-42.23,93.71.28,4.23,4.12,51.35,40.25,73.91,41,25.6,92.35.15,136.61-21.77,26.74-13.25,80.17-39.72,76.55-69.3-2.21-18.08-25.22-33.16-44.22-37.61-27.1-6.37-49.72,8-52.13,3.3-2.17-4.27,14.08-20.06,36.3-31.68,44.43-23.24,67.27-6,100.31-27.72,4-2.63,35.42-23.91,36.29-56.75.5-18.94-9.14-42.21-24.42-46.2-17.27-4.5-34.28,17.61-38.27,13.86-3.82-3.58,9.42-26,25.74-46.19,24-29.71,34.61-30,43.55-48.84,13.64-28.77,3.5-59,2-63.35C1484.53,353.16,1439.63,325.78,1426.18,335Z"/><path class="cls-6" d="M1216.83,850.9c-8,9.31-68.27-.68-102-32.32-6.75-6.34-18.94-17.78-21.64-34.39-3.3-20.27,11.28-25.24,9.5-46.94-1.64-19.9-14.27-20.15-17-44.71-1-9.21-3.11-27.92,11.15-37.62,8.27-5.63,15-3.41,18.86-8.58,7-9.25-12.54-19-12.85-38.33-.17-10.48,5.63-18.29,17.23-33.92,10.56-14.23,16.51-22.24,27.34-24.1,15.88-2.73,24.44,10.86,35.15,7.92,17.32-4.76,1.84-42.2,27.19-59.35,16.16-10.94,40.49-7.92,44.82-7.3,46.74,6.59,87.11,60.13,72.88,97-11.22,29.07-52.23,37.05-50.59,66.65.58,10.28,5.85,15.27,3.43,28.38-3.11,16.91-15.61,28.78-22.29,35-25.29,23.46-48.35,22-52.29,37.62-2.49,9.86,6.34,11.76,5.38,27.66-.88,14.54-8.5,17-9.67,29.09C1199.35,834.34,1222.25,844.59,1216.83,850.9Z"/><path class="cls-5" d="M1285.83,515.42c16.6,4.58,27.38,25.36,29.7,40.92,3.31,22.27-8.71,47.28-27.72,59.39-29.56,18.84-62.38-2.24-75.23,15.84-6.78,9.54-5.17,26,2.64,33.66,13.73,13.52,42.45-4.09,50.15,6.6,5.51,7.64-1.92,26.73-15.18,37.61-26.49,21.75-68.08,4-73.25,17.16-1.22,3.11,3.81,12.63,13.86,31.68,7.59,14.38,9.2,15.82,9.24,20.46.11,14-14.51,17.26-15.84,31-1.54,15.86,16.42,27,13.86,30.36-2.68,3.48-25.67-4.56-40.26-19.14-34.56-34.55-18.28-102.19-12.54-126.05C1168.4,598.8,1243.52,503.76,1285.83,515.42Z"/><path class="cls-6" d="M245,349.62l-6.56-.06a51.15,51.15,0,0,0-2.32-8.64l5.69-3.22a3.22,3.22,0,0,0,1.19-4.42l-5.61-9.78a3.29,3.29,0,0,0-4.45-1.24l-5.77,3.24a52.81,52.81,0,0,0-6.33-6.36l3.35-5.72A3.28,3.28,0,0,0,223,309l-9.79-5.78a3.26,3.26,0,0,0-4.48,1.13L205.33,310a52.66,52.66,0,0,0-8.69-2.42V300.9a3.36,3.36,0,0,0-3.3-3.33l-11.42-.19a3.23,3.23,0,0,0-3.32,3.22v6.75a51.2,51.2,0,0,0-8.76,2.16l-3.41-5.88a3.4,3.4,0,0,0-4.56-1.28l-10,5.53a3.23,3.23,0,0,0-1.22,4.48l3.42,5.89a51.9,51.9,0,0,0-6.48,6.27l-5.93-3.44a3.37,3.37,0,0,0-4.59,1.15L131.27,332a3.3,3.3,0,0,0,1.23,4.53l5.89,3.4a50.91,50.91,0,0,0-2.4,8.73l-6.8-.05a3.3,3.3,0,0,0-3.37,3.28v11.42a3.35,3.35,0,0,0,3.37,3.32l6.75,0a50.91,50.91,0,0,0,2.36,8.82l-5.8,3.27a3.26,3.26,0,0,0-1.23,4.51l5.81,9.89a3.39,3.39,0,0,0,4.59,1.21l5.76-3.26a51.84,51.84,0,0,0,6.54,6.46l-3.31,5.64a3.26,3.26,0,0,0,1.22,4.5l10,5.67a3.38,3.38,0,0,0,4.56-1.21l3.26-5.59A52.31,52.31,0,0,0,178.6,409v6.45a3.29,3.29,0,0,0,3.32,3.27l11.42,0a3.31,3.31,0,0,0,3.3-3.28v-6.43a52.6,52.6,0,0,0,8.83-2.35l3.23,5.55a3.29,3.29,0,0,0,4.48,1.18l9.79-5.64a3.25,3.25,0,0,0,1.2-4.45l-3.23-5.58a50.52,50.52,0,0,0,6.38-6.37l5.6,3.23a3.26,3.26,0,0,0,4.45-1.18l5.61-9.7a3.25,3.25,0,0,0-1.19-4.44l-5.6-3.25a51,51,0,0,0,2.28-8.66l6.51,0a3.23,3.23,0,0,0,3.25-3.23V352.89A3.28,3.28,0,0,0,245,349.62Zm-57.34-24.48a33.52,33.52,0,0,1,33.21,33.3,33,33,0,0,1-33.21,32.84A33.51,33.51,0,0,1,154.05,358,33,33,0,0,1,187.64,325.14Z"/><path class="cls-6" d="M407,143.48l-10.34-.28A77.89,77.89,0,0,0,393,129.87l9-4.78a4.8,4.8,0,0,0,1.87-6.74L395,103.15a5.33,5.33,0,0,0-7-2.06l-9.11,4.79a85.08,85.08,0,0,0-10-10l5.29-8.69a5,5,0,0,0-1.89-6.9L356.75,71a5.19,5.19,0,0,0-7.1,1.56l-5.34,8.72a87,87,0,0,0-13.8-4V66.92a5.4,5.4,0,0,0-5.24-5.25l-18.18-.73a4.94,4.94,0,0,0-5.28,4.86V76.21a83.61,83.61,0,0,0-14,3L282.38,70a5.6,5.6,0,0,0-7.28-2.14l-16,8.18a4.85,4.85,0,0,0-2,6.89l5.48,9.23a78.56,78.56,0,0,0-10.38,9.49l-9.51-5.54a5.46,5.46,0,0,0-7.37,1.62l-9.34,15a5.08,5.08,0,0,0,2,7.06l9.46,5.46a74.82,74.82,0,0,0-3.85,13.46l-10.93-.3a5.11,5.11,0,0,0-5.43,5v17.72a5.43,5.43,0,0,0,5.43,5.25l10.84.25a77.89,77.89,0,0,0,3.8,13.73L228,185.28a4.92,4.92,0,0,0-2,7l9.34,15.47a5.62,5.62,0,0,0,7.37,2L252,204.8A84.6,84.6,0,0,0,262.45,215l-5.3,8.65a5,5,0,0,0,2,7l16,9a5.44,5.44,0,0,0,7.28-1.77l5.21-8.56a87.53,87.53,0,0,0,14.22,3.8v10a5.24,5.24,0,0,0,5.28,5.12l18.18.19a5.08,5.08,0,0,0,5.24-5v-9.91a82.72,82.72,0,0,0,14-3.42l5.12,8.61a5.33,5.33,0,0,0,7.1,1.92l15.51-8.46a4.89,4.89,0,0,0,1.89-6.81L369,216.62a78.16,78.16,0,0,0,10.1-9.65l8.84,5.1a5.16,5.16,0,0,0,7-1.71l8.85-14.75a5,5,0,0,0-1.87-6.84l-8.84-5.15a75,75,0,0,0,3.6-13.22l10.26.23a4.9,4.9,0,0,0,5.11-4.85V148.6A5.21,5.21,0,0,0,407,143.48ZM316.19,104c29.22,1,52.71,24.4,52.71,52.33S345.41,206.5,316.19,206c-29.49-.5-53.6-23.94-53.6-52.35S286.7,103,316.19,104Z"/><path class="cls-7" d="M316.19.21C226-4.27,150.91,63,150.91,150.6S226,309.27,316.19,309.33c87.71.06,157.05-67.37,157.05-150.6S403.9,4.57,316.19.21Zm0,272.16c-68.41-.45-125-54.51-125-120.75s56.56-117.45,125-114.45c67,2.94,120.21,56.92,120.21,120.63S383.15,272.81,316.19,272.37Z"/><path class="cls-8" d="M206.59,209.07l-34.72,18.34a164.41,164.41,0,0,0,56,57l19.78-32.33A124.86,124.86,0,0,1,206.59,209.07Z"/><path class="cls-8" d="M415.06,91l32.26-17a165.21,165.21,0,0,0-51.88-49.56L376.58,55.28A125.83,125.83,0,0,1,415.06,91Z"/><path class="cls-8" d="M214.13,83.77a117.34,117.34,0,0,1,40.49-33.54L234.91,17a154.21,154.21,0,0,0-55.54,46.61Z"/><path class="cls-8" d="M191.22,151.62c0-1.42.06-2.82.11-4.22l-40.35-1c0,1.41-.07,2.82-.07,4.24A151.51,151.51,0,0,0,168.33,221l34.86-18.37A115.09,115.09,0,0,1,191.22,151.62Z"/><path class="cls-9" d="M436.4,157.8a111.23,111.23,0,0,1-11.12,48.67l32.15,18.69a146.41,146.41,0,0,0,15.81-66.43c0-1.35,0-2.7-.06-4l-36.89-1C436.34,155.09,436.4,156.44,436.4,157.8Z"/><path class="cls-9" d="M422.12,212.59a115.62,115.62,0,0,1-38.89,40.81l18.83,31.82a152.2,152.2,0,0,0,52.14-54Z"/><path class="cls-8" d="M419,96.88a116.32,116.32,0,0,1,16.9,50l37,1a152.6,152.6,0,0,0-21.75-67.94Z"/><path class="cls-9" d="M312.54,272.26A128.38,128.38,0,0,1,254,255.88l-19.71,32.27a168.58,168.58,0,0,0,78.22,21.13Z"/><path class="cls-9" d="M377.15,257a123.39,123.39,0,0,1-57.31,15.31v37A162.11,162.11,0,0,0,396,288.8Z"/><path class="cls-8" d="M261.17,47.16A124.22,124.22,0,0,1,312.54,37.1V.07a163.58,163.58,0,0,0-71.06,13.8Z"/><path class="cls-8" d="M191.81,140.27A111,111,0,0,1,210,89.58l-34.7-20.12a146,146,0,0,0-23.91,69.72Z"/><path class="cls-8" d="M319.84,37.42a128.47,128.47,0,0,1,50.43,14.31l18.91-30.92A168.78,168.78,0,0,0,319.84.44Z"/><path class="cls-10" d="M149.05,247,144,247a34.91,34.91,0,0,0-1.78-6.37l4.38-2.47a2.37,2.37,0,0,0,.91-3.29l-4.31-7.18a2.56,2.56,0,0,0-3.42-.86l-4.43,2.48a39.45,39.45,0,0,0-4.86-4.63l2.57-4.28a2.37,2.37,0,0,0-.92-3.3L124.63,213a2.59,2.59,0,0,0-3.44.89l-2.58,4.3A41.87,41.87,0,0,0,112,216.5v-5a2.47,2.47,0,0,0-2.53-2.42l-8.74,0a2.48,2.48,0,0,0-2.53,2.43v5a41.13,41.13,0,0,0-6.7,1.72L88.84,214a2.61,2.61,0,0,0-3.48-.88l-7.63,4.22a2.38,2.38,0,0,0-.93,3.33l2.61,4.3a40.87,40.87,0,0,0-4.94,4.72l-4.53-2.46a2.63,2.63,0,0,0-3.49.91L62,235.43a2.35,2.35,0,0,0,.94,3.32l4.48,2.44a37.23,37.23,0,0,0-1.82,6.48l-5.18,0a2.53,2.53,0,0,0-2.57,2.46v8.43A2.47,2.47,0,0,0,60.44,261l5.14-.05a35.29,35.29,0,0,0,1.8,6.48L63,269.92a2.4,2.4,0,0,0-.94,3.35l4.43,7.23a2.6,2.6,0,0,0,3.49.85l4.39-2.48a39.73,39.73,0,0,0,5,4.71l-2.52,4.2a2.35,2.35,0,0,0,.93,3.31l7.63,4.08a2.64,2.64,0,0,0,3.48-.94l2.5-4.17a40,40,0,0,0,6.81,1.63v4.77a2.44,2.44,0,0,0,2.53,2.39l8.74-.15a2.52,2.52,0,0,0,2.53-2.46v-4.76a40.2,40.2,0,0,0,6.77-1.83l2.47,4.07a2.54,2.54,0,0,0,3.44.83l7.51-4.28a2.39,2.39,0,0,0,.92-3.31l-2.48-4.1a40.33,40.33,0,0,0,4.9-4.79l4.3,2.33a2.58,2.58,0,0,0,3.42-.93l4.31-7.25a2.35,2.35,0,0,0-.91-3.28l-4.31-2.35a37.55,37.55,0,0,0,1.76-6.44l5,0a2.48,2.48,0,0,0,2.5-2.43v-8.31A2.43,2.43,0,0,0,149.05,247Zm-44-17.39c14.08-.07,25.45,10.77,25.45,24.23s-11.37,24.52-25.45,24.7-25.67-10.66-25.67-24.23S90.91,229.67,105.06,229.59Z"/><path class="cls-11" d="M889.36,826.78a41.2,41.2,0,0,1-27.33-31L841.71,695.2l-173.78,6.17L646.54,806.12c-3,14.67,9,29.39,22.81,34.79l72.7,28.45a94.5,94.5,0,0,0,42.51,6.16l153.65-13.14a9.53,9.53,0,0,0,8.62-8.45c.52-4.53,3.67-9.62-.61-11Z"/><path class="cls-12" d="M891.08,820.67A40.88,40.88,0,0,1,863.77,790l-20.29-99.28-169.54,6.1L652.57,800.27a30.26,30.26,0,0,0,18.72,34.35l72.63,28.09a95.51,95.51,0,0,0,42.47,6.08l153.5-13A9.47,9.47,0,0,0,942,837.38Z"/><path class="cls-11" d="M312.83,762c-18.84,1.12-34.26-11.1-34.26-27.26V152.45c0-16.15,15.42-28.63,34.26-27.81l875.3,60.59c13.84.6,21.26-10.57,21.26,3.17V683.66a26.88,26.88,0,0,1-25,26.42Z"/><path class="cls-8" d="M320.67,762c-18.85,1.12-34.27-11.1-34.27-27.26V152.45c0-16.15,15.42-28.63,34.27-27.81l871.52,37.76a26.34,26.34,0,0,1,25,26V683.66a26.89,26.89,0,0,1-25,26.42Z"/><path class="cls-13" d="M1192.19,174.05,320.67,138.2c-10.08-.41-18.27,6.24-18.27,14.87V733.89c0,8.63,8.19,15.15,18.27,14.58l871.52-50.05a14.35,14.35,0,0,0,13.41-14.12V188A14.07,14.07,0,0,0,1192.19,174.05Z"/><path class="cls-14" d="M1185.71,656.51l-855.6,42.24c-9,.44-16.28-5.5-16.28-13.26V160.7c0-7.77,7.3-13.8,16.28-13.46L1185.71,179a12.68,12.68,0,0,1,12.15,12.57V643.79A12.88,12.88,0,0,1,1185.71,656.51Z"/><polygon class="cls-15" points="543.55 202.66 348.15 196.91 348.15 178.28 543.55 184.6 543.55 202.66"/><polygon class="cls-16" points="635.57 200.21 590.43 198.85 590.43 186.12 635.57 187.58 635.57 200.21"/><polygon class="cls-16" points="635.57 217.77 590.43 216.53 590.43 203.8 635.57 205.13 635.57 217.77"/><polygon class="cls-6" points="860.52 223.92 685.4 219.13 685.4 206.6 860.52 211.76 860.52 223.92"/><polygon class="cls-17" points="889.24 241.53 715.86 237.29 715.86 224.82 889.24 229.42 889.24 241.53"/><polygon class="cls-17" points="889.24 258.35 715.86 254.61 715.86 242.14 889.24 246.25 889.24 258.35"/><polygon class="cls-15" points="889.24 275.17 715.86 271.93 715.86 259.46 889.24 263.06 889.24 275.17"/><polygon class="cls-16" points="635.57 235.32 590.43 234.22 590.43 221.49 635.57 222.69 635.57 235.32"/><polygon class="cls-16" points="635.57 252.88 590.43 251.9 590.43 239.17 635.57 240.24 635.57 252.88"/><polygon class="cls-16" points="635.57 270.43 590.43 269.58 590.43 256.86 635.57 257.8 635.57 270.43"/><polygon class="cls-16" points="635.57 287.98 590.43 287.27 590.43 274.54 635.57 275.35 635.57 287.98"/><polygon class="cls-15" points="756.53 289.89 645.42 288.14 645.42 275.52 756.53 277.51 756.53 289.89"/><polygon class="cls-16" points="635.57 305.54 590.43 304.95 590.43 292.23 635.57 292.9 635.57 305.54"/><polygon class="cls-16" points="635.57 323.09 590.43 322.64 590.43 309.91 635.57 310.46 635.57 323.09"/><polygon class="cls-16" points="635.57 340.64 590.43 340.32 590.43 327.6 635.57 328.01 635.57 340.64"/><polygon class="cls-17" points="808.59 307.77 685.4 306.18 685.4 293.65 808.59 295.5 808.59 307.77"/><polygon class="cls-15" points="872.58 325.47 715.86 323.9 715.86 311.43 872.58 313.32 872.58 325.47"/><polygon class="cls-6" points="872.58 342.33 715.86 341.22 715.86 328.75 872.58 330.19 872.58 342.33"/><polygon class="cls-16" points="635.57 358.2 590.43 358.01 590.43 345.28 635.57 345.56 635.57 358.2"/><polygon class="cls-16" points="635.57 375.75 590.43 375.69 590.43 362.96 635.57 363.12 635.57 375.75"/><polygon class="cls-16" points="635.57 393.31 590.43 393.38 590.43 380.65 635.57 380.67 635.57 393.31"/><polygon class="cls-16" points="635.57 410.86 590.43 411.06 590.43 398.33 635.57 398.23 635.57 410.86"/><polygon class="cls-16" points="635.57 428.42 590.43 428.75 590.43 416.02 635.57 415.78 635.57 428.42"/><polygon class="cls-16" points="635.57 445.97 590.43 446.43 590.43 433.7 635.57 433.33 635.57 445.97"/><polygon class="cls-16" points="635.57 463.52 590.43 464.11 590.43 451.39 635.57 450.89 635.57 463.52"/><polygon class="cls-16" points="635.57 481.08 590.43 481.8 590.43 469.07 635.57 468.44 635.57 481.08"/><polygon class="cls-16" points="635.57 498.63 590.43 499.48 590.43 486.75 635.57 486 635.57 498.63"/><polygon class="cls-16" points="635.57 516.18 590.43 517.17 590.43 504.44 635.57 503.55 635.57 516.18"/><polygon class="cls-16" points="635.57 533.74 590.43 534.85 590.43 522.12 635.57 521.1 635.57 533.74"/><polygon class="cls-16" points="635.57 551.29 590.43 552.54 590.43 539.81 635.57 538.66 635.57 551.29"/><polygon class="cls-16" points="635.57 568.85 590.43 570.22 590.43 557.49 635.57 556.21 635.57 568.85"/><polygon class="cls-16" points="635.57 586.4 590.43 587.9 590.43 575.18 635.57 573.77 635.57 586.4"/><polygon class="cls-16" points="635.57 603.95 590.43 605.59 590.43 592.86 635.57 591.32 635.57 603.95"/><polygon class="cls-16" points="635.57 621.51 590.43 623.27 590.43 610.55 635.57 608.87 635.57 621.51"/><polygon class="cls-16" points="635.57 639.06 590.43 640.96 590.43 628.23 635.57 626.43 635.57 639.06"/><polygon class="cls-16" points="635.57 656.62 590.43 658.64 590.43 645.91 635.57 643.98 635.57 656.62"/><polygon class="cls-17" points="768.22 204.23 645.12 200.5 645.12 187.89 768.22 191.87 768.22 204.23"/><polygon class="cls-15" points="860.52 562 685.4 567.33 685.4 554.8 860.52 549.83 860.52 562"/><polygon class="cls-18" points="889.24 577.94 715.86 583.72 715.86 571.26 889.24 565.84 889.24 577.94"/><polygon class="cls-18" points="889.24 594.76 715.86 601.04 715.86 588.58 889.24 582.66 889.24 594.76"/><polygon class="cls-19" points="963.95 608.66 795.06 615.27 795.06 602.97 963.95 596.71 963.95 608.66"/><polygon class="cls-20" points="963.95 625.26 795.06 632.36 795.06 620.06 963.95 613.31 963.95 625.26"/><polygon class="cls-15" points="963.95 641.87 795.06 649.45 795.06 637.15 963.95 629.92 963.95 641.87"/><polygon class="cls-18" points="768.22 547.64 645.12 551.03 645.12 538.41 768.22 535.28 768.22 547.64"/><polygon class="cls-17" points="860.52 376.06 685.4 375.82 685.4 363.29 860.52 363.89 860.52 376.06"/><polygon class="cls-15" points="889.24 392.92 715.86 393.18 715.86 380.72 889.24 380.81 889.24 392.92"/><polygon class="cls-17" points="889.24 409.74 715.86 410.5 715.86 398.04 889.24 397.63 889.24 409.74"/><polygon class="cls-17" points="889.24 426.56 715.86 427.83 715.86 415.36 889.24 414.45 889.24 426.56"/><polygon class="cls-18" points="756.53 444.73 645.42 445.87 645.42 433.25 756.53 432.35 756.53 444.73"/><polygon class="cls-15" points="808.59 461.25 685.4 462.87 685.4 450.34 808.59 448.98 808.59 461.25"/><polygon class="cls-6" points="872.58 477.29 715.86 479.79 715.86 467.32 872.58 465.14 872.58 477.29"/><polygon class="cls-17" points="872.58 494.15 715.86 497.11 715.86 484.65 872.58 482.01 872.58 494.15"/><polygon class="cls-21" points="907.33 510.27 752.49 513.64 752.49 501.25 907.33 498.2 907.33 510.27"/><polygon class="cls-22" points="907.33 527.03 752.49 530.85 752.49 518.46 907.33 514.97 907.33 527.03"/><polygon class="cls-6" points="768.22 358.76 645.12 358.24 645.12 345.63 768.22 346.4 768.22 358.76"/><polygon class="cls-23" points="543.55 230.88 431.71 228.1 431.71 209.71 543.55 212.82 543.55 230.88"/><polygon class="cls-15" points="402.78 227.38 423.85 227.9 423.85 209.49 402.78 208.91 402.78 227.38"/><polygon class="cls-15" points="543.55 256.83 431.71 254.53 431.71 236.14 543.55 238.78 543.55 256.83"/><polygon class="cls-15" points="402.78 253.93 423.85 254.36 423.85 235.96 402.78 235.46 402.78 253.93"/><polygon class="cls-15" points="543.55 282.79 431.71 280.95 431.71 262.57 543.55 264.73 543.55 282.79"/><polygon class="cls-15" points="402.78 280.48 423.85 280.83 423.85 262.42 402.78 262.01 402.78 280.48"/><polygon class="cls-23" points="543.55 467.05 348.15 469.68 348.15 451.05 543.55 448.99 543.55 467.05"/><polygon class="cls-15" points="543.55 495.26 431.71 497.28 431.71 478.89 543.55 477.2 543.55 495.26"/><polygon class="cls-15" points="402.78 497.8 423.85 497.42 423.85 479.01 402.78 479.33 402.78 497.8"/><polygon class="cls-15" points="543.55 521.22 431.71 523.71 431.71 505.32 543.55 503.16 543.55 521.22"/><polygon class="cls-15" points="402.78 524.35 423.85 523.88 423.85 505.48 402.78 505.88 402.78 524.35"/><polygon class="cls-15" points="543.55 547.18 431.71 550.14 431.71 531.75 543.55 529.12 543.55 547.18"/><polygon class="cls-15" points="402.78 550.9 423.85 550.35 423.85 531.94 402.78 532.43 402.78 550.9"/><polygon class="cls-23" points="543.55 308.93 348.15 306.55 348.15 287.92 543.55 290.87 543.55 308.93"/><polygon class="cls-15" points="543.55 337.14 431.71 336.29 431.71 317.9 543.55 319.08 543.55 337.14"/><polygon class="cls-15" points="402.78 336.07 423.85 336.23 423.85 317.82 402.78 317.6 402.78 336.07"/><polygon class="cls-15" points="543.55 363.1 431.71 362.72 431.71 344.33 543.55 345.04 543.55 363.1"/><polygon class="cls-15" points="402.78 362.62 423.85 362.69 423.85 344.28 402.78 344.15 402.78 362.62"/><polygon class="cls-15" points="543.55 415.35 431.71 415.92 431.71 397.54 543.55 397.29 543.55 415.35"/><polygon class="cls-15" points="402.78 416.07 423.85 415.96 423.85 397.55 402.78 397.6 402.78 416.07"/><polygon class="cls-15" points="543.55 441.31 431.71 442.35 431.71 423.96 543.55 423.25 543.55 441.31"/><polygon class="cls-15" points="402.78 442.62 423.85 442.42 423.85 424.01 402.78 424.15 402.78 442.62"/><polygon class="cls-15" points="543.55 389.06 431.71 389.15 431.71 370.76 543.55 371 543.55 389.06"/><polygon class="cls-15" points="402.78 389.17 423.85 389.15 423.85 370.75 402.78 370.7 402.78 389.17"/><polygon class="cls-23" points="543.55 573.13 348.15 579.12 348.15 560.49 543.55 555.07 543.55 573.13"/><polygon class="cls-15" points="543.55 601.34 431.71 605.28 431.71 586.9 543.55 583.28 543.55 601.34"/><polygon class="cls-15" points="402.78 606.3 423.85 605.56 423.85 587.15 402.78 587.84 402.78 606.3"/><polygon class="cls-15" points="543.55 627.3 431.71 631.71 431.71 613.33 543.55 609.24 543.55 627.3"/><polygon class="cls-15" points="402.78 632.86 423.85 632.02 423.85 613.62 402.78 614.39 402.78 632.86"/><polygon class="cls-15" points="543.55 653.26 431.71 658.14 431.71 639.76 543.55 635.2 543.55 653.26"/><polygon class="cls-15" points="402.78 659.41 423.85 658.49 423.85 640.08 402.78 640.94 402.78 659.41"/><polygon class="cls-15" points="567.3 652.31 563 652.5 563 185.23 567.3 185.37 567.3 652.31"/><path class="cls-15" d="M1101.2,674c-189.71,4-232.38,31.06-286.29-1.4C740.84,628,774.57,548.69,702.4,507.07c-90.73-52.32-195.35,43.51-242.7-3.21-47.16-46.52,41.92-156-9.65-278.07-20.69-49-55.93-80.79-80.28-99l-49.1-2.12c-18.85-.82-34.27,11.66-34.27,27.81V734.77c0,16.16,15.42,28.38,34.27,27.26l871.52-51.95a26.89,26.89,0,0,0,25-26.42v-8.8C1191.11,673.93,1150.65,673,1101.2,674Z"/><path class="cls-8" d="M1177.47,662.11,753.61,757.8c-10.47,2.36-19.06-4.33-19.06-15v-624c0-10.65,8.59-17.82,19.06-16l423.86,71.91c5.73,1,10.34,8,10.34,15.82V645.71C1187.81,653.47,1183.2,660.81,1177.47,662.11Z"/><path class="cls-24" d="M1187.11,662.11,763.25,757.8c-10.47,2.36-19.06-4.33-19.06-15v-624c0-10.65,8.59-17.82,19.06-16l423.86,71.91c5.74,1,10.35,8,10.35,15.82V645.71C1197.46,653.47,1192.85,660.81,1187.11,662.11Z"/><g class="cls-25"><path class="cls-26" d="M1132.76,577.4c-52.48-59.21-16.36-155.15-64.29-180-39.88-20.7-82.57,36.53-120.55,16.87-49.39-25.56-3.52-135.95-52.24-221-17.36-30.31-51.22-65.25-124.08-89l-8.35-1.41c-10.47-1.78-19.06,5.39-19.06,16v624c0,10.65,8.59,17.34,19.06,15l423.86-95.69c5.74-1.3,10.35-8.64,10.35-16.4V614.23C1171.4,607.63,1149.16,595.9,1132.76,577.4Z"/></g><path class="cls-27" d="M1177.76,207,778.23,150.15c-3.61-.51-6.54,4.16-6.54,10.44V288.46c0,6.27,2.93,11.51,6.54,11.7l399.53,20.36c2,.11,3.71-3.63,3.71-8.35V216.09C1181.47,211.38,1179.81,207.32,1177.76,207Z"/><path class="cls-27" d="M778.23,300.16l142.9,7.28c-1.09-37-4.65-77.89-25.45-114.19a154.12,154.12,0,0,0-22-29.51l-95.45-13.59c-3.61-.51-6.54,4.16-6.54,10.44V288.46C771.69,294.73,774.62,300,778.23,300.16Z"/><path class="cls-28" d="M903.17,442.53l-121.94,4.72a9.21,9.21,0,0,1-9.54-9.38V342.32a9.3,9.3,0,0,1,9.54-9.45l121.94,3.79c4.47.14,8.08,4.25,8.08,9.18v87.45C911.25,438.22,907.64,442.36,903.17,442.53Z"/><path class="cls-23" d="M903.17,561.51,781.23,575.8a8.42,8.42,0,0,1-9.54-8.64V471.62a10.24,10.24,0,0,1,9.54-10.21l121.94-5.77c4.47-.21,8.08,3.61,8.08,8.54v87.46C911.25,556.57,907.64,561,903.17,561.51Z"/><path class="cls-23" d="M903.17,680.45,781.23,704.3a7.72,7.72,0,0,1-9.54-7.89V600.87a11.29,11.29,0,0,1,9.54-11l121.94-15.33c4.47-.57,8.08,3,8.08,7.91v87.45C911.25,674.87,907.64,679.57,903.17,680.45Z"/><polygon class="cls-29" points="1180.9 626.13 918.83 677.38 918.83 337.15 1180.9 345.3 1180.9 626.13"/><polygon class="cls-30" points="1180.9 626.13 918.83 677.38 918.83 625.78 1180.9 583.53 1180.9 626.13"/><path class="cls-31" d="M1086.81,473.89c0,28.37-10.82,52.52-24.41,54-13.87,1.47-25.32-21.17-25.32-50.6s11.45-53.62,25.32-54C1076,422.84,1086.81,445.52,1086.81,473.89Z"/><polygon class="cls-27" points="1052.59 506.66 1052.59 445.75 1081.13 474.27 1052.59 506.66"/><polygon class="cls-27" points="1176.39 609.94 925.4 655.59 925.4 647.31 1176.39 603.05 1176.39 609.94"/><polygon class="cls-32" points="997.55 642.46 925.4 655.59 925.4 647.31 997.55 634.58 997.55 642.46"/><path class="cls-8" d="M999.77,638.13c0,6.52-2.63,12.29-5.89,12.9s-5.94-4.21-5.94-10.78,2.66-12.36,5.94-12.92S999.77,631.61,999.77,638.13Z"/><path class="cls-33" d="M450.67,922a.9.9,0,0,1-.9-.9V566.71a.9.9,0,1,1,1.8,0V921.06A.9.9,0,0,1,450.67,922Z"/><path class="cls-33" d="M355.2,899.7a.9.9,0,0,1-.89-.9v-341a.9.9,0,1,1,1.79,0v341A.9.9,0,0,1,355.2,899.7Z"/><path class="cls-33" d="M134.49,915.58a.8.8,0,0,1-.3-.06.89.89,0,0,1-.54-1.15L261.26,562.74a.9.9,0,0,1,1.69.61L135.34,915A.91.91,0,0,1,134.49,915.58Z"/><path class="cls-33" d="M228.7,943.09a.75.75,0,0,1-.26,0,.9.9,0,0,1-.6-1.12L342.38,571.19a.9.9,0,0,1,1.71.53L229.56,942.46A.9.9,0,0,1,228.7,943.09Z"/><polygon class="cls-33" points="356.25 557.42 452.02 564.51 452.02 566.66 342.57 571.57 260.77 561.54 260.77 559.39 356.25 557.42"/><polygon class="cls-34" points="356.25 555.26 452.02 564.51 342.57 569.41 260.77 559.39 356.25 555.26"/><path class="cls-33" d="M253.48,862.89a.91.91,0,0,1-.23,0l-91.18-23.92a.9.9,0,0,1-.64-1.1.89.89,0,0,1,1.09-.64l91.19,23.92a.9.9,0,0,1-.23,1.77Z"/><path class="cls-33" d="M279.31,779l-.16,0-89.49-15.84a.9.9,0,0,1,.32-1.77l89.49,15.84a.9.9,0,0,1-.16,1.79Z"/><path class="cls-33" d="M306.17,692.35h-.12l-86.61-11.16a.9.9,0,0,1,.23-1.79l86.61,11.17a.9.9,0,0,1-.11,1.79Z"/><path class="cls-33" d="M323.38,632.24h-.14l-81.43-12.74a.9.9,0,0,1,.27-1.78l81.43,12.74a.9.9,0,0,1-.13,1.79Z"/><path class="cls-35" d="M564.49,394.09l-204.42-.88c-1,0-1.46-1.48-.7-2.24l20.71-20.56V279.07c0-3.68,2.69-6.84,6-7.06l178.39-11.64a6.85,6.85,0,0,1,7.35,6.93V386.71A7.35,7.35,0,0,1,564.49,394.09Z"/><polygon class="cls-3" points="432.38 290.4 395.06 292.39 395.06 287.53 432.38 285.44 432.38 290.4"/><polygon class="cls-3" points="432.38 300.34 395.06 302.12 395.06 297.25 432.38 295.37 432.38 300.34"/><polygon class="cls-3" points="432.38 315.98 395.06 317.44 395.06 312.57 432.38 311.01 432.38 315.98"/><polygon class="cls-3" points="432.38 325.92 395.06 327.16 395.06 322.3 432.38 320.95 432.38 325.92"/><polygon class="cls-3" points="553.7 365.87 395.06 367.53 395.06 362.66 553.7 360.57 553.7 365.87"/><polygon class="cls-3" points="553.7 376.48 395.06 377.25 395.06 372.39 553.7 371.18 553.7 376.48"/><polygon class="cls-3" points="432.38 341.56 395.06 342.48 395.06 337.62 432.38 336.59 432.38 341.56"/><polygon class="cls-3" points="432.38 351.49 395.06 352.21 395.06 347.35 432.38 346.53 432.38 351.49"/><polygon class="cls-3" points="553.7 349.72 446.87 351.74 446.87 284.62 447.85 284.57 447.85 350.68 553.7 348.62 553.7 349.72"/><polygon class="cls-3" points="460.79 332.56 460.09 331.85 481.22 308.36 502.45 315.22 523.86 295.32 545.9 305.78 545.41 306.78 524.01 296.61 502.67 316.43 481.5 309.57 460.79 332.56"/><path class="cls-36" d="M463.85,332.11a3.64,3.64,0,0,1-3.41,3.71,3.39,3.39,0,0,1-3.39-3.51,3.64,3.64,0,0,1,3.39-3.72A3.4,3.4,0,0,1,463.85,332.11Z"/><path class="cls-37" d="M484.84,308.82a3.76,3.76,0,0,1-3.48,3.81,3.4,3.4,0,0,1-3.47-3.52,3.76,3.76,0,0,1,3.47-3.8A3.4,3.4,0,0,1,484.84,308.82Z"/><path class="cls-38" d="M506.13,315.69a3.8,3.8,0,0,1-3.57,3.83A3.47,3.47,0,0,1,499,316a3.79,3.79,0,0,1,3.55-3.83A3.47,3.47,0,0,1,506.13,315.69Z"/><path class="cls-39" d="M527.58,295.79a3.91,3.91,0,0,1-3.65,3.92,3.49,3.49,0,0,1-3.63-3.57,3.92,3.92,0,0,1,3.63-3.92A3.49,3.49,0,0,1,527.58,295.79Z"/><path class="cls-40" d="M549.39,306.13a4,4,0,0,1-3.74,3.94,3.58,3.58,0,0,1-3.72-3.63,4,4,0,0,1,3.72-3.94A3.58,3.58,0,0,1,549.39,306.13Z"/><path class="cls-41" d="M428,371.49l4.51-4.92a16.59,16.59,0,0,1,4-3.46c3.63-2.23,8.63-3.32,9.37-2.05.85,1.44-3.89,5.72-5.51,7.13l-6.69,4.86Z"/><path class="cls-42" d="M331.65,338c-1.22.46-19.91,7.9-23.75,27.4-.31,1.58-3.32,18.34,8.05,30.17,12.74,13.28,37.28,12.95,47,1.85a19.89,19.89,0,0,0,4.14-7.86l-2.56-6.82c-3.13-3.78-7.4-4.68-9.68-5.24-5.61-1.38-9.85,1.12-13.06-1.59-1.78-1.5-2.13-3.65-2.45-5.58-1.08-6.56,2.63-10.6,2.9-14.64.2-3,1.26-9.65-2.69-14A12.72,12.72,0,0,0,331.65,338Z"/><path class="cls-43" d="M324.37,555.42c-.22-1.21-4.1-2.29-6-.68-1,.79-1.61,2.41-1.05,3.14.2.27-.63.74.16.75C320.07,558.66,324.59,556.61,324.37,555.42Z"/><path class="cls-44" d="M320.31,555.85l-4-.56c1.84-2.23,1.5-9.31,1.5-9.31l4.24.95s-.48,1.94-1.3,4.81A18.54,18.54,0,0,0,320.31,555.85Z"/><path class="cls-45" d="M320.66,555.36s-4.8-1.1-5.32-.15-.92,3.5,2.12,3.42S320.93,556.17,320.66,555.36Z"/><path class="cls-46" d="M379.09,559.92c-.38-1.16-4.37-1.69-6,.17-.83.92-1.25,2.62-.61,3.26.24.24-.51.82.27.72C375.29,563.73,379.47,561.07,379.09,559.92Z"/><path class="cls-47" d="M375.13,560.92h-4c1.52-2.46.19-9.43.19-9.43l4.33.35s-.2,2-.62,4.94A18.79,18.79,0,0,0,375.13,560.92Z"/><path class="cls-6" d="M385.57,408.6a186.59,186.59,0,0,1,6.24,28.59c4.9,35.58-5.5,36.72-3.56,76.16.62,12.58-10.91,41.61-11.92,42.25a13.47,13.47,0,0,1-1.6.07,16.1,16.1,0,0,1-4.06-.68c-1.82-.32-8.4-18.14-6.88-28.75,1.08-7.5.77-15.55.14-31.65-.1-2.61-6.77-50.77-6.77-50.77-2,17.82-4.37,33-6.4,44.71-6.5,37.73-27.65,60.56-28.76,60.93a4.45,4.45,0,0,1-3.82-.26,2.7,2.7,0,0,1-1-1.09c-.56-.44.17-37.67,6.62-65.68,9.36-40.66,5.29-50.18,8.25-68.34C334.65,398.38,385.57,408.6,385.57,408.6Z"/><path class="cls-48" d="M347.74,334.86c6.22-.19,20.51-2.38,28.38,4.7.14.12-1.47,1-.68,1.92a50.63,50.63,0,0,1,5.56,8A53.53,53.53,0,0,1,385.67,361a100.07,100.07,0,0,1,3.69,20.16c1.43,18.92,0,27.65-1.29,33.59-5.62,2.88-20.1,8.05-37.36,5.48a58.34,58.34,0,0,1-18.63-6.13c4.48-13.56,1-20.82-.69-27.51-2.36-9.53-2.4-8.81-4.35-16.38-3.21-12.5-3.74-25.28-1.53-27.89C331.46,335.27,342.18,335,347.74,334.86Z"/><path class="cls-49" d="M375.41,560.38s-4.91-.42-5.29.6-.42,3.59,2.58,3.09S375.79,561.15,375.41,560.38Z"/><path class="cls-50" d="M365.24,327.73a10.82,10.82,0,0,0,.88-7.78c-.81-3.37-1.12-3.88-1.74-4.59l-.88-.93-.12-.08a12.49,12.49,0,0,0-3.4-1.14c-1.58-.08-4.8,5.59-6.64,14.33-.15.31-.3.63-.44.95-.92,2-1.7,3.93-2.38,5.83-10.68.9-12.16,2.16-12.21,2.88-.1,1.53,6,3.29,10.57,4,10,1.46,20.25-1.17,20.2-3,0-.81-2-1.86-10.47-3,.2-1.4.4-2.8.59-4.2C359.89,330.79,363.82,330.13,365.24,327.73Z"/><path class="cls-51" d="M367.25,312.81c-.72,2.66-2.74,5.18-3.5,5.47a4.4,4.4,0,0,0-1.25.8,1.31,1.31,0,0,0-.24.27c-1,1.53,1.12,4.22.4,4.84-.52.44-2.14-.77-2.48-.36s.94,1.71.57,2.18-1.12-.26-1.87.2c-.37.23-.35.5-.91,1.35a9.58,9.58,0,0,1-1,1.27c-1.34,1.32-4.11,1.2-4.44.44-.1-.22.06-.33.08-1a4.94,4.94,0,0,0-.2-1.31c-.3-1-1.44-2-2.5-3.33a9,9,0,0,1-2.3-4.63c0-.2,0-.35,0-.46a10.28,10.28,0,0,1,2-6.57c2.28-2.58,5.24-.27,8.77-2.49,4.06-2.57,3.42-7.72,5.27-7.78C365.68,301.68,368.58,307.87,367.25,312.81Z"/><path class="cls-52" d="M361.87,323.3c-.42-1.07-1.79-.53-2.11.63s.49,2.67,1.64,2.73S362.43,324.75,361.87,323.3Z"/><path class="cls-53" d="M332.78,405.57h0a.22.22,0,0,1-.17-.26,46.94,46.94,0,0,0-1.5-15.88c-.25-1.06-.47-2.06-.67-3.07-1.1-5.5-1.58-7.62-2.08-9.86-.33-1.47-.67-3-1.2-5.5a.25.25,0,0,1,.14-.3.2.2,0,0,1,.23.17c.53,2.53.87,4,1.2,5.5.5,2.25,1,4.37,2.08,9.88.2,1,.42,2,.67,3.05A47.38,47.38,0,0,1,333,405.36.21.21,0,0,1,332.78,405.57Z"/><path class="cls-51" d="M361.86,321.21l1,2.38s1,2.86,2.3,1.79c1.07-.88,1.26-.8,1.3-.74a0,0,0,0,1,0,0s0-.56,0-1.07a9.23,9.23,0,0,1,.55,3.14c0,1.31,0,2.72-1,3.8a3.86,3.86,0,0,1-2.7,1.15,10.32,10.32,0,0,1-2.85-1.07s3.09-1.19,3.25-1.62c.43-1.19-1.08-2.29-1.67-5.12A10.29,10.29,0,0,1,361.86,321.21Z"/><path class="cls-54" d="M430.53,368a12.41,12.41,0,0,1,4.08,5.08,37.65,37.65,0,0,1-13.16,16.39c-12.72,8.71-31.38,9-44.37-.93-15.52-11.86-18.12-34.6-11.6-44.34.75-1.12,3.22-4.81,7-5.23,2.42-.27,5.71.73,10.92,6.82,10.84,12.69,7,20.62,13.41,24.33C406.47,375.66,420.74,361.12,430.53,368Z"/><path class="cls-53" d="M386.83,393.94h-.05c-.15,0-15.41-3.54-22.27-22.45a.23.23,0,0,1,.44-.16c6.77,18.67,21.78,22.12,21.93,22.15a.24.24,0,0,1-.05.47Z"/><path class="cls-55" d="M323.08,975.69s14.54,5.15,14.86,6.15-9,.43-12.78.9-7-.37-6.75-2,1.18-5.75,1.18-5.75Z"/><path class="cls-56" d="M323.15,970.48l-.31,6.37s-2.15,1-3.71.18l-1.23-6.85Z"/><path class="cls-57" d="M257.27,976.31l-1.4,2.75a3.15,3.15,0,0,0-.16,2.48c.75,2.12,2.26,6.26,2.85,7.32.8,1.45,9.93,1.56,9.93,1.56s.71-1.21-1.29-2.42-3.22-1.32-4.06-3.29a52.81,52.81,0,0,1-1.77-7.66Z"/><path class="cls-58" d="M263.47,969.09c-.55.52-2.7,9.6-2.7,9.6s-.83,1.28-2.78-.34-.87-.72-.87-.72l-.42-8.71Z"/><path class="cls-59" d="M319.94,843.26c2.36,18.73,4.15,39.14,4.95,61,.9,24.67.41,47.58-.9,68.42-1.15.14-2.35.25-3.61.32-.85.05-1.68.08-2.48.09A156.75,156.75,0,0,1,311.29,957a160.73,160.73,0,0,1-5.3-19.1c-4.52-21-1.53-23.18-5.07-38.77C297.78,885.33,295,885,290,865.47c-5.36-21.22-3-24.67-1.86-26C293.15,834.09,306.14,836.37,319.94,843.26Z"/><path class="cls-60" d="M288.17,839.52c4.75-5.18,16.79-3.33,29.87,2.83-13,16.71-13.69,26.89-11.41,33.25,2.57,7.2,8.66,8.81,9.33,16.87.82,9.89-7.88,13.28-6.79,23.74.72,6.91,4.64,6.5,6.3,15,2,10-2.85,14-.55,21.3,1,3.16,3.4,7.19,9.58,11-.16,3.11-.32,6.19-.51,9.21-1.15.14-2.35.25-3.61.32-.85.05-1.68.08-2.48.09A156.75,156.75,0,0,1,311.29,957a160.73,160.73,0,0,1-5.3-19.1c-4.52-21-1.53-23.18-5.07-38.77C297.78,885.33,295,885,290,865.47,284.67,844.25,287,840.8,288.17,839.52Z"/><path class="cls-59" d="M296.25,845a468.74,468.74,0,0,0-23.59,69.94,505,505,0,0,0-11,57.77,4.77,4.77,0,0,1-3.18.92,5.9,5.9,0,0,1-3.88-2.21,154.87,154.87,0,0,1-3.42-29.89,129.44,129.44,0,0,1,1.36-22.81c1.72-11.21,3.5-12,6-23.91,2.57-12.37,1.43-15.31,3.59-30.7A239.43,239.43,0,0,1,267.51,837Z"/><path class="cls-61" d="M359.07,813.83c.27,4.4-6.6,8.9-12.29,10.6-13.32,4-29.92-4.5-38.35-14.74-1.66-2-3.52-4.46-3.89-4.23-.85.54,8.49,13.21,13.38,28.14,2.5,7.64,2.35,11.33,6.19,16.22.87,1.11,1.92,2.25,1.71,3.67-.52,3.56-8.41,5.17-13.88,6.28a128.12,128.12,0,0,1-16.6,2c-8.63.63-9.34.25-11.22,1.39-5.73,3.47-4.7,10.47-9.13,11.81-3.71,1.13-7.92-2.76-9.26-4-7-6.41-7.35-14.84-9.22-23.21-4.36-19.46-17-40.09-28.64-52.82-3.54-3.86-5.94-5.84-6.42-9.68C220,774,236.84,760,251.62,757.19A112.72,112.72,0,0,1,269.91,756c2.76,0,5.72.14,8.9.41,7.73.66,13.1,1.11,18.72,3.11,22.64,8,19.86,30.61,44.77,43.85C350.87,807.87,358.78,809.23,359.07,813.83Z"/><path class="cls-62" d="M239.82,861.83c-5.91,1.06-19.3,2.49-29.57-5.45-17.08-13.21-11.71-41.71-7.28-54.16,5.09-14.27,14.44-22.84,20.13-28,7.05-6.46,11.35-10.4,17-10.1,14.55.77,27.11,29.33,20,38.46-2.34,3-5,1.65-12.29,4.69-2.37,1-20,8.38-22,22-1.38,9.55,5.22,20,15.9,26.49C241.05,857.78,240.43,859.8,239.82,861.83Z"/><path class="cls-63" d="M263,744.37a32.57,32.57,0,0,1-2.29,9.2c-1.65,3.53-9.58,5.44-11.21,6.17s2.84,3.28,7.4,3.94,17.7.2,20.13-1.43-1.82-1.69-5-3-4.83-7.82-4.12-10.7S263,744.37,263,744.37Z"/><path class="cls-64" d="M271.4,742.1c3-2.6,3.38-9,1.46-10.19-.55-.36-1-.13-8.08,3.45-3.51,1.78-5.23,2.72-5.67,4.37a5.07,5.07,0,0,0,.39,3.34,12.8,12.8,0,0,0,1.71,2.35c.88,1.06.83,1,1.1,1.33a17.64,17.64,0,0,0,4.06,3.33,12.35,12.35,0,0,1,.41-2.12,11.21,11.21,0,0,1,1.11-2.58C269,743.56,270.42,743,271.4,742.1Z"/><path class="cls-65" d="M263.62,748.8a6.78,6.78,0,0,0,6.3,2.2c3.48-.7,2.95-8.65.48-10a4.49,4.49,0,0,0-3.53,0c-.69.29-.9.63-2,1.09s-1.38.35-1.67.67-.55,1.29.44,3.51a1.93,1.93,0,0,0-2.14-.4,1.18,1.18,0,0,0-.4.52C260.69,747.34,261.66,748.38,263.62,748.8Z"/><path class="cls-66" d="M306.06,851.33c-7.11-3.71-8.46-8-16.26-10.25-10.13-3-14.45,2.23-19.64-1.26-6.17-4.16-1.71-12.65-7.2-26.3-.93-2.31-8-19.9-21-21.15-6.06-.58-13.77,2.36-16.4,7.68-2.06,4.16.41,6.94-2.13,11.55s-6.08,3.83-9.47,7.78c-5.38,6.28-5.27,18.57.59,25,2.73,3,6,4,12.27,5.93a57.39,57.39,0,0,0,10.3,2.13c-8-6.48-12.56-15.31-11.33-23.45,1.29-8.5,8.65-14.54,14.58-18.11,7.15,11.14,13.32,24.23,16.06,36.81,1.82,8.38,2.17,16.81,9.07,23.26,1.33,1.24,5.52,5.15,9.24,4,4.44-1.31,3.45-8.32,9.2-11.76,1.89-1.13,2.6-.73,11.23-1.32a127.87,127.87,0,0,0,16.62-1.89c4.87-1,11.64-2.31,13.46-5.09C316.34,855.48,310.21,853.5,306.06,851.33Z"/><path class="cls-67" d="M340,814.84c-10-1.34-14-.92-19.16-4.41-8.67-5.81-10.77-15.63-15.46-15.09-2.22.25-3.83,2.69-4.92,5l4.05,5.25a.17.17,0,0,1,.05-.15c.37-.23,2.23,2.22,3.89,4.23,8.43,10.24,25,18.71,38.35,14.74,3.82-1.14,8.15-3.54,10.52-6.32A170.92,170.92,0,0,0,340,814.84Z"/><path class="cls-3" d="M225,882.28l-1.6-2.86a9.19,9.19,0,0,1,3.93-12.69L435.42,750.51l.86,5.16L238.07,886.06A9.85,9.85,0,0,1,225,882.28Z"/><path class="cls-68" d="M240.21,860.52l1-3.41a6.81,6.81,0,0,0,3.84-1.49,5.2,5.2,0,0,1,3.12-1c.51.1,2.39-.15.33,1.06s-2,2-1,2.74,4.54,2.28,5.78,2.25-.82,2.08-2,2.43a7.66,7.66,0,0,1-5.86-.42C244.46,862.17,240.21,860.52,240.21,860.52Z"/><path class="cls-69" d="M353.31,810.22a38.19,38.19,0,0,0,6.8-6.06c2.21-2.86,5.07-2.13,5.49-.75s-3.38,5.77-5.25,6.89S353.31,810.22,353.31,810.22Z"/><path class="cls-70" d="M435.32,752.54c21.88-26.26,139.15-64.33,193.41-46.39,8.25,24.55,8.07,44.32,7,56-5.65,61.89-55,104.11-74,116-9.92,6.21-19.4,9-34.57,21.44-9.55,7.82-15.39,14.56-20.12,12.69-5-2-5.93-12.57-5.26-19.69,2-21.18,19.31-25.62,19.26-38.51-.06-15.2-24.12-20.57-47.26-41.13C461.59,802.05,446.15,783.85,435.32,752.54Z"/><path class="cls-71" d="M453.77,760c-17.08,0-20.25-3.71-21-6.76-.88-3.69,1-9.88,27.45-20.8,17.82-7.37,42-14.85,68.16-21.07s51.12-10.44,70.35-11.9c28.53-2.15,33,2.52,33.88,6.22s-1,9.87-27.45,20.8c-17.82,7.37-42,14.85-68.17,21.07S485.9,758,466.68,759.47C461.67,759.85,457.4,760,453.77,760ZM611.59,704.2c-3.49,0-7.74.17-12.9.57-18.9,1.46-43.42,5.63-69.06,11.73s-49.41,13.43-66.94,20.63c-24.35,10-24.79,14.88-24.79,14.92s2.6,4.19,28.85,2.15c18.9-1.46,43.42-5.63,69.06-11.73s49.41-13.43,66.94-20.63c24.2-9.94,24.78-14.82,24.78-14.92S625.74,704.2,611.59,704.2Z"/><path class="cls-72" d="M476.64,684.13l-.26-.33-.32-.39c-.21-.26-.44-.52-.68-.77-.46-.52-1-1-1.46-1.48a22.93,22.93,0,0,0-3.23-2.48,15.2,15.2,0,0,0-7-2.42c-.29,0-.58,0-.87,0l-.87,0a17.12,17.12,0,0,0-1.73.24c-.57.08-1.14.28-1.71.42s-1.12.38-1.68.66a26,26,0,0,0-6.42,4.22,6,6,0,1,1-7.93-9.07,5.62,5.62,0,0,1,.75-.56l.15-.09a36.5,36.5,0,0,1,10.2-4.52,26.63,26.63,0,0,1,2.85-.58,24.11,24.11,0,0,1,2.95-.24,24.73,24.73,0,0,1,3,.1l1.48.21c.49.08,1,.21,1.45.31a23.76,23.76,0,0,1,10,5.31,30.1,30.1,0,0,1,3.69,3.9c.54.7,1.06,1.41,1.55,2.15.24.37.47.74.7,1.12.12.19.23.39.34.59l.37.67a3,3,0,0,1-4.87,3.52Z"/><path class="cls-73" d="M588.68,668.66l.1-.75c0-.22.07-.45.11-.67.08-.44.17-.87.26-1.3.19-.86.43-1.71.69-2.56a30.71,30.71,0,0,1,2.07-5,23.72,23.72,0,0,1,7.48-8.5c.41-.27.82-.56,1.25-.8l1.31-.72a23.5,23.5,0,0,1,2.75-1.15,26.21,26.21,0,0,1,2.84-.82c1-.17,1.93-.39,2.88-.46a36.35,36.35,0,0,1,11.13.62l.15,0a6,6,0,1,1-2.36,11.81,7.09,7.09,0,0,1-.93-.26,25.94,25.94,0,0,0-7.49-1.68c-.62-.06-1.2,0-1.81,0a17.05,17.05,0,0,0-1.75.21,12.66,12.66,0,0,0-1.7.39l-.82.29c-.27.09-.53.23-.8.34a15.28,15.28,0,0,0-5.68,4.73,23.62,23.62,0,0,0-2.14,3.46c-.3.62-.59,1.25-.85,1.9-.12.32-.25.64-.36,1l-.16.48a3.8,3.8,0,0,1-.13.4l-.24.6a3,3,0,0,1-5.8-1.58Z"/><path class="cls-74" d="M468.74,723.06l-.37-.18-.46-.21c-.31-.15-.63-.28-1-.41-.64-.26-1.3-.48-2-.69a21.69,21.69,0,0,0-4-.83,15.06,15.06,0,0,0-7.34.85c-.27.12-.55.21-.8.34l-.78.4a15.15,15.15,0,0,0-1.45,1,16,16,0,0,0-1.36,1.13,17.27,17.27,0,0,0-1.23,1.32,26,26,0,0,0-3.95,6.58A6,6,0,0,1,433,727.6a5.92,5.92,0,0,1,.43-.83l.1-.15a36.49,36.49,0,0,1,7.22-8.49,29,29,0,0,1,2.32-1.77,27,27,0,0,1,2.55-1.5,24.56,24.56,0,0,1,2.73-1.2l1.42-.45c.48-.15,1-.24,1.45-.35a23.63,23.63,0,0,1,11.31.44,29.91,29.91,0,0,1,5,1.91c.79.39,1.56.8,2.32,1.26.38.23.75.46,1.13.71l.56.38.61.45a3,3,0,0,1-2.85,5.28Z"/><path class="cls-75" d="M485.4,762.16l-.42.08-.49.09-1,.23c-.67.16-1.34.37-2,.59a22.7,22.7,0,0,0-3.72,1.65,15.34,15.34,0,0,0-5.45,5c-.15.26-.32.49-.45.75l-.39.78a15.2,15.2,0,0,0-.62,1.63c-.2.54-.29,1.14-.44,1.7s-.2,1.17-.22,1.8a25.65,25.65,0,0,0,.66,7.65A6,6,0,1,1,459,785.84v-.18a36.47,36.47,0,0,1,.88-11.12,28.71,28.71,0,0,1,.84-2.79,28.2,28.2,0,0,1,1.19-2.71,26.57,26.57,0,0,1,1.51-2.57l.89-1.2c.3-.39.64-.75,1-1.13a23.86,23.86,0,0,1,9.43-6.27,29.49,29.49,0,0,1,5.19-1.38c.87-.15,1.74-.27,2.62-.35l1.33-.08.68,0h.76a3,3,0,0,1,.78,6Z"/><path class="cls-76" d="M597.78,700.1l.35-.68c.11-.2.21-.4.33-.59.21-.4.44-.77.67-1.15.47-.75,1-1.47,1.5-2.18a29.89,29.89,0,0,1,3.59-4,23.71,23.71,0,0,1,9.87-5.55c.48-.12,1-.26,1.45-.35l1.47-.24a24.54,24.54,0,0,1,3-.18,26.56,26.56,0,0,1,3,.17,27.83,27.83,0,0,1,2.87.52,36.26,36.26,0,0,1,10.3,4.26l.12.07a6,6,0,0,1-6.13,10.38,9.29,9.29,0,0,1-.79-.56A25.76,25.76,0,0,0,622.8,696c-.57-.27-1.13-.41-1.7-.62S620,695,619.38,695a14.52,14.52,0,0,0-1.73-.19h-.87c-.3,0-.58,0-.88.06a15.19,15.19,0,0,0-6.92,2.59,23.53,23.53,0,0,0-3.16,2.55c-.49.49-1,1-1.43,1.51-.23.26-.45.53-.66.8l-.31.39c-.09.12-.2.29-.25.34l-.43.48a3,3,0,0,1-5-3.4Z"/><path class="cls-77" d="M588.19,747.51l.72-.26.65-.21c.42-.13.85-.25,1.28-.36.85-.23,1.71-.4,2.58-.56a29.57,29.57,0,0,1,5.35-.42,23.59,23.59,0,0,1,11,2.74c.42.25.87.47,1.28.75l1.24.83a25.5,25.5,0,0,1,4.32,4.07c.58.77,1.22,1.53,1.72,2.35a36.29,36.29,0,0,1,4.56,10.17l0,.14a6,6,0,1,1-11.59,3.32,7.83,7.83,0,0,1-.19-.94,25.92,25.92,0,0,0-1.94-7.43c-.23-.58-.54-1.07-.81-1.62s-.61-1-1-1.45a14.55,14.55,0,0,0-1.13-1.34l-.63-.59c-.21-.21-.45-.37-.68-.56a15.19,15.19,0,0,0-6.81-2.87,22.45,22.45,0,0,0-4-.32c-.69,0-1.39,0-2.08.11l-1,.12-.5.08c-.14,0-.34.07-.41.07l-.64,0a3,3,0,0,1-1.27-5.87Z"/><path class="cls-78" d="M604.45,715.42c-2.45,33.93-25.72,84-65.42,85.33-37.74,1.25-67.4-40.11-70.67-76.57-4.09-45.65,32.25-94.41,70.67-94.08,29.63.24,50.39,29.6,52.29,32.38C606.35,684.36,605,707.31,604.45,715.42Z"/><path class="cls-79" d="M591.32,662.48c-1.9-2.78-22.66-32.14-52.29-32.38-22-.19-43.33,15.74-56.77,37.95A191.29,191.29,0,0,1,531.41,658,167.07,167.07,0,0,1,593,665.05C592.46,664.19,591.91,663.33,591.32,662.48Z"/><path class="cls-80" d="M531.41,658c-5.06,21.34-15.13,75.07-7.77,140.93A50.89,50.89,0,0,0,539,800.75c39.7-1.3,63-51.4,65.42-85.33.56-7.8,1.79-29.28-11.45-50.37A167.07,167.07,0,0,0,531.41,658Z"/><path class="cls-81" d="M531.41,658a191.29,191.29,0,0,0-49.15,10.09c-10,16.57-15.65,36.63-13.9,56.13,2.81,31.33,25.11,66.29,55.28,74.71C516.28,733,526.35,679.3,531.41,658Z"/><g class="cls-82"><path class="cls-8" d="M591.32,662.48c-1.64-2.4-17.32-24.57-40.61-30.78,24.14,19.45,30,34.13,28.36,45.22-3.48,23.53-40.81,31.54-41.13,57.32-.27,20.76,23.77,29.21,21.44,42.45-1.28,7.25-10.32,15.09-39.41,21a51.25,51.25,0,0,0,19.06,3c39.7-1.3,63-51.4,65.42-85.33C605,707.31,606.35,684.36,591.32,662.48Z"/></g><path class="cls-83" d="M556,638.08c.14-3.3.41-6.5.74-9.74s.74-6.45,1.23-9.66,1-6.42,1.7-9.62,1.4-6.37,2.22-9.54a118.72,118.72,0,0,1,6.57-18.67l.52-1.14.56-1.12c.38-.75.74-1.5,1.14-2.25.82-1.47,1.62-3,2.55-4.38s1.91-2.83,2.89-4.24,2.14-2.72,3.36-4l.9-1c.29-.32.63-.61,1-.92l1-.9c.33-.3.64-.62,1-.89l2.11-1.66c.35-.29.69-.51,1-.76l1-.73a44.74,44.74,0,0,1,9.38-5,21.58,21.58,0,0,1,5.88-1.38,14.3,14.3,0,0,1,3.54.15,11.2,11.2,0,0,1,3.83,1.42,10.19,10.19,0,0,1,3.18,3,11.52,11.52,0,0,1,1.7,3.66,16.69,16.69,0,0,1,.3,6.8,24.34,24.34,0,0,1-1.66,5.84,28.94,28.94,0,0,1-2.81,5.13,29.87,29.87,0,0,1-3.71,4.46,28.7,28.7,0,0,1-2.16,2l-.57.46-.54.42c-.36.27-.73.55-1.11.82-.76.54-1.58,1.08-2.48,1.6a16.72,16.72,0,0,1-3.26,1.46c-.33.1-.72.2-1.09.29l-.64.11-.69.07a8.41,8.41,0,0,1-3.56-.48,7.77,7.77,0,0,1-3.49-2.6,9.12,9.12,0,0,1-1.46-3,12.47,12.47,0,0,1-.43-2.28,15.24,15.24,0,0,1-.07-1.87,25,25,0,0,1,.27-3.16c.14-1,.33-1.92.54-2.84.1-.46.21-.91.33-1.37l.19-.68.1-.35.13-.41v0a6,6,0,0,1,11.48,3.55c0,.14-.09.28-.14.41a1.65,1.65,0,0,0-.07.16l-.07.23-.16.46c-.11.32-.2.64-.3,1-.18.64-.34,1.28-.46,1.88a13.49,13.49,0,0,0-.25,1.62c-.05.43,0,.79-.05.63a2.9,2.9,0,0,0-.45-.78,4.33,4.33,0,0,0-.68-.67,4.09,4.09,0,0,0-.92-.49,2.61,2.61,0,0,0-1.19-.18l-.1,0,0,0s0,0,.08,0a5.11,5.11,0,0,0,1.16-.45c.5-.25,1.05-.56,1.62-.92.28-.18.57-.36.85-.56l.44-.3.38-.28a18.79,18.79,0,0,0,1.48-1.19,20.22,20.22,0,0,0,2.6-2.79,18.26,18.26,0,0,0,2-3.21,13.87,13.87,0,0,0,1.18-3.33,7.46,7.46,0,0,0,.12-2.77,2.5,2.5,0,0,0-.23-.73,1,1,0,0,0-.26-.34,1.65,1.65,0,0,0-.64-.3,5,5,0,0,0-1.26-.12,12.53,12.53,0,0,0-3.5.64,36.85,36.85,0,0,0-7.77,3.67l-1,.59c-.31.21-.66.4-.93.61l-1.75,1.23a10.72,10.72,0,0,0-.84.67l-.83.69c-.27.24-.56.45-.82.71l-.79.76c-1.08,1-2,2.12-3,3.22s-1.89,2.32-2.73,3.58-1.69,2.52-2.51,3.81c-.4.65-.77,1.33-1.15,2l-.57,1-.54,1a113,113,0,0,0-7.15,17.3q-1.44,4.51-2.66,9.1t-2.16,9.27q-1,4.66-1.71,9.38c-.49,3.13-.93,6.31-1.24,9.42v0a1.81,1.81,0,0,1-3.61-.26Z"/><path class="cls-84" d="M510,641.36c-.31-3.11-.75-6.29-1.24-9.42s-1.07-6.27-1.71-9.38-1.37-6.2-2.16-9.26-1.7-6.1-2.66-9.1a112.54,112.54,0,0,0-7.15-17.3l-.54-1-.57-1c-.38-.67-.75-1.34-1.15-2-.82-1.28-1.61-2.59-2.51-3.8s-1.81-2.41-2.73-3.58-2-2.24-3-3.22l-.79-.77c-.26-.25-.55-.47-.82-.7l-.83-.7a10.72,10.72,0,0,0-.84-.67l-1.75-1.23c-.27-.2-.62-.4-.93-.6s-.65-.4-1-.59a36.65,36.65,0,0,0-7.77-3.68,12.91,12.91,0,0,0-3.5-.64,4.51,4.51,0,0,0-1.26.13,1.67,1.67,0,0,0-.64.29.94.94,0,0,0-.26.35,2.42,2.42,0,0,0-.23.72A7.46,7.46,0,0,0,464,567a13.93,13.93,0,0,0,1.18,3.34,18.55,18.55,0,0,0,2,3.2,20.22,20.22,0,0,0,2.6,2.79,18.91,18.91,0,0,0,1.48,1.2l.38.27.44.3c.28.2.57.38.85.56a16.55,16.55,0,0,0,1.62.92,4.66,4.66,0,0,0,1.16.45.13.13,0,0,0,.08,0l0,0h-.1a2.55,2.55,0,0,0-1.19.17,3.77,3.77,0,0,0-.92.5,3.61,3.61,0,0,0-.68.67,2.92,2.92,0,0,0-.45.77c-.05.17,0-.2-.05-.63a13.49,13.49,0,0,0-.25-1.62c-.12-.6-.28-1.23-.46-1.87-.1-.32-.19-.65-.3-1l-.16-.47-.07-.22a1.26,1.26,0,0,0-.07-.17,6,6,0,0,1,11.19-4.36,3,3,0,0,1,.14.39l0,.06.13.41.1.35.19.69c.12.45.23.9.33,1.36.21.92.4,1.85.54,2.84A25.17,25.17,0,0,1,484,581a15.31,15.31,0,0,1-.07,1.87,12.79,12.79,0,0,1-.43,2.28,9.18,9.18,0,0,1-1.46,2.94,8.1,8.1,0,0,1-1.52,1.52,7.76,7.76,0,0,1-2,1.08,8.43,8.43,0,0,1-3.56.49l-.69-.08-.64-.11c-.37-.09-.76-.18-1.09-.29a16.72,16.72,0,0,1-3.26-1.46,28.72,28.72,0,0,1-2.48-1.6c-.38-.27-.75-.54-1.11-.82l-.54-.42-.57-.46c-.75-.62-1.48-1.27-2.16-2a30.47,30.47,0,0,1-3.71-4.47,28.94,28.94,0,0,1-2.81-5.13,24.34,24.34,0,0,1-1.66-5.84,16.7,16.7,0,0,1,.3-6.8,11.72,11.72,0,0,1,1.7-3.66,10.19,10.19,0,0,1,3.18-3,11.2,11.2,0,0,1,3.83-1.42,14.3,14.3,0,0,1,3.54-.15A21.58,21.58,0,0,1,472.7,555a44.44,44.44,0,0,1,9.37,5c.36.23.71.47,1.06.72s.69.47,1,.76l2.11,1.66c.36.27.67.59,1,.89l1,.9c.32.31.66.6.95.92l.9,1c1.22,1.25,2.27,2.63,3.36,4s2,2.78,2.89,4.23,1.73,2.92,2.55,4.39c.4.74.76,1.5,1.14,2.24l.56,1.13.52,1.14a118.26,118.26,0,0,1,6.57,18.66c.82,3.17,1.57,6.35,2.22,9.54s1.21,6.41,1.7,9.62.89,6.43,1.23,9.66.6,6.45.74,9.75a1.81,1.81,0,0,1-3.61.26Z"/><path class="cls-23" d="M628.73,706.15c-11.31,43.2-27.82,57.91-42,62.58-23.81,7.84-44.53-11.46-65.2,1.75-11,7-19.5,21.73-18.38,35.44,2.24,27.58,42.12,37.86,38.51,54.26-2.37,10.73-20,9.07-30.64,28.45-5.16,9.43-7.37,21.48-3.93,23.63,3,1.87,9.5-4,20.12-12.69,15.17-12.41,24.65-15.23,34.57-21.44,18.92-11.85,68.31-54.07,74-116C636.8,750.47,637,730.7,628.73,706.15Z"/><path class="cls-85" d="M632.64,705.71c-.56-2.35-2.56-5.08-11.22-6.22q-3.17,2.46-6.45,4.77c11.06.38,12.53,2.59,12.56,2.66s-.58,5-24.78,14.92c-17.53,7.2-41.3,14.53-66.94,20.63s-50.16,10.27-69.06,11.73c-26.25,2-28.83-2.11-28.85-2.15s.28-3.14,12.72-9.46c-2.13-.78-4.23-1.63-6.29-2.59-11.31,6.4-12.19,10.52-11.53,13.26.72,3,3.89,6.76,21,6.76,3.63,0,7.9-.17,12.91-.55C485.9,758,510.89,753.8,537,747.58s50.35-13.7,68.17-21.07C631.63,715.58,633.52,709.4,632.64,705.71Z"/><path class="cls-86" d="M749.85,678.2s-2.42-1.59-2.44-3.2-1.67-7.22-2.47-7.21-.78,3.22,0,4,0,1.61-.78,1.61-4-2.37-6.48-4.76,0,1.61.84,3.21,1.65,4.8,3.26,5.59a38.23,38.23,0,0,0,4,1.58l2.43,1.58Z"/><path class="cls-87" d="M766.32,636.52c-1-1.72-1.91-3.12-2.54-4.12a.26.26,0,0,0-.46.23l1.54,3.89s-5.13-8.78-5.13-7.32,2.93,5.86,2.93,5.86-6.59-7.32-6.59-5.86,4.4,6.59,4.4,6.59-4.4-2.93-5.86-2.93,2.93,3.66,5.12,5.86c2.41,2.4,2.58,3,2.4,3.37-.49.89-4.15-.39-4.28,0s1.52,1.1,3.35,1.75a45.32,45.32,0,0,0,6.59,1.46l2.92-1.46Z"/><path class="cls-51" d="M913.92,913.09a2.67,2.67,0,0,1,.63,1.54,2.53,2.53,0,0,1-.19,1c-.57,1.49-1.46,1.69-2.42,3.28-.59,1-.48,1.26-1,1.69a3.5,3.5,0,0,1-2.31.62,42.11,42.11,0,0,1-5.34-.3q1.79-2.31,3.81-4.68c.59-.7,1.19-1.37,1.78-2l3.51-1.19Z"/><path class="cls-88" d="M911,896.05s-2,10.47.55,13.4c2.17,2.93-1,.84-1,.84l-3.86,3.36-2.31,4s2.13-10.25,1.56-14.32-.85-6.81-.85-6.81Z"/><path class="cls-89" d="M910.46,908c.95,0,1.65.77,2.17,2.59s3,3.43.11,3-5.08,3.78-6.13,5.32-3.87,2.91-3.8,1.41,1.31-2.21,1.66-3.75S908.29,908,910.46,908Z"/><path class="cls-90" d="M886.84,758.22c1.4.55,4.64,2.29,10.45,27.32,3.73,16.08,3.45,19.89,6.43,29.74,4,13.21,8.2,18.55,11.25,25.72,4.84,11.34,7.69,29.33-2.41,57.86l-8,3.21a148.39,148.39,0,0,0-2.41-33.75,190.47,190.47,0,0,0-26.52-65.9c-8.78-12.7-14.94-17.46-13.66-25.72C863.7,765.22,878.62,755,886.84,758.22Z"/><g class="cls-25"><path class="cls-91" d="M909.34,874.75c-1.79-16.24,2.27-19.72-.8-32.15-4.58-18.55-16.16-21.05-18.48-36.16-.95-6.12-.44-14.83,5.94-26.23-5-20-7.87-21.48-9.16-22-8.22-3.23-23.14,7-24.91,18.48-1.28,8.26,4.88,13,13.66,25.72a190.47,190.47,0,0,1,26.52,65.9,148.39,148.39,0,0,1,2.41,33.75l8-3.21c.48-1.35.92-2.67,1.34-4A92.65,92.65,0,0,1,909.34,874.75Z"/></g><path class="cls-51" d="M891.94,918a3.2,3.2,0,0,1,.75,1.83,2.94,2.94,0,0,1-.23,1.23c-.68,1.78-1.74,2-2.88,3.9-.7,1.15-.57,1.5-1.21,2a4.2,4.2,0,0,1-2.76.74,49,49,0,0,1-6.36-.36c1.42-1.83,2.93-3.7,4.54-5.58.71-.82,1.41-1.63,2.11-2.41l4.19-1.42Z"/><path class="cls-92" d="M888.46,897.65s-2.39,12.48.65,16c2.59,3.5-1.25,1-1.25,1l-4.59,4-2.76,4.76s2.54-12.21,1.86-17.06-1-8.11-1-8.11Z"/><path class="cls-89" d="M887.82,911.87c1.13,0,2,.92,2.58,3.09s3.63,4.09.13,3.63-6,4.5-7.3,6.34-4.62,3.47-4.53,1.67,1.56-2.63,2-4.47S885.23,911.83,887.82,911.87Z"/><path class="cls-93" d="M843.44,785.54a504.34,504.34,0,0,1,36.17,119.75,17.37,17.37,0,0,0,10.45,0,113.27,113.27,0,0,0,1.6-41c-2.12-14.38-5-14-8-28.93-5-25.19,1.58-34.62-4.82-61.88-4-16.87-7.67-18.2-8.85-18.49C860.84,752.82,848,776.69,843.44,785.54Z"/><path class="cls-59" d="M769.38,641.47q-1.41,2.14-2.84,4.29A104.8,104.8,0,0,1,800.32,672c13.82,16.49,17.39,31.82,26.35,32.05,4.19.11,10.38-3.06,18.25-19.38a105.61,105.61,0,0,0-26.92-26A106.91,106.91,0,0,0,769.38,641.47Z"/><path class="cls-59" d="M833,686.69c-13,11.39-19.52,17.09-21.7,17.68-7.87,2.14-13.07-5.73-28.13-14.46a115,115,0,0,0-33.75-12.86l-3.22,4.82a171.43,171.43,0,0,0,19.29,21.7c16.7,15.86,23,15.37,37,28.13,5.94,5.42,22.87,21.19,32.14,45.81,7.28,19.32,6.26,34.56,12.06,35.36,3.52.48,4.78-5,15.27-16.08,7.6-8,14.33-15.11,24.91-20.09,5.51-2.59,9.57-3.44,16.07-8,5.33-3.77,9.82-6.93,9.65-10.45-.3-6.28-15-5.07-28.13-15.27-8.09-6.29-6-9.49-25.72-41-7.43-11.9-13.05-20-19.28-19.29C837.3,682.9,836,684,833,686.69Z"/><path class="cls-94" d="M814.11,693.52l3.22,8s7.23-4,8.84-7.23l-7.24-5.63Z"/><path class="cls-95" d="M810.89,683.61c-2.83-3.75-1.63-11.13.9-12.07.72-.28,1.21.11,8.41,6,3.58,2.93,5.31,4.43,5.41,6.45a6,6,0,0,1-1.29,3.73,15.14,15.14,0,0,1-2.56,2.27c-1.28,1-1.21,1-1.6,1.25a20.86,20.86,0,0,1-5.5,2.8,15.64,15.64,0,0,0,.06-2.54,13.41,13.41,0,0,0-.62-3.24C813.27,685.89,811.81,684.83,810.89,683.61Z"/><path class="cls-96" d="M818.14,693.26a8,8,0,0,1-7.78.94c-3.83-1.68-1.21-10.68,2-11.63a5.25,5.25,0,0,1,4,.9c.73.52.88.95,2.07,1.77s1.5.75,1.75,1.19.31,1.63-1.39,3.92a2.26,2.26,0,0,1,2.55.08,1.32,1.32,0,0,1,.34.69C821.88,692.33,820.49,693.28,818.14,693.26Z"/><path class="cls-97" d="M887.65,763.84c-18.56,6.45-25.1,23.46-32.95,20.9-9.54-3.11-1-28.56-16.88-41.79-9.13-7.62-16.58-3.05-26.52-12.86-8.33-8.22-5.65-14-13.66-20.89-8.78-7.61-17.08-5.15-28.13-8.85a45.12,45.12,0,0,1-16.93-10.46,173.07,173.07,0,0,0,12.91,13.68c16.7,15.86,23,15.37,37,28.13,5.94,5.42,22.87,21.19,32.14,45.81,7.28,19.32,6.26,34.56,12.06,35.36,3.52.48,4.78-5,15.27-16.08,7.6-8,14.33-15.11,24.91-20.09,5.51-2.59,9.57-3.44,16.07-8,3.27-2.31,6.21-4.39,8-6.47A47.1,47.1,0,0,0,887.65,763.84Z"/><path class="cls-98" d="M1190.58,684.23s-3.26-1.63-4.08-3.26-4.07-3.26-5.7-4.89a16.62,16.62,0,0,1-2.57-4.14.64.64,0,0,1,.84-.86,34.28,34.28,0,0,0,5,1.74c3.26.82,4.89,6.52,4.89,6.52l3.26,4.08Z"/><path class="cls-99" d="M1191.4,681l-3.27,2.45c2.11,5.6,5.3,13.56,9.79,22.82,13.37,27.64,27.9,57.91,46.46,57.88,9.15,0,18.67-7.37,19.57-14.67,1-8.25-9.1-15.39-17.94-22A601.79,601.79,0,0,1,1191.4,681Z"/><path class="cls-100" d="M1167.32,817.29a1.18,1.18,0,0,1-.84-.35c-17.78-17.38-25.46-32.89-22.85-46.1,2-10,9.16-15.85,16.75-22,7.23-5.87,14.71-12,19.5-22.45,6.42-14,5.75-31.37-2-51.54L960.32,390.6,747.84,227a22.76,22.76,0,0,0-7.24-3.67,15.23,15.23,0,0,1-9.1-7,1.2,1.2,0,1,1,2.08-1.2,12.79,12.79,0,0,0,7.73,5.89,25.28,25.28,0,0,1,8,4.05L962,388.88l218,284.76.07.16c8,20.87,8.68,38.89,2,53.58-5,11-13.08,17.54-20.18,23.32-7.56,6.13-14.08,11.44-15.9,20.61-2.45,12.36,5,27.13,22.16,43.91a1.21,1.21,0,0,1-.84,2.07Z"/><path class="cls-101" d="M1166.71,907.82s-11.2,2.72-13.56,3.81,6.48,1.63,10.61,2.18,4.72,0,4.72,0a25.13,25.13,0,0,1,2.35-3.27C1172.11,909,1166.71,907.82,1166.71,907.82Z"/><path class="cls-102" d="M1172.6,903.12l-6.27,5.64a3.13,3.13,0,0,0,3.13,1.88l6.89-5Z"/><path class="cls-103" d="M1256.61,812.22a60,60,0,0,1-6.52,19.57c-11.11,20.46-26.07,18.07-40.76,39.94-6.11,9.1-7.26,15-16.3,23.64a68.18,68.18,0,0,1-16.31,11.42l-7.34-4.08c3.65-5.8,9.46-15.17,16.31-26.9,21.41-36.69,25.7-49.78,40.76-57.88C1232.22,814.82,1241.85,811.22,1256.61,812.22Z"/><g class="cls-25"><path class="cls-104" d="M1201.18,863.58c8.75-10.47,15.61-8.36,26.9-17.12,7.49-5.8,16.19-15.82,21.75-34.37-11,.3-18.55,3.24-23.38,5.84-15.06,8.1-19.35,21.19-40.76,57.88-6.85,11.73-12.66,21.1-16.31,26.9l.25.14a35.58,35.58,0,0,0,13.61-7.48C1193.87,885.84,1191.15,875.57,1201.18,863.58Z"/></g><path class="cls-105" d="M1181.61,688.31s-1.63-1.63-1.63-5.71-4.07-9.78-4.89-10.6-.81,5.71-.81,8.16,5.7,9.78,5.7,9.78Z"/><path class="cls-106" d="M1116.31,908.25s-11.2,2.73-13.56,3.82,6.49,1.63,10.62,2.17,4.71,0,4.71,0a24.45,24.45,0,0,1,2.36-3.26C1121.72,909.41,1116.31,908.25,1116.31,908.25Z"/><path class="cls-107" d="M1122.2,903.56l-6.26,5.63a3.12,3.12,0,0,0,3.13,1.88l6.89-5Z"/><path class="cls-108" d="M1204.54,802.72c-22.45,24.25-45.06,50.79-67.34,79.8q-9.14,11.9-17.69,23.66l5.78,1.37a84.67,84.67,0,0,0,30.2-17.71c11.74-10.84,10.55-16.37,22.42-27.14,14-12.68,21.54-10.37,34.9-22,6.52-5.68,14.49-14.74,20.68-29.51Z"/><path class="cls-109" d="M1255.53,707.71s-6.45,5.1-8.71,9.67,3.15,6.53,3.15,6.53l-1.48,2.86a7,7,0,0,1-6.6,3.74l-2.42-.14c1.67,1,4.19,2.55,7.37,4.17,5.85,3,12.8,5.78,13.44,4.72.46-.76-2.85-2.5-3.94-6.72a11.26,11.26,0,0,1-.15-4.68l.42-1.32S1265.33,713,1255.53,707.71Z"/><path class="cls-110" d="M1253.35,713.58c-1.76-2.05-2.25-5.69-.81-7.34.74-.84,2.24-1.45,5.7-.81,8.7,1.59,14.13,8.11,18.75,11.41,8,5.71,16.06,3.52,29.35,3.26,4.1-.08,35.64.07,62.77,13.86,9.45,4.8,24.84,12.63,28.53,28.53,2.38,10.23.16,24.85-9,31-12.3,8.27-28.55-4.67-37.5,4.08-5.86,5.72-.82,13.12-6.52,19.56-7.89,8.89-29.74,8.57-43.21-1.63-15.43-11.68-5.38-25.36-24.46-52.17-6.73-9.46-11.56-20.23-18.75-29.35-.24-.31-8.53-10.82-5.7-14.67,1-1.34,3.34-1.93,3.26-3.26C1255.74,715.07,1254.5,714.92,1253.35,713.58Z"/><path class="cls-111" d="M1182.43,685.86l-4.08,2.45c1.46,17.31,7.15,28.21,12.23,35.05,10.24,13.79,21.48,15.73,22.83,26.91.81,6.73-3.09,7.55-9,26.08-3.46,10.91-5.28,16.64-4.89,24.46.2,4.12.86,17.35,9.78,25.27,3.6,3.2,7.35,4.46,31.79,6.52,28.18,2.38,32.25,1.46,40,5.71,9.67,5.33,14.54,13,17.12,11.41,2.91-1.8-1-13-1.63-14.67-5.67-16.07-14.32-19.57-22.83-35.87a77.36,77.36,0,0,1-7.34-19.57c-4.21-18.94,2-26.92-3.26-36.68-5-9.28-15.36-11.47-25.27-14.68C1223.52,723.6,1203.91,712.92,1182.43,685.86Z"/><path class="cls-112" d="M1290,833.42c-6.49-5.08-11.7-2.43-18.75-8.16-9-7.26-5.19-15.29-12.23-22.82-11.74-12.56-32.72-1.43-38.32-10.6-5.91-9.69,15.92-24.8,10.6-44-2.54-9.17-10.12-15.16-14.67-18.75-12.06-9.51-20.79-7.3-30.17-16.3a34.44,34.44,0,0,1-4-4.58,58,58,0,0,0,8,15.17c10.24,13.79,21.48,15.73,22.83,26.91.81,6.73-3.09,7.55-9,26.08-3.46,10.91-5.28,16.64-4.89,24.46.2,4.12.86,17.35,9.78,25.27,3.6,3.2,7.35,4.46,31.79,6.52,28.18,2.38,32.25,1.46,40,5.71,9.67,5.33,14.54,13,17.12,11.41a1.64,1.64,0,0,0,.49-.49C1296.89,840.48,1293.29,836,1290,833.42Z"/><path class="cls-113" d="M960.78,391.35a1.2,1.2,0,0,1-1.15-.86l-81-265.62a2.24,2.24,0,0,0-1.8-1.59l-.24-.07-3-1.17a1.21,1.21,0,0,1,.88-2.25l2.89,1.14a4.66,4.66,0,0,1,3.58,3.23l81,265.63a1.2,1.2,0,0,1-.8,1.51A1.48,1.48,0,0,1,960.78,391.35Z"/></g></g></g></svg>