<svg width="347" height="347" viewBox="0 0 347 347" fill="none" xmlns="http://www.w3.org/2000/svg">
<rect width="347" height="347" fill="white"/>
<path fill-rule="evenodd" clip-rule="evenodd" d="M173.741 179.214C186.421 179.227 198.615 174.338 207.774 165.57L173.68 131.995L139.312 165.204C148.511 174.202 160.873 179.232 173.741 179.214ZM181.921 112.736L219.098 149.21C222.27 141.735 223.547 133.593 222.814 125.506C222.081 117.418 219.362 109.638 214.899 102.854C210.435 96.0713 204.364 90.4959 197.227 86.6238C190.089 82.7517 182.106 80.7028 173.986 80.6592C165.866 80.6156 157.861 82.5786 150.682 86.3739C143.503 90.1691 137.373 95.679 132.837 102.414C128.3 109.149 125.498 116.9 124.679 124.979C123.859 133.057 125.049 141.213 128.14 148.722L165.592 112.644C167.787 110.525 170.724 109.349 173.775 109.366C176.826 109.383 179.75 110.593 181.921 112.736ZM173.741 198.84C187.373 198.846 200.701 194.809 212.039 187.24C223.377 179.67 232.215 168.909 237.437 156.316C242.658 143.723 244.027 129.864 241.371 116.493C238.715 103.122 232.154 90.8387 222.516 81.197C212.879 71.5553 200.598 64.9883 187.228 62.3265C173.858 59.6648 159.999 61.0278 147.404 66.2433C134.809 71.4588 124.043 80.2924 116.469 91.6269C108.895 102.961 104.852 116.288 104.852 129.92C104.852 148.193 112.109 165.719 125.027 178.643C137.945 191.567 155.468 198.832 173.741 198.84ZM214.733 237.054C213.411 235.559 211.77 234.38 209.932 233.604C208.094 232.827 206.104 232.473 204.111 232.567C199.705 232.427 195.424 234.04 192.207 237.054V219.229H181.524V273.071H192.207V252.315C192.055 249.591 192.914 246.907 194.619 244.776C195.415 243.86 196.407 243.134 197.522 242.653C198.637 242.172 199.846 241.949 201.059 241.999C202.042 241.916 203.03 242.073 203.939 242.456C204.848 242.838 205.65 243.436 206.278 244.196C207.546 246.173 208.135 248.509 207.957 250.85V273.132H218.64V249.019C218.856 244.686 217.465 240.425 214.733 237.054ZM76.8625 233.422H68.8656L67.7057 237.237C64.1537 234.036 59.5141 232.311 54.7336 232.415C51.9825 232.33 49.2433 232.813 46.6863 233.831C44.1292 234.85 41.8088 236.383 39.8692 238.336C37.939 240.289 36.4245 242.614 35.4173 245.168C34.4101 247.723 33.931 250.456 34.0088 253.201C33.9278 255.969 34.405 258.725 35.4118 261.305C36.4186 263.885 37.9345 266.236 39.8692 268.218C41.7942 270.202 44.1078 271.768 46.6653 272.819C49.2229 273.869 51.9695 274.381 54.7336 274.322C59.4399 274.388 64.0048 272.714 67.5531 269.622L68.4383 273.132H76.8625V233.422ZM55.4967 263.944C54.0741 263.989 52.6575 263.741 51.3345 263.216C50.0115 262.691 48.8103 261.9 47.805 260.892C46.8034 259.864 46.0174 258.645 45.4932 257.309C44.969 255.972 44.7173 254.544 44.7528 253.109C44.7213 251.189 45.1949 249.294 46.1263 247.615C47.0259 246.037 48.3331 244.73 49.9111 243.83C51.6061 242.845 53.5366 242.339 55.4967 242.365C56.9196 242.365 58.3287 242.645 59.6433 243.19C60.9579 243.734 62.1524 244.533 63.1586 245.539C64.1647 246.545 64.9629 247.739 65.5074 249.054C66.0519 250.369 66.3322 251.778 66.3322 253.201C66.3322 254.623 66.0519 256.033 65.5074 257.347C64.9629 258.662 64.1647 259.856 63.1586 260.862C62.1524 261.869 60.9579 262.667 59.6433 263.211C58.3287 263.756 56.9196 264.036 55.4967 264.036V263.944ZM121.67 238.244C119.749 236.291 117.445 234.757 114.903 233.738C112.36 232.718 109.634 232.237 106.897 232.323C102.23 232.251 97.7069 233.94 94.2298 237.054L92.3985 233.483H85.3172V287.355H96.0001V270.934C99.2182 273.128 103.033 274.279 106.927 274.231C109.663 274.302 112.385 273.814 114.925 272.796C117.466 271.777 119.771 270.251 121.7 268.309C123.656 266.338 125.191 263.991 126.214 261.41C127.237 258.829 127.726 256.068 127.652 253.292C127.734 250.525 127.248 247.77 126.225 245.198C125.201 242.626 123.661 240.29 121.7 238.336L121.67 238.244ZM105.92 264.036C104.498 264.073 103.084 263.822 101.762 263.297C100.44 262.773 99.2378 261.986 98.2283 260.984C97.2275 259.961 96.4418 258.748 95.9176 257.416C95.3934 256.085 95.1412 254.662 95.176 253.231C95.1427 251.289 95.5938 249.369 96.4885 247.645C97.3974 246.02 98.7392 244.678 100.365 243.769C102.078 242.835 104 242.352 105.95 242.365C107.873 242.344 109.768 242.828 111.445 243.769C113.077 244.669 114.421 246.013 115.321 247.645C116.259 249.357 116.742 251.28 116.725 253.231C116.767 254.668 116.515 256.099 115.984 257.434C115.452 258.77 114.653 259.983 113.635 260.998C112.617 262.013 111.402 262.809 110.064 263.337C108.727 263.865 107.296 264.113 105.859 264.067L105.92 264.036ZM155.031 232.415C157.769 232.328 160.495 232.81 163.037 233.829C165.579 234.848 167.883 236.383 169.804 238.336C171.765 240.29 173.304 242.626 174.328 245.198C175.352 247.77 175.838 250.525 175.756 253.292C175.83 256.068 175.341 258.829 174.318 261.41C173.295 263.991 171.759 266.338 169.804 268.309C167.875 270.251 165.569 271.777 163.029 272.796C160.488 273.814 157.767 274.302 155.031 274.231C151.136 274.279 147.322 273.128 144.104 270.934V287.355H133.421V233.513H140.502L142.333 237.085C145.827 233.986 150.361 232.318 155.031 232.415ZM146.362 261.045C147.88 262.587 149.824 263.639 151.945 264.067C154.066 264.494 156.266 264.277 158.262 263.443C160.259 262.609 161.96 261.197 163.146 259.387C164.333 257.578 164.951 255.455 164.92 253.292C164.937 251.341 164.454 249.418 163.516 247.706C162.658 246.094 161.369 244.752 159.792 243.83C158.115 242.889 156.221 242.405 154.298 242.426C152.347 242.413 150.425 242.896 148.713 243.83C147.087 244.739 145.745 246.081 144.836 247.706C143.941 249.43 143.49 251.35 143.524 253.292C143.461 254.708 143.679 256.122 144.166 257.453C144.654 258.784 145.4 260.005 146.362 261.045ZM258.105 269.316C254.324 272.473 249.555 274.201 244.63 274.201C239.704 274.201 234.935 272.473 231.154 269.316C229.454 267.638 228.125 265.622 227.252 263.398C226.38 261.174 225.983 258.792 226.087 256.405V233.513H236.801V255.123C236.662 257.515 237.388 259.877 238.846 261.777C240.395 263.282 242.47 264.124 244.63 264.124C246.79 264.124 248.864 263.282 250.414 261.777C251.917 259.896 252.677 257.528 252.55 255.123V233.513H263.233V256.344C263.337 258.745 262.934 261.141 262.05 263.376C261.167 265.611 259.823 267.635 258.105 269.316ZM310.909 219.229H300.196V235.62C296.961 233.538 293.176 232.475 289.33 232.567C285.595 232.514 281.912 233.44 278.647 235.253C275.522 237.021 272.937 239.606 271.169 242.731C269.395 246.02 268.491 249.708 268.544 253.445C268.5 257.19 269.403 260.886 271.169 264.189C273 267.289 275.651 269.824 278.83 271.514C282.092 273.338 285.776 274.275 289.513 274.231C294.049 274.304 298.455 272.72 301.905 269.774L303.157 273.071H311.062L310.909 219.229ZM290.185 264.128C288.755 264.161 287.334 263.904 286.008 263.37C284.681 262.837 283.477 262.039 282.469 261.025C281.461 260.011 280.67 258.803 280.144 257.473C279.618 256.144 279.368 254.721 279.41 253.292C279.362 251.855 279.608 250.424 280.133 249.086C280.658 247.747 281.451 246.53 282.462 245.509C284.545 243.527 287.31 242.422 290.185 242.422C293.059 242.422 295.824 243.527 297.907 245.509C298.919 246.53 299.711 247.747 300.236 249.086C300.761 250.424 301.007 251.855 300.959 253.292C300.992 254.723 300.739 256.145 300.215 257.476C299.691 258.808 298.906 260.021 297.907 261.045C296.896 262.056 295.69 262.851 294.363 263.381C293.035 263.911 291.614 264.165 290.185 264.128Z" fill="#0084FF"/>
</svg>
