<svg width="347" height="347" viewBox="0 0 347 347" fill="none" xmlns="http://www.w3.org/2000/svg">
<rect width="347" height="347" fill="white"/>
<path d="M128.824 295.69C127.919 295.753 127.011 295.611 126.168 295.276C125.325 294.941 124.568 294.42 123.953 293.752C122.713 292.218 122.097 290.272 122.228 288.303C122.103 286.284 122.728 284.289 123.983 282.703C124.616 282.022 125.392 281.489 126.255 281.144C127.119 280.798 128.048 280.648 128.976 280.705C129.668 280.711 130.358 280.792 131.033 280.947C131.602 281.032 132.153 281.206 132.667 281.462L132.002 283.308C131.486 283.12 130.96 282.959 130.428 282.824C129.931 282.713 129.424 282.652 128.915 282.642C125.889 282.642 124.497 284.519 124.497 288.273C124.4 289.718 124.783 291.155 125.587 292.36C125.947 292.815 126.407 293.18 126.932 293.427C127.457 293.674 128.033 293.796 128.613 293.782C129.892 293.763 131.156 293.495 132.334 292.995V295.054C131.229 295.534 130.028 295.752 128.824 295.69Z" fill="#969696"/>
<path d="M148.009 288.183C148.122 290.187 147.485 292.162 146.223 293.722C145.597 294.386 144.835 294.906 143.989 295.246C143.142 295.585 142.232 295.737 141.321 295.69C140.11 295.713 138.915 295.399 137.872 294.782C136.856 294.162 136.046 293.257 135.542 292.179C134.97 290.926 134.691 289.559 134.725 288.183C134.599 286.191 135.225 284.225 136.48 282.673C137.11 282.007 137.878 281.486 138.73 281.146C139.581 280.807 140.497 280.656 141.412 280.705C142.314 280.663 143.215 280.823 144.048 281.174C144.88 281.525 145.623 282.058 146.223 282.734C147.477 284.264 148.114 286.207 148.009 288.183ZM136.994 288.183C136.89 289.68 137.284 291.17 138.114 292.421C138.495 292.907 138.989 293.294 139.553 293.547C140.117 293.8 140.735 293.912 141.352 293.874C141.973 293.912 142.594 293.8 143.163 293.547C143.732 293.294 144.232 292.908 144.62 292.421C145.454 291.172 145.848 289.681 145.739 288.183C145.85 286.703 145.456 285.23 144.62 284.005C144.224 283.521 143.718 283.139 143.144 282.892C142.57 282.644 141.945 282.538 141.321 282.582C140.71 282.539 140.097 282.643 139.533 282.885C138.97 283.128 138.473 283.501 138.084 283.975C137.273 285.222 136.891 286.699 136.994 288.183Z" fill="#969696"/>
<path d="M160.506 295.418V285.973C160.577 285.023 160.285 284.082 159.689 283.339C159.353 283.029 158.956 282.793 158.523 282.647C158.091 282.501 157.632 282.448 157.177 282.492C156.568 282.439 155.954 282.52 155.379 282.73C154.804 282.939 154.282 283.271 153.849 283.703C153.04 284.893 152.666 286.325 152.789 287.759V295.327H150.611V280.978H152.396L152.759 282.946C153.226 282.242 153.874 281.677 154.635 281.311C155.484 280.9 156.416 280.693 157.359 280.706C158.785 280.599 160.197 281.055 161.292 281.977C161.762 282.523 162.116 283.159 162.335 283.845C162.553 284.532 162.631 285.256 162.563 285.973V295.388L160.506 295.418Z" fill="#969696"/>
<path d="M176.149 291.482C176.168 292.069 176.042 292.652 175.784 293.18C175.525 293.708 175.142 294.164 174.667 294.509C173.403 295.307 171.922 295.688 170.431 295.599C168.885 295.677 167.345 295.364 165.952 294.691V292.663C166.661 293.029 167.413 293.303 168.191 293.48C168.941 293.681 169.715 293.783 170.491 293.783C171.401 293.836 172.309 293.648 173.124 293.238C173.424 293.081 173.672 292.84 173.839 292.544C174.005 292.249 174.083 291.911 174.062 291.573C174.056 291.289 173.984 291.01 173.853 290.758C173.722 290.506 173.534 290.288 173.305 290.12C172.425 289.528 171.468 289.059 170.461 288.727C169.46 288.382 168.497 287.936 167.586 287.395C167.077 287.067 166.643 286.634 166.315 286.124C166.036 285.604 165.901 285.019 165.922 284.429C165.905 283.882 166.026 283.34 166.275 282.853C166.523 282.366 166.891 281.95 167.344 281.644C168.524 280.891 169.911 280.53 171.308 280.615C172.867 280.632 174.408 280.951 175.847 281.553L175.09 283.339C173.84 282.788 172.493 282.49 171.126 282.461C170.32 282.405 169.514 282.572 168.797 282.945C168.553 283.071 168.35 283.262 168.211 283.498C168.072 283.734 168.002 284.004 168.01 284.277C167.998 284.63 168.093 284.978 168.282 285.276C168.56 285.589 168.887 285.855 169.25 286.063C170.073 286.474 170.922 286.828 171.792 287.123C173.067 287.507 174.251 288.145 175.272 289C175.575 289.335 175.808 289.727 175.959 290.153C176.11 290.579 176.174 291.031 176.149 291.482Z" fill="#969696"/>
<path d="M181.687 280.978V290.362C181.612 291.312 181.905 292.255 182.504 292.995C182.836 293.311 183.232 293.553 183.665 293.704C184.098 293.856 184.558 293.913 185.015 293.873C185.627 293.922 186.242 293.836 186.817 293.622C187.392 293.407 187.913 293.069 188.344 292.632C189.137 291.436 189.499 290.006 189.372 288.576V280.978H191.581V295.417H189.766L189.433 293.48C188.982 294.198 188.33 294.767 187.557 295.115C186.706 295.515 185.774 295.712 184.834 295.69C183.403 295.794 181.986 295.35 180.87 294.449C180.391 293.901 180.029 293.262 179.805 292.569C179.581 291.877 179.501 291.147 179.569 290.422V280.978H181.687Z" fill="#969696"/>
<path d="M198.027 295.418H195.848V274.894H198.027V295.418Z" fill="#969696"/>
<path d="M207.467 293.874C207.84 293.905 208.214 293.905 208.587 293.874L209.434 293.693V295.358C209.11 295.508 208.762 295.601 208.405 295.63C207.993 295.67 207.577 295.67 207.165 295.63C204.351 295.63 202.959 294.147 202.959 291.21V282.674H200.901V281.614L202.959 280.706L203.897 277.679H205.137V281.039H209.343V282.734H205.137V291.241C205.084 291.964 205.312 292.679 205.773 293.238C205.989 293.465 206.254 293.639 206.548 293.75C206.841 293.86 207.155 293.902 207.467 293.874Z" fill="#969696"/>
<path d="M221.659 295.418L221.235 293.36C220.688 294.148 219.949 294.784 219.087 295.206C218.234 295.559 217.316 295.725 216.394 295.69C215.177 295.76 213.979 295.371 213.035 294.601C212.638 294.205 212.326 293.733 212.118 293.212C211.909 292.692 211.81 292.134 211.825 291.574C211.825 288.546 214.155 287.124 218.814 287.002H221.265V285.973C221.335 285.075 221.077 284.183 220.539 283.461C220.228 283.174 219.859 282.955 219.458 282.82C219.056 282.684 218.631 282.634 218.209 282.674C216.784 282.728 215.388 283.101 214.124 283.763L213.428 282.098C214.174 281.697 214.967 281.392 215.789 281.19C216.619 280.975 217.473 280.864 218.33 280.857C219.711 280.738 221.085 281.149 222.173 282.008C222.622 282.499 222.964 283.078 223.177 283.709C223.391 284.339 223.471 285.007 223.414 285.67V295.539L221.659 295.418ZM216.727 293.874C217.309 293.908 217.892 293.827 218.442 293.635C218.993 293.443 219.5 293.143 219.934 292.754C220.323 292.356 220.626 291.881 220.824 291.36C221.022 290.839 221.11 290.283 221.084 289.727V288.425H218.905C217.61 288.39 216.325 288.659 215.153 289.212C214.775 289.444 214.467 289.776 214.264 290.171C214.061 290.566 213.971 291.009 214.003 291.452C213.978 291.788 214.027 292.125 214.147 292.439C214.267 292.753 214.456 293.036 214.699 293.269C215.28 293.708 216 293.923 216.727 293.874Z" fill="#969696"/>
<path d="M237.515 295.419V285.974C237.58 285.03 237.3 284.094 236.728 283.34C236.385 283.032 235.982 282.798 235.545 282.652C235.108 282.506 234.645 282.452 234.186 282.493C233.581 282.438 232.972 282.519 232.401 282.728C231.831 282.937 231.314 283.271 230.888 283.703C230.063 284.886 229.688 286.325 229.829 287.76V295.328H227.62V280.979H229.405L229.768 282.947C230.22 282.23 230.872 281.661 231.644 281.312C232.483 280.905 233.405 280.698 234.337 280.706C235.765 280.597 237.178 281.053 238.271 281.978C238.773 282.51 239.161 283.138 239.41 283.826C239.66 284.513 239.767 285.244 239.723 285.974V295.388L237.515 295.419Z" fill="#969696"/>
<path d="M248.801 293.874C249.174 293.904 249.548 293.904 249.921 293.874L250.768 293.693V295.358C250.432 295.507 250.074 295.599 249.709 295.63C249.296 295.67 248.881 295.67 248.468 295.63C245.684 295.63 244.292 294.147 244.292 291.21V282.674H242.205V281.614L244.292 280.706L245.2 277.679H246.471V281.039H250.677V282.734H246.471V291.241C246.418 291.964 246.645 292.679 247.106 293.238C247.322 293.467 247.586 293.643 247.88 293.753C248.174 293.863 248.489 293.904 248.801 293.874Z" fill="#969696"/>
<path d="M263.386 291.483C263.406 292.074 263.278 292.66 263.014 293.189C262.75 293.718 262.358 294.172 261.873 294.51C260.621 295.309 259.149 295.691 257.667 295.6C256.121 295.684 254.58 295.372 253.189 294.692V292.664C253.896 293.033 254.649 293.308 255.428 293.481C256.177 293.684 256.951 293.785 257.727 293.784C258.637 293.833 259.544 293.645 260.36 293.239C260.652 293.075 260.892 292.831 261.053 292.537C261.214 292.242 261.288 291.909 261.268 291.574C261.261 291.293 261.193 291.017 261.067 290.766C260.941 290.515 260.762 290.295 260.542 290.121C259.662 289.529 258.705 289.06 257.697 288.728C256.642 288.399 255.627 287.953 254.671 287.396C254.148 287.086 253.711 286.649 253.4 286.125C253.112 285.607 252.966 285.022 252.977 284.43C252.96 283.88 253.085 283.335 253.339 282.847C253.593 282.359 253.969 281.945 254.429 281.645C255.599 280.896 256.976 280.536 258.363 280.615C259.932 280.629 261.484 280.948 262.932 281.554L262.145 283.34C260.905 282.789 259.568 282.491 258.212 282.462C257.396 282.409 256.581 282.577 255.851 282.946C255.613 283.077 255.414 283.27 255.275 283.504C255.137 283.739 255.064 284.006 255.065 284.278C255.064 284.634 255.169 284.982 255.367 285.277C255.639 285.597 255.967 285.864 256.336 286.064C257.147 286.477 257.986 286.831 258.847 287.124C260.125 287.5 261.31 288.139 262.327 289.001C262.668 289.316 262.939 289.701 263.122 290.129C263.304 290.556 263.394 291.018 263.386 291.483Z" fill="#969696"/>
<path d="M69.7288 228.759C77.6869 228.759 82.0442 231.574 82.0442 239.293C82.0442 245.56 79.0183 246.861 77.4146 247.618C79.4333 248.337 81.1489 249.719 82.2811 251.539C83.4132 253.359 83.8951 255.509 83.6479 257.638C83.6479 264.298 80.622 269.353 69.3657 269.353H50V228.759H69.7288ZM58.2909 235.721V244.803H67.6712C72.7244 244.803 73.9651 244.197 73.9651 239.99C73.9651 236.599 73.1783 235.812 66.0977 235.812L58.2909 235.721ZM58.2909 251.675V262.391H65.8254C73.4507 262.391 75.1452 261.816 75.1452 257.184C75.1452 252.553 73.5717 251.675 67.4594 251.675H58.2909Z" fill="#474747"/>
<path d="M87.037 228.759H94.9043V269.353H87.037V228.759Z" fill="#474747"/>
<path d="M119.384 266.175C118.345 267.565 116.96 268.657 115.367 269.343C113.774 270.028 112.028 270.283 110.306 270.081C103.104 270.081 99.9877 267.417 99.9877 258.88V239.506H107.855V258.365C107.855 262.391 109.096 263.633 113.06 263.633C117.023 263.633 119.111 262.27 119.111 256.731V239.506H126.979V269.354H119.384V266.175Z" fill="#474747"/>
<path d="M158.297 260.787C157.48 267.81 152.79 270.08 144.71 270.08C135.481 270.08 130.428 267.053 130.428 254.127C130.428 245.56 132.698 238.779 145.043 238.779C155.513 238.779 158.63 243.653 158.63 256.609H138.538C138.81 262.27 140.232 263.633 144.589 263.633C147.615 263.633 149.401 263.057 150.187 260.787H158.297ZM150.762 251.705C150.429 246.287 148.251 245.318 144.71 245.318C140.111 245.318 138.931 246.892 138.659 251.705H150.762Z" fill="#474747"/>
<path d="M162.684 228.759H170.551V242.109C171.639 240.889 173.004 239.95 174.532 239.37C176.059 238.791 177.704 238.588 179.327 238.779C188.223 238.779 191.733 243.804 191.733 253.915C191.733 265.236 187.466 269.868 179.206 269.929C175.484 269.929 172.185 269.414 170.128 266.357V269.202H162.684V228.759ZM176.936 263.632C181.596 263.632 183.623 261.997 183.623 254.217C183.623 247.951 182.262 245.136 176.845 245.136C172.367 245.136 170.34 246.952 170.34 254.217C170.34 262.27 172.609 263.632 176.936 263.632Z" fill="#474747"/>
<path d="M222.597 260.787C221.628 267.81 217.12 270.08 208.92 270.08C199.842 270.08 194.668 267.053 194.668 254.127C194.668 245.56 196.937 238.779 209.253 238.779C219.752 238.779 222.839 243.653 222.839 256.609H202.868C203.171 262.27 204.562 263.633 208.92 263.633C211.946 263.633 213.731 263.057 214.548 260.787H222.597ZM215.062 251.705C214.729 246.287 212.581 245.318 209.011 245.318C204.441 245.318 203.261 246.892 202.959 251.705H215.062Z" fill="#474747"/>
<path d="M227.075 269.353V239.504H234.489V243.258C235.168 241.824 236.274 240.635 237.655 239.854C239.037 239.074 240.626 238.74 242.205 238.899C242.878 238.827 243.558 238.827 244.232 238.899V246.618C243.412 246.484 242.582 246.423 241.751 246.437C235.517 246.437 234.942 251.553 234.942 258.334V269.383L227.075 269.353Z" fill="#474747"/>
<path d="M247.56 269.354V239.506H254.974V243.259C255.653 241.825 256.759 240.636 258.141 239.855C259.522 239.075 261.111 238.741 262.69 238.9C263.364 238.83 264.043 238.83 264.717 238.9V246.619C263.897 246.485 263.067 246.424 262.236 246.438C256.003 246.438 255.428 251.554 255.428 258.335V269.384L247.56 269.354Z" fill="#474747"/>
<path d="M275.308 239.506C276.843 246.94 279.062 254.216 281.935 261.241L288.44 239.506H296.671L286.08 269.354C282.721 278.799 281.602 281.463 274.34 281.463C273.016 281.461 271.692 281.39 270.376 281.251V275.196C270.809 275.224 271.244 275.224 271.677 275.196C274.703 275.196 276.851 274.863 277.729 270.262C273.221 260.358 269.497 250.115 266.593 239.627L275.308 239.506Z" fill="#474747"/>
<path d="M129.823 205.692C148.557 205.692 163.743 190.499 163.743 171.757C163.743 153.015 148.557 137.822 129.823 137.822C111.089 137.822 95.9027 153.015 95.9027 171.757C95.9027 190.499 111.089 205.692 129.823 205.692Z" fill="#5F259F"/>
<path d="M214.578 120.87C233.312 120.87 248.498 105.677 248.498 86.9348C248.498 68.1931 233.312 53 214.578 53C195.845 53 180.658 68.1931 180.658 86.9348C180.658 105.677 195.845 120.87 214.578 120.87Z" fill="#BB16A3"/>
<path d="M214.578 137.822C201.088 137.822 188.15 132.461 178.611 122.917C169.072 113.374 163.713 100.431 163.713 86.9348C163.713 80.2219 161.723 73.6597 157.994 68.0785C154.266 62.4973 148.966 58.1478 142.767 55.5803C136.567 53.0127 129.745 52.3424 123.164 53.6543C116.583 54.9661 110.54 58.2011 105.797 62.95C101.054 67.6989 97.8261 73.7483 96.5207 80.3331C95.2153 86.9178 95.8913 93.7419 98.4633 99.9421C101.035 106.142 105.388 111.44 110.97 115.165C116.552 118.891 123.113 120.876 129.823 120.87C136.503 120.87 143.117 122.186 149.288 124.743C155.46 127.301 161.067 131.049 165.79 135.774C170.513 140.499 174.26 146.109 176.816 152.283C179.373 158.457 180.688 165.074 180.688 171.757C180.688 178.47 182.678 185.032 186.407 190.613C190.136 196.194 195.435 200.544 201.635 203.111C207.835 205.679 214.656 206.349 221.237 205.037C227.818 203.725 233.862 200.49 238.604 195.742C243.347 190.993 246.575 184.943 247.881 178.359C249.186 171.774 248.51 164.95 245.938 158.749C243.366 152.549 239.014 147.251 233.432 143.526C227.849 139.801 221.288 137.816 214.578 137.822Z" fill="#5F259F"/>
</svg>
